<svg width="102" height="16" viewBox="0 0 102 16" fill="none" xmlns="http://www.w3.org/2000/svg">
<path d="M7.15591 0.259766H0V15.191H4.6058V11.111H6.84365C10.4997 11.111 12.9977 8.99032 12.9977 5.70396C12.9847 2.3804 10.6428 0.259766 7.15591 0.259766ZM5.89387 7.8742H4.6058V3.55853H5.9329C7.42913 3.55853 8.33989 4.29021 8.33989 5.71636C8.33989 7.14252 7.42913 7.8742 5.89387 7.8742Z" fill="black"/>
<path d="M27.9064 5.33192C27.9064 2.13237 25.7596 0.259766 21.5701 0.259766H14.6094V15.191H19.2152V10.1809H20.7244L23.1965 15.191H28.3487L25.3693 9.53598C27.0216 8.7919 27.9064 7.09292 27.9064 5.33192ZM22.9363 8.24624C22.9232 8.01062 22.8452 7.81219 22.7281 7.63858C22.585 7.42775 22.3768 7.25413 22.1166 7.10532C21.44 6.70847 20.4122 6.43564 19.2412 6.0512H19.2282C18.6037 5.84038 18.1223 5.44353 17.745 4.99709C17.0424 4.15379 16.7561 3.12448 16.6781 2.82685C16.7692 3.12448 17.0424 3.3229 17.4457 3.45932C17.9011 3.60813 18.5386 3.68254 19.2282 3.70734C20.23 3.75695 21.375 3.74455 22.3898 3.84376C23.2875 3.93057 24.0812 4.10419 24.5626 4.50103C24.6407 4.56304 24.7057 4.62505 24.7708 4.69945C26.1889 6.43564 22.9363 8.24624 22.9363 8.24624Z" fill="black"/>
<path d="M34.3734 0.259766H29.7676V15.191H34.3734V0.259766Z" fill="black"/>
<path d="M45.4605 9.15154H45.3695L41.8566 0.259766H36.5352V15.191H40.5555V6.54726H40.6466L44.1725 15.191H46.6445L50.1704 6.54726H50.2615V15.191H54.2688V0.259766H48.9604L45.4605 9.15154Z" fill="black"/>
<path d="M60.8007 0.259766L55.6875 15.191H60.3714L61.191 12.2271H65.966L66.7857 15.191H71.6907L66.5775 0.259766H60.8007ZM62.0237 9.12674L63.533 3.70734H63.6241L65.1333 9.12674H62.0237Z" fill="black"/>
<path d="M80.6665 6.10147L79.0922 5.82864C77.5309 5.55581 76.8543 5.23338 76.8543 4.5637C76.8543 3.89403 77.5049 3.34837 78.7929 3.34837C80.055 3.34837 81.0308 3.88163 81.0568 4.78693H85.2983C85.2593 1.8478 82.9173 0 78.7279 0C75.0068 0 72.2876 1.89741 72.2876 4.89854C72.2876 7.21759 73.992 8.71816 77.1146 9.23902L78.6888 9.51185C80.4453 9.80948 81.0568 10.1071 81.0568 10.814C81.0568 11.5457 80.2111 12.0913 78.832 12.0913C77.5309 12.0913 76.438 11.5705 76.2558 10.6776H72.0273C72.0404 13.7283 74.7206 15.4645 78.7799 15.4645C83.0995 15.4645 85.6236 13.5051 85.6236 10.4295C85.6106 7.99888 84.0233 6.68434 80.6665 6.10147Z" fill="black"/>
<path d="M96.5397 6.89449L101.692 0.259766H96.865L92.025 6.59686H91.9339V0.259766H87.3281V15.191H91.9339V11.2846L93.1569 9.7096L96.5788 15.191H101.939L96.5397 6.89449Z" fill="black"/>
</svg>
