<svg width="41" height="41" viewBox="0 0 41 41" fill="none" xmlns="http://www.w3.org/2000/svg">
<path d="M17.0831 34.1668C16.1769 34.1668 15.3079 33.8069 14.6671 33.1661C14.0264 32.5254 13.6664 31.6563 13.6664 30.7502C13.6664 29.844 14.0264 28.975 14.6671 28.3342C15.3079 27.6935 16.1769 27.3335 17.0831 27.3335C17.9892 27.3335 18.8583 27.6935 19.499 28.3342C20.1398 28.975 20.4998 29.844 20.4998 30.7502C20.4998 31.6563 20.1398 32.5254 19.499 33.1661C18.8583 33.8069 17.9892 34.1668 17.0831 34.1668ZM29.0414 34.1668C28.1353 34.1668 27.2662 33.8069 26.6255 33.1661C25.9847 32.5254 25.6248 31.6563 25.6248 30.7502C25.6248 29.844 25.9847 28.975 26.6255 28.3342C27.2662 27.6935 28.1353 27.3335 29.0414 27.3335C29.9476 27.3335 30.8166 27.6935 31.4574 28.3342C32.0981 28.975 32.4581 29.844 32.4581 30.7502C32.4581 31.6563 32.0981 32.5254 31.4574 33.1661C30.8166 33.8069 29.9476 34.1668 29.0414 34.1668ZM6.76817 10.1186C6.34171 10.1049 5.93731 9.92578 5.6405 9.61925C5.34369 9.31271 5.17773 8.90275 5.17773 8.47606C5.17773 8.04937 5.34369 7.63941 5.6405 7.33287C5.93731 7.02633 6.34171 6.84725 6.76817 6.8335H8.73446C10.2754 6.8335 11.6079 7.90291 11.9427 9.40625L14.0833 19.0447C14.4181 20.548 15.7506 21.6174 17.2915 21.6174H30.1245L32.5879 11.7603H16.6235C16.2011 11.7411 15.8023 11.5597 15.5102 11.2539C15.2181 10.9481 15.055 10.5415 15.055 10.1186C15.055 9.69573 15.2181 9.28911 15.5102 8.98335C15.8023 8.67758 16.2011 8.49619 16.6235 8.47691H32.5879C33.0873 8.47677 33.5802 8.59048 34.0291 8.80941C34.4779 9.02835 34.8709 9.34673 35.1783 9.74037C35.4856 10.134 35.6992 10.5925 35.8027 11.0811C35.9062 11.5696 35.897 12.0754 35.7757 12.5598L33.3123 22.4135C33.1347 23.1245 32.7244 23.7557 32.1468 24.2067C31.5692 24.6577 30.8574 24.9027 30.1245 24.9025H17.2915C15.7964 24.9027 14.3459 24.393 13.1796 23.4575C12.0133 22.5219 11.2009 21.2166 10.8767 19.757L8.73446 10.1186H6.76817Z" fill="black"/>
</svg>
