<svg width="13" height="8" viewBox="0 0 13 8" fill="none" xmlns="http://www.w3.org/2000/svg">
<path fill-rule="evenodd" clip-rule="evenodd" d="M0 1C0 0.447715 0.447715 0 1 0H12C12.5523 0 13 0.447715 13 1C13 1.55228 12.5523 2 12 2H1C0.447715 2 0 1.55228 0 1ZM0 4C0 3.44772 0.447715 3 1 3H12C12.5523 3 13 3.44772 13 4C13 4.55228 12.5523 5 12 5H1C0.447715 5 0 4.55228 0 4ZM1 6C0.447715 6 0 6.44772 0 7C0 7.55228 0.447715 8 1 8H12C12.5523 8 13 7.55228 13 7C13 6.44772 12.5523 6 12 6H1Z" fill="black"/>
</svg>
