<svg width="117" height="100" viewBox="0 0 117 100" fill="none" xmlns="http://www.w3.org/2000/svg">
<path fill-rule="evenodd" clip-rule="evenodd" d="M74.6041 35.6572C80.084 35.7461 81.8886 35.7536 84.3493 41.671L92.1726 60.4832C92.1726 60.4832 92.6542 59.4676 92.7897 58.9636C93.5648 56.091 96.4169 53.528 98.2079 55.4183C99.5609 56.8453 100.104 60.9521 98.0709 61.5803C96.9737 61.9195 94.9163 61.8342 94.3685 62.2568C93.8192 62.6793 93.2021 63.3557 93.4068 63.7783C93.5302 64.0303 94.4212 65.9873 95.1135 67.5107C96.2558 70.0274 95.9518 70.487 95.9518 73.4689V97.2719C95.9518 100.276 86.8432 101.492 86.7394 97.2701L86.637 93.0892H37.5361L37.4322 97.2701C37.3299 101.492 28.2213 100.276 28.2213 97.2719V73.4689C28.2213 70.487 27.9173 70.0274 29.0596 67.5107C29.7504 65.9873 30.6414 64.0303 30.7648 63.7783C30.971 63.3557 30.3539 62.6793 29.8046 62.2568C29.2553 61.8342 27.1994 61.9195 26.1022 61.5803C24.0673 60.9521 24.6107 56.8453 25.9637 55.4183C26.4423 54.9124 27.5064 55.0162 27.8495 55.0365C29.4765 55.1311 30.518 55.7556 31.3819 58.9636C31.5174 59.4676 31.999 60.4832 31.999 60.4832L39.8223 41.671C42.283 35.7536 44.0891 35.7461 49.569 35.6572C58.3706 35.4867 65.801 35.4867 74.6041 35.6572ZM82.9903 71.6471C85.4721 71.6471 87.4829 74.1212 87.4829 77.1772C87.4829 80.2314 85.4721 82.7073 82.9903 82.7073C80.5099 82.7073 78.4992 80.2314 78.4992 77.1772C78.4992 74.1212 80.5099 71.6471 82.9903 71.6471ZM40.3626 71.6471C42.8429 71.6471 44.8537 74.1212 44.8537 77.1772C44.8537 80.2314 42.8429 82.7073 40.3626 82.7073C37.8822 82.7073 35.8715 80.2314 35.8715 77.1772C35.8715 74.1212 37.8822 71.6471 40.3626 71.6471ZM49.9061 88.8285C45.8154 88.8285 45.8154 81.1691 49.9061 81.1691H72.9485C77.0393 81.1691 77.0393 88.8285 72.9485 88.8285H49.9061ZM72.7122 39.2784C77.3388 39.347 78.8634 39.3526 80.9419 43.8504L86.5166 55.9242H38.3578V54.6418L43.3396 43.8504C45.4196 39.3526 46.9442 39.347 51.5707 39.2784C59.0027 39.1505 65.2773 39.1505 72.7122 39.2784ZM26.3535 73.0408C18.6732 75.3962 10.2223 67.5848 11.6551 56.4116C-0.103871 56.0984 -4.32254 37.2287 5.38206 29.4006C6.84497 13.7574 16.7377 13.1607 23.0273 17.0914C23.7392 16.0814 24.5896 15.1566 25.5889 14.3486C27.6945 -8.15901 47.2512 0.478946 48.4176 8.93529C55.8044 -6.00369 74.7937 4.98233 69.8481 21.6133L69.8511 21.6152C74.8163 15.4624 84.1206 14.5432 88.7908 23.9873C89.9572 15.531 109.514 6.89302 111.618 29.4006C121.323 37.2287 117.104 56.0984 105.345 56.4116C106.326 64.0544 102.681 70.1238 97.8241 72.4422C97.9114 68.4651 97.2507 67.5107 95.7291 64.1693C101.825 64.3268 102.961 57.4087 99.4195 53.6763C97.3922 51.5321 93.4594 52.9887 92.129 55.3553L86.0049 40.6294C83.0445 33.5111 80.963 33.4704 74.7004 33.3703C66.3173 33.1553 57.8543 33.1553 49.4727 33.3703C43.2086 33.4704 41.1271 33.5111 38.1682 40.6294L32.0441 55.3553C29.7098 51.217 24.1772 51.8304 23.0815 57.2067C22.0174 62.4032 24.9041 64.262 28.444 64.1693C26.641 68.1297 26.3415 68.7357 26.3535 73.0408Z" fill="black"/>
</svg>
