<svg width="97" height="94" viewBox="0 0 97 94" fill="none" xmlns="http://www.w3.org/2000/svg">
<path d="M90.3173 35.7483C88.6575 36.5656 87.6734 38.2839 87.6418 40.0826C86.1873 40.5838 84.4964 41.0931 82.6678 41.5174C81.6568 37.8106 80.0938 34.353 78.0717 31.2533C79.3446 30.3607 80.6415 29.6458 81.7441 29.1076C82.4824 29.9563 83.7095 30.1804 84.7031 29.5729C85.8519 28.8705 86.251 27.3269 85.5947 26.1247C84.9385 24.9226 83.475 24.5172 82.3267 25.2196C81.5025 25.7234 81.0727 26.6609 81.1336 27.5945C79.8937 28.1546 78.3067 28.7611 76.588 29.1495C74.6589 26.6145 72.4061 24.3694 69.8967 22.4779C70.9997 19.7636 72.2457 17.2714 73.411 15.1607C73.0515 15.0609 72.6981 14.9326 72.3561 14.7598C71.581 14.3679 70.9266 13.8163 70.4034 13.1623C69.1499 15.2081 67.5845 17.521 65.737 19.802C63.0997 18.3722 60.2648 17.2939 57.2803 16.6439C57.1709 14.4328 57.4134 12.2457 57.7016 10.5473C58.782 10.3931 59.6586 9.45803 59.7576 8.24791C59.8718 6.84957 58.9051 5.61848 57.5983 5.49866C56.291 5.37885 55.1389 6.41574 55.0247 7.81408C54.9426 8.81753 55.4224 9.72762 56.1801 10.2099C55.8438 11.9082 55.2663 14.0909 54.3006 16.1487C53.0494 15.9989 51.7794 15.914 50.4904 15.914C48.0863 15.914 45.7434 16.1876 43.4831 16.6968C42.5037 14.2571 41.7625 11.8668 41.2148 9.80899C42.9608 8.58289 43.7312 6.1841 42.942 4.00498C42.03 1.48638 39.3824 0.218839 37.0286 1.17336C34.6749 2.12788 33.5063 4.94302 34.4188 7.46163C35.0741 9.27082 36.6253 10.4285 38.319 10.5868C38.8091 12.6596 39.2861 15.1637 39.5569 17.8555C36.4078 19.0062 33.4724 20.6372 30.828 22.6701C29.5561 21.3751 28.4856 19.9593 27.6779 18.7651C28.3271 17.8381 28.3045 16.5211 27.5543 15.6025C26.6867 14.5407 25.1789 14.4154 24.1863 15.3235C23.1937 16.2315 23.0927 17.8281 23.9603 18.8904C24.5831 19.6523 25.5337 19.9228 26.3886 19.6847C27.1788 20.9268 28.0879 22.5568 28.7862 24.3729C26.5792 26.3629 24.6194 28.6483 22.9615 31.1749C19.9204 29.7107 17.1421 27.9913 14.8611 26.4153C14.7488 26.7887 14.6054 27.1546 14.4256 27.5071C14.0232 28.2954 13.4731 28.9658 12.823 29.4935C15.1069 31.2373 17.746 33.4908 20.22 36.1742C19.0788 38.7172 18.2126 41.425 17.6677 44.2577C16.3335 44.2157 15.0743 44.058 14.0137 43.8762C13.8496 42.7355 12.9503 41.8244 11.8058 41.7411C10.4825 41.6442 9.33603 42.6886 9.24545 44.0734C9.15487 45.4583 10.1546 46.6594 11.4779 46.7563C12.4276 46.8257 13.2792 46.3025 13.7212 45.4922C14.7747 45.7059 16.0264 46.0259 17.3153 46.4967C17.1086 48.0877 16.9935 49.7092 16.9935 51.3602C16.9935 53.1289 17.12 54.8662 17.3563 56.5661C14.5695 57.7912 11.7893 58.6514 9.46106 59.242C8.37171 57.3479 6.13642 56.4393 4.04831 57.1881C1.63421 58.0538 0.333506 60.8035 1.14261 63.3296C1.95172 65.8557 4.56444 67.2016 6.97854 66.3355C8.71234 65.7134 9.86679 64.1184 10.0824 62.3337C12.3974 61.8215 15.2715 61.3527 18.3221 61.2389C19.7841 66.5786 22.3954 71.3991 25.8621 75.3775C24.8487 77.2031 23.6805 78.8306 22.661 80.1081C21.4471 79.5805 20.0006 79.9998 19.2099 81.198C18.2956 82.5828 18.6042 84.4809 19.8983 85.4374C21.1924 86.3939 22.9828 86.0469 23.8971 84.6621C24.5538 83.6671 24.5765 82.4091 24.0594 81.4241C25.0685 80.2314 26.3876 78.8331 27.9275 77.5561C31.9188 81.4071 36.7928 84.2502 42.1913 85.7065C42.1291 87.9475 41.9455 90.0413 41.7134 91.9039C42.0418 91.8465 42.3763 91.8115 42.7169 91.8115C43.0207 91.8115 43.3279 91.8355 43.6303 91.8824C44.3681 91.9972 45.0532 92.2518 45.675 92.6073C46.1689 90.7711 46.8624 88.7513 47.831 86.6835C48.7095 86.7563 49.5941 86.8048 50.49 86.8048C54.761 86.8048 58.841 85.9496 62.5973 84.408C64.0032 85.8962 65.1577 87.5731 65.9965 88.9559C65.3039 89.8471 65.2633 91.1635 65.9691 92.121C66.7848 93.2283 68.2846 93.4335 69.3197 92.5798C70.3543 91.7262 70.5317 90.1366 69.716 89.0298C69.1305 88.2356 68.194 87.9146 67.3288 88.1068C66.5919 86.8108 65.7516 85.1139 65.1397 83.2403C69.4589 81.0137 73.2586 77.8352 76.2931 73.9602C78.0137 74.5078 79.6244 75.1064 81.0689 75.6955C81.1048 75.3056 81.1732 74.9162 81.2794 74.5318C81.5176 73.6711 81.9271 72.8963 82.4593 72.2393C81.3015 71.7002 80.0518 71.0746 78.7591 70.3622C82.0639 64.8692 83.986 58.3538 83.986 51.3597C83.986 49.2959 83.81 47.277 83.4901 45.31C85.2876 44.4089 87.0308 43.6716 88.5759 43.0855C89.853 44.8432 92.1681 45.4902 94.1675 44.5058C96.4783 43.368 97.4898 40.485 96.4264 38.0672C95.3634 35.6485 92.6281 34.6106 90.3173 35.7483ZM63.1342 58.0318C62.6077 57.3299 62.7181 56.3095 63.3814 55.7524C64.0447 55.1952 65.009 55.312 65.5356 56.014C66.0621 56.7159 65.9517 57.7363 65.2883 58.2934C64.6255 58.8506 63.6607 58.7337 63.1342 58.0318ZM53.398 50.1211C54.0614 49.5639 55.0257 49.6808 55.5522 50.3827C56.0787 51.0846 55.9683 52.105 55.305 52.6621C54.6417 53.2193 53.6773 53.1025 53.1508 52.4005C52.6243 51.6986 52.7352 50.6782 53.398 50.1211ZM53.6566 60.6168C52.9069 59.6184 53.0645 58.1656 54.008 57.3728C54.9516 56.5796 56.3245 56.7463 57.0737 57.7448C57.8233 58.7432 57.6658 60.196 56.7222 60.9887C55.7786 61.782 54.4058 61.6153 53.6566 60.6168ZM57.5087 45.8557C56.5651 46.6489 55.1922 46.4822 54.443 45.4838C53.6934 44.4853 53.8509 43.0326 54.7945 42.2398C55.7381 41.4465 57.1105 41.6132 57.8601 42.6117C58.6098 43.6102 58.4522 45.0624 57.5087 45.8557ZM53.1848 36.8202C51.7383 34.8927 52.0421 32.0895 53.8632 30.5589C55.6848 29.0282 58.3338 29.3497 59.7803 31.2768C61.2268 33.2043 60.9229 36.0074 59.1019 37.5381C57.2803 39.0692 54.6313 38.7477 53.1848 36.8202ZM68.8503 33.2207C68.2422 33.2207 67.7496 32.699 67.7496 32.056C67.7496 31.4125 68.2426 30.8913 68.8503 30.8913C69.4584 30.8913 69.9509 31.413 69.9509 32.056C69.9509 32.6995 69.4584 33.2207 68.8503 33.2207ZM63.8235 50.1211C64.4868 49.5639 65.4511 49.6808 65.9776 50.3827C66.5041 51.0846 66.3937 52.105 65.7304 52.6621C65.0671 53.2193 64.1027 53.1025 63.5762 52.4005C63.0497 51.6986 63.1606 50.6782 63.8235 50.1211ZM63.4564 41.2972C63.9324 40.8974 64.625 40.9812 65.0029 41.4849C65.3813 41.9887 65.3015 42.7215 64.8255 43.1214C64.3495 43.5213 63.6569 43.4374 63.279 42.9337C62.9011 42.43 62.9804 41.6976 63.4564 41.2972ZM72.0254 43.1214C71.5493 43.5213 70.8568 43.4374 70.4789 42.9337C70.101 42.43 70.1802 41.6971 70.6563 41.2972C71.1323 40.8974 71.8249 40.9812 72.2028 41.4849C72.5811 41.9887 72.5019 42.7215 72.0254 43.1214ZM73.3714 35.4258C72.633 35.4258 72.0348 34.7928 72.0348 34.0115C72.0348 33.2302 72.6335 32.5972 73.3714 32.5972C74.1097 32.5972 74.7079 33.2307 74.7079 34.0115C74.7079 34.7923 74.1097 35.4258 73.3714 35.4258ZM75.6873 42.3816C75.2283 41.77 75.3245 40.8799 75.9029 40.3941C76.4813 39.9084 77.3221 40.0102 77.7811 40.6223C78.2401 41.2338 78.1439 42.124 77.5655 42.6097C76.9876 43.0955 76.1469 42.9936 75.6873 42.3816ZM68.8503 26.0653C69.4584 26.0653 69.9509 26.587 69.9509 27.23C69.9509 27.8735 69.4579 28.3947 68.8503 28.3947C68.2422 28.3947 67.7496 27.873 67.7496 27.23C67.7491 26.587 68.2422 26.0653 68.8503 26.0653ZM58.3923 21.5308C58.3923 22.3121 57.7936 22.9452 57.0558 22.9452C56.3174 22.9452 55.7192 22.3121 55.7192 21.5308C55.7192 20.7496 56.3179 20.1165 57.0558 20.1165C57.7941 20.116 58.3923 20.7496 58.3923 21.5308ZM52.5342 18.4107C53.1423 18.4107 53.6349 18.9324 53.6349 19.5754C53.6349 20.2189 53.1419 20.7401 52.5342 20.7401C51.9261 20.7401 51.4335 20.2184 51.4335 19.5754C51.4335 18.9319 51.9266 18.4107 52.5342 18.4107ZM49.4304 64.1109C47.6088 65.6415 44.9598 65.32 43.5133 63.3925C42.0668 61.465 42.3706 58.6618 44.1917 57.1312C46.0132 55.6006 48.6623 55.9221 50.1088 57.8496C51.5553 59.7766 51.2514 62.5798 49.4304 64.1109ZM40.3467 21.406C40.3467 20.5099 41.0331 19.7835 41.88 19.7835C42.7268 19.7835 43.4133 20.5099 43.4133 21.406C43.4133 22.3021 42.7268 23.0285 41.88 23.0285C41.0331 23.0285 40.3467 22.3021 40.3467 21.406ZM42.5287 28.6448C42.5287 27.3698 43.5057 26.3359 44.7107 26.3359C45.9156 26.3359 46.8926 27.3698 46.8926 28.6448C46.8926 29.9199 45.9156 30.9538 44.7107 30.9538C43.5057 30.9538 42.5287 29.9199 42.5287 28.6448ZM49.8413 47.6983C49.8413 48.9734 48.8642 50.0073 47.6593 50.0073C46.4544 50.0073 45.4773 48.9734 45.4773 47.6983C45.4773 46.4233 46.4544 45.3894 47.6593 45.3894C48.8642 45.3894 49.8413 46.4233 49.8413 47.6983ZM44.8074 42.6097C44.2294 43.0955 43.3883 42.9936 42.9292 42.3816C42.4702 41.77 42.5664 40.8799 43.1448 40.3941C43.7227 39.9084 44.5639 40.0102 45.023 40.6223C45.482 41.2343 45.3853 42.124 44.8074 42.6097ZM48.249 20.4076C49.0959 20.4076 49.7823 21.134 49.7823 22.0301C49.7823 22.9262 49.0959 23.6526 48.249 23.6526C47.4022 23.6526 46.7157 22.9262 46.7157 22.0301C46.7157 21.134 47.4022 20.4076 48.249 20.4076ZM38.2237 23.9022C39.0705 23.9022 39.757 24.6285 39.757 25.5247C39.757 26.4208 39.0705 27.1471 38.2237 27.1471C37.3768 27.1471 36.6904 26.4208 36.6904 25.5247C36.6904 24.6285 37.3768 23.9022 38.2237 23.9022ZM31.4192 30.0417C31.7971 30.5454 31.7178 31.2782 31.2418 31.6781C30.7657 32.078 30.0732 31.9941 29.6953 31.4904C29.3174 30.9867 29.3966 30.2538 29.8727 29.854C30.3487 29.4541 31.0413 29.5379 31.4192 30.0417ZM27.2029 62.133C28.1464 61.3397 29.5193 61.5064 30.2685 62.5049C31.0182 63.5034 30.8606 64.9561 29.917 65.7489C28.9735 66.5421 27.6006 66.3754 26.8514 65.377C26.1022 64.3785 26.2593 62.9257 27.2029 62.133ZM30.6228 55.7524C31.2861 55.1952 32.2504 55.312 32.777 56.014C33.3035 56.7159 33.1931 57.7363 32.5297 58.2934C31.8664 58.8506 30.9021 58.7337 30.3756 58.0318C29.8491 57.3304 29.9599 56.3095 30.6228 55.7524ZM32.9727 52.6621C32.3094 53.2193 31.3451 53.1025 30.8186 52.4005C30.2921 51.6986 30.4025 50.6782 31.0658 50.1211C31.7291 49.5639 32.6934 49.6808 33.22 50.3827C33.7465 51.0841 33.6356 52.1045 32.9727 52.6621ZM32.2448 41.4849C32.6227 41.9887 32.5434 42.7215 32.0674 43.1214C31.5914 43.5213 30.8988 43.4374 30.5209 42.9337C30.143 42.43 30.2223 41.6971 30.6983 41.2972C31.1743 40.8974 31.8669 40.9812 32.2448 41.4849ZM26.5862 36.0084C26.5862 36.6519 26.0932 37.1731 25.4856 37.1731C24.8774 37.1731 24.3849 36.6514 24.3849 36.0084C24.3849 35.3649 24.8779 34.8437 25.4856 34.8437C26.0937 34.8432 26.5862 35.3649 26.5862 36.0084ZM22.5469 52.6621C21.8835 53.2193 20.9192 53.1025 20.3927 52.4005C19.8662 51.6986 19.9766 50.6782 20.6399 50.1211C21.3032 49.5639 22.2676 49.6808 22.7941 50.3827C23.3206 51.0846 23.2102 52.1045 22.5469 52.6621ZM36.4196 46.4183C37.0829 45.8612 38.0472 45.978 38.5737 46.6799C39.1002 47.3818 38.9898 48.4022 38.3265 48.9594C37.6632 49.5165 36.6989 49.3997 36.1724 48.6978C35.6459 47.9959 35.7567 46.9754 36.4196 46.4183ZM36.7814 56.633C36.0318 55.6345 36.1893 54.1818 37.1329 53.389C38.0765 52.5957 39.4494 52.7625 40.1985 53.7609C40.9482 54.7594 40.7906 56.2121 39.8471 57.0049C38.9035 57.7982 37.5311 57.6314 36.7814 56.633ZM55.0554 71.6038C53.6089 69.6763 53.9127 66.8731 55.7343 65.3425C57.5558 63.8119 60.2049 64.1334 61.6514 66.0604C63.0979 67.9879 62.794 70.7911 60.9725 72.3217C59.1509 73.8528 56.5019 73.5313 55.0554 71.6038ZM60.5366 82.7515C59.7057 82.5788 59.1646 81.7256 59.3279 80.8465C59.4911 79.9674 60.2974 79.3947 61.1282 79.5675C61.959 79.7402 62.5001 80.5934 62.3369 81.4725C62.1732 82.3517 61.3674 82.9243 60.5366 82.7515ZM71.5918 76.1717C71.4493 76.938 70.7468 77.4373 70.0222 77.2865C69.2975 77.1357 68.8262 76.3924 68.9687 75.6256C69.1112 74.8588 69.8137 74.36 70.5383 74.5108C71.2625 74.6621 71.7343 75.4054 71.5918 76.1717ZM67.3547 72.2373C67.2373 72.8683 66.6589 73.2797 66.0621 73.1554C65.4653 73.0311 65.077 72.419 65.1945 71.7875C65.3119 71.156 65.8903 70.7451 66.4871 70.8694C67.0835 70.9938 67.4717 71.6063 67.3547 72.2373ZM74.356 69.4102C73.7941 69.9169 72.9505 69.845 72.4717 69.2505C71.9928 68.6559 72.0608 67.7628 72.6227 67.2565C73.1845 66.7498 74.0286 66.8217 74.5069 67.4163C74.9858 68.0109 74.9183 68.9035 74.356 69.4102ZM74.2965 62.9597C74.7593 62.5423 75.4543 62.6017 75.8482 63.0915C76.2421 63.5812 76.1865 64.3166 75.7237 64.7334C75.2608 65.1508 74.5659 65.0914 74.172 64.6017C73.778 64.1119 73.8337 63.3765 74.2965 62.9597ZM80.5722 58.7362C80.1093 59.1536 79.4144 59.0942 79.0205 58.6044C78.6265 58.1147 78.6822 57.3793 79.145 56.9625C79.6078 56.5451 80.3028 56.6045 80.6967 57.0943C81.0906 57.584 81.035 58.3194 80.5722 58.7362ZM75.5944 51.5154C76.1209 52.2173 76.0105 53.2377 75.3472 53.7949C74.6839 54.352 73.7195 54.2352 73.193 53.5333C72.6665 52.8314 72.7769 51.811 73.4402 51.2538C74.1031 50.6967 75.0674 50.8135 75.5944 51.5154Z" fill="#140E15"/>
</svg>
