<svg width="624" height="529" viewBox="0 0 624 529" fill="none" xmlns="http://www.w3.org/2000/svg">
<path fill-rule="evenodd" clip-rule="evenodd" d="M570.097 30.6303C567.853 38.836 565.205 46.8747 562.175 54.7236C582.582 86.9116 596.948 123.308 603.679 162.317C610.143 160.842 616.701 159.615 623.344 158.646C615.186 111.586 596.617 68.0944 570.097 30.6303ZM82.6498 25.8648C80.5933 17.7168 78.9336 9.41082 77.6925 0.96875C37.6898 45.1473 10.0074 100.69 0.0664062 162.177C6.65943 163.534 13.1584 165.148 19.5525 167.009C27.824 113.986 50.1701 65.6241 82.6498 25.8648ZM312.001 529C266.202 529 222.679 519.257 183.392 501.73C185.846 495.53 188.062 489.21 190.028 482.78C227.221 499.623 268.516 509 312.001 509C350.512 509 387.305 501.645 421.053 488.264C423.185 494.613 425.562 500.849 428.175 506.961C392.214 521.184 353.02 529 312.001 529Z" fill="#6CCDA9"/>
</svg>
