<svg width="436" height="375" viewBox="0 0 436 375" fill="none" xmlns="http://www.w3.org/2000/svg">
<path fill-rule="evenodd" clip-rule="evenodd" d="M395.2 20.7963C393.343 29.2428 390.867 37.4556 387.822 45.3841C401.65 67.308 411.385 92.0981 415.946 118.668C422.39 117.19 428.973 116.077 435.672 115.354C429.676 80.3499 415.506 48.1421 395.2 20.7963ZM62.8721 25.7263C40.862 52.8075 25.719 85.7481 20.1138 121.864C13.7457 120.001 7.2239 118.501 0.572021 117.387C7.84244 72.4326 28.5785 31.9971 58.4985 0.415039C59.3349 9.05582 60.8087 17.5089 62.8721 25.7263ZM218.291 374.802C186.378 374.802 156.058 367.998 128.684 355.758C131.352 349.664 133.678 343.384 135.637 336.944C160.84 348.416 188.824 354.802 218.291 354.802C244.388 354.802 269.321 349.793 292.19 340.679C294.317 347.045 296.805 353.245 299.629 359.253C274.466 369.286 247.025 374.802 218.291 374.802Z" fill="#6CCDA9"/>
</svg>
