<svg width="67" height="69" viewBox="0 0 67 69" fill="none" xmlns="http://www.w3.org/2000/svg">
<path d="M32.1982 3.95082C37.1451 3.95082 41.9409 5.17057 46.2602 7.46663L41.3085 7.58535C40.7662 7.5992 40.3397 8.05228 40.3505 8.59736C40.3642 9.13551 40.7996 9.56386 41.331 9.56386C41.3389 9.56386 41.3467 9.56386 41.3536 9.56386L49.9157 9.35809C50.2648 9.34919 50.5844 9.15332 50.7531 8.84269C50.9208 8.53305 50.9119 8.15516 50.7296 7.85343L46.271 0.474566C45.9886 0.00763668 45.3856 -0.139763 44.9237 0.145143C44.4609 0.42906 44.3148 1.03745 44.5972 1.50438L47.128 5.6929C42.5381 3.26328 37.4461 1.97131 32.1953 1.97131C14.4435 1.97131 0 16.5421 0 34.4526C0 41.0321 1.9405 47.3723 5.61265 52.7815C5.80287 53.0595 6.10979 53.2119 6.42258 53.2119C6.61281 53.2119 6.80597 53.1555 6.97561 53.0387C7.42274 52.7291 7.53648 52.1128 7.23055 51.6627C3.78295 46.5829 1.96109 40.6335 1.96109 34.4526C1.96403 17.6342 15.527 3.95082 32.1982 3.95082Z" fill="#F2F2F2"/>
<path d="M59.6057 15.9602C59.1524 16.2688 59.0383 16.8851 59.3458 17.3352C62.8332 22.4169 64.677 28.3681 64.677 34.5479C64.677 51.3659 50.9577 65.0489 34.0942 65.0489C29.0903 65.0489 24.2381 63.8302 19.87 61.5332L24.8788 61.4145C25.4263 61.4007 25.8598 60.9466 25.8469 60.4025C25.834 59.8545 25.3668 59.4331 24.8322 59.436L16.1713 59.6428C15.8172 59.6517 15.4939 59.8475 15.3243 60.1582C15.1547 60.4678 15.1636 60.8447 15.3481 61.1474L19.8571 68.5261C20.0435 68.8318 20.3709 68.9999 20.7051 68.9999C20.8807 68.9999 21.0592 68.9534 21.2209 68.8555C21.689 68.5716 21.8368 67.9632 21.5512 67.4973L18.9902 63.3069C23.6311 65.7374 28.7828 67.0294 34.0952 67.0294C52.0517 67.0294 66.6608 52.459 66.6608 34.5499C66.6608 27.9705 64.6979 21.6305 60.9834 16.2203C60.6759 15.7683 60.057 15.6525 59.6057 15.9602Z" fill="#F2F2F2"/>
<path d="M29.8218 14.6182L40.6396 22.5122C38.9828 23.9741 36.6633 27.8334 40.6396 31.5758C44.6158 35.3182 48.7285 33.1351 50.2879 31.5758L57.5972 42.3936L49.4108 47.9487L45.6099 43.2707L31.576 56.7199L15.2031 40.347L28.6523 26.8978L24.2667 22.5122L29.8218 14.6182Z" fill="#F2F2F2"/>
</svg>
