<svg width="188" height="188" viewBox="0 0 188 188" fill="none" xmlns="http://www.w3.org/2000/svg">
<path fill-rule="evenodd" clip-rule="evenodd" d="M176.476 93.7743C175.488 94.0035 174.456 94.2787 173.469 94.4621C172.841 94.6455 172.167 94.6914 171.09 94.8748C171.36 94.0953 171.405 93.545 171.719 93.2699C174.322 91.3439 176.969 89.4639 179.572 87.6296C180.694 86.7584 180.694 86.7125 181.278 84.7866C179.617 84.2363 178.585 86.3915 176.61 85.1535C179.886 80.9348 182.848 76.6243 185.227 71.4885C184.374 71.672 183.836 71.7178 183.432 71.9012C180.739 72.9101 178.63 74.5609 176.61 76.2575C175.847 76.9912 175.219 77.8166 173.514 77.679C173.693 76.7619 173.828 75.9824 174.052 74.9277C169.609 76.4868 166.872 79.7884 162.743 81.485C162.205 80.7055 161.846 80.2011 161.397 79.5591C158.929 81.0265 156.685 82.6314 154.845 84.6949C154.082 85.5203 153.454 86.5291 151.793 86.6208C151.524 86.0706 151.299 85.5203 150.985 84.9242C150.851 84.9242 150.581 84.7866 150.447 84.8783C149.774 85.291 149.1 85.6579 148.652 86.2081C146.542 88.8219 144.523 91.4356 142.503 94.0953C141.875 94.9206 141.516 95.9295 139.811 95.8378C139.766 94.7372 139.631 93.5909 139.452 92.2152C137.387 94.2328 136.131 96.388 134.874 98.5432C133.932 100.102 133.034 101.753 132.047 103.312C131.778 103.771 131.149 104.092 130.387 104.596C129.938 103.633 129.579 102.854 129.13 101.707C127.739 104.504 126.662 106.889 125.405 109.228C124.193 111.52 124.149 114.226 121.68 116.289C121.187 115.28 120.738 114.455 120.11 113.4C119.661 114.134 119.212 114.638 118.853 115.235C118.135 116.519 117.596 117.802 116.744 119.041C115.038 121.517 113.198 123.901 111.403 126.332C110.955 126.882 110.281 127.295 109.608 127.616C109.384 127.661 108.89 127.478 108.666 127.34C108.486 127.295 108.352 126.882 108.441 126.79C108.666 126.194 108.98 125.69 109.339 125.185C110.955 122.709 112.166 120.187 113.558 117.344C111.718 117.344 110.281 118.399 108.352 117.39C109.833 114.73 111.583 112.346 113.333 109.915C115.038 107.485 117.462 105.467 118.584 102.487C116.789 102.487 115.532 103.45 113.647 102.808C113.782 102.395 113.827 101.845 114.051 101.478C116.699 97.2134 119.302 93.0406 121.905 88.8219C122.353 88.0423 122.937 87.2169 122.623 86.2998C121.501 84.97 119.795 85.933 118.404 85.0159C118.449 84.6032 118.404 84.0529 118.674 83.6861C119.526 82.2646 120.514 80.9348 121.366 79.5132C123.341 76.0282 125.271 72.6349 127.155 69.1958C127.245 68.9665 127.2 68.5997 127.245 68.2328C125.764 68.187 124.463 68.9665 122.937 68.2787C122.533 66.3527 124.373 65.4815 125.001 64.06C125.585 62.6385 126.348 61.2628 127.066 59.8413C127.739 58.4198 128.995 57.1817 128.906 55.2099C127.739 55.3475 126.707 55.485 125.764 55.6226C125.001 54.4762 125.405 53.6049 125.809 52.8254C127.38 48.7443 128.906 44.709 130.476 40.6737C130.611 40.3527 130.611 39.94 130.701 39.3898C128.861 39.5732 127.829 41.0864 125.764 40.6737C125.809 40.261 125.719 39.7108 125.989 39.5732C128.277 38.381 130.566 37.097 132.81 35.9506C133.977 36.6843 133.707 37.3721 133.483 38.06C132.002 41.7743 130.521 45.4885 129.13 49.2945C128.726 50.3492 128.412 51.4039 128.053 52.6878C129.085 52.5961 129.893 52.5044 130.97 52.4127C131.419 55.2099 130.207 57.3651 129.085 59.5203C127.918 61.5838 126.931 63.6931 125.674 66.0318C127.11 66.0776 128.098 66.1235 129.085 66.1235C130.028 67.4074 129.489 68.3245 128.995 69.1958C127.47 71.8554 125.989 74.4691 124.552 77.037C123.386 79.0088 122.129 80.9348 120.828 83.0441C121.725 83.4109 122.264 83.6861 122.937 83.8236C123.475 84.0071 124.014 84.0529 124.508 84.0988C125.719 85.933 124.687 87.0794 123.924 88.3633C121.725 92.0776 119.436 95.7919 117.237 99.5062C117.103 99.7355 117.013 100.011 116.744 100.607C118 100.469 119.167 100.332 120.065 100.332C120.962 100.928 120.828 101.57 120.514 102.12C119.885 103.266 119.257 104.459 118.449 105.559C116.475 108.31 114.365 111.108 112.391 113.859C112.166 114.18 111.942 114.684 111.718 115.189C113.557 115.739 115.128 113.813 116.744 115.556C119.167 113.905 118.404 110.557 120.558 108.723C122.174 109.457 121.501 110.787 122.533 111.704C123.027 110.97 123.565 110.236 123.924 109.503C125.54 106.155 127.11 102.808 128.726 99.4603C129.04 98.7725 129.175 98.0388 130.521 98.1305C130.88 98.7725 131.374 99.4603 131.778 100.286C131.957 100.194 132.227 100.194 132.316 100.056C133.663 98.0847 134.964 96.1129 136.221 94.0494C137.387 92.2152 139.003 90.7478 140.619 89.1887C141.965 89.6014 141.382 90.7937 142.055 91.3898C142.234 91.2981 142.503 91.2981 142.638 91.1605C143.446 90.2434 144.209 89.2804 145.017 88.3175C147.44 85.4286 149.998 82.6314 153.633 80.7972C153.992 81.0723 154.261 81.2557 154.531 81.485C154.71 81.5767 154.755 81.7601 154.934 81.9894C155.114 81.9436 155.473 81.9894 155.563 81.8977C158.121 80.0635 160.544 78.1376 163.057 76.2575C163.551 75.8907 164.134 75.6155 164.897 75.2487C165.211 76.2116 165.436 76.8536 165.66 77.5415C165.929 77.5415 166.244 77.5873 166.378 77.5415C168.353 76.3492 170.372 75.2028 172.392 74.1023C173.514 73.4145 174.725 72.9101 175.937 72.2222C176.655 72.5891 177.239 72.9101 177.867 73.1852C181.053 71.993 183.432 69.5626 187.336 68.7831C187.291 69.4709 187.56 69.9753 187.426 70.388C186.977 72.1305 186.438 73.873 185.317 75.478C184.06 77.2205 183.028 79.1464 181.816 81.1182C182.534 81.5767 183.521 81.8977 183.746 82.3563C184.015 83.1817 183.836 84.0529 183.701 84.8325C183.387 86.3457 182.31 87.3087 181.098 88.2716C179.662 89.3263 178.316 90.3351 176.7 91.5273C178.001 91.8942 179.034 92.0776 180.201 92.3069C180.201 94.0494 179.034 94.9207 177.912 95.7002C175.084 97.8554 172.526 100.332 169.295 101.982C168.936 102.166 168.667 102.533 168.308 102.899C168.757 103.266 169.295 103.587 169.52 103.954C169.744 104.321 169.924 105.055 169.654 105.376C169.206 106.109 168.577 106.705 167.814 107.072C165.84 108.173 163.82 109.09 161.801 110.007C160.903 110.42 159.961 110.649 158.839 110.97C159.198 111.75 159.557 112.392 159.961 113.171C156.685 116.289 151.614 117.161 147.979 119.683C148.068 119.912 148.068 120.095 148.158 120.095C150.402 121.792 150.492 122.48 148.293 123.443C145.69 124.635 142.952 125.644 140.26 126.836C139.227 127.249 138.24 127.661 137.253 128.074C136.804 128.624 137.432 128.899 137.702 129.175C138.599 130.642 138.509 131.33 137.073 132.018C136.625 132.339 136.086 132.522 135.592 132.751C135.188 132.889 134.785 133.026 134.56 133.531C135.772 133.347 136.984 133.164 138.24 133.164C139.048 133.072 139.945 132.797 140.619 133.577C141.292 134.356 140.708 134.907 140.349 135.549C140.17 135.87 139.856 136.191 139.497 136.832C141.247 136.924 142.414 136.466 143.715 136.099C146.049 135.457 148.517 135.273 150.985 135.503C152.78 135.64 154.486 136.099 156.371 137.062C155.967 137.52 155.742 137.933 155.338 138.254C154.71 138.575 153.992 138.85 152.87 139.355C157.627 140.684 162.25 140.501 166.648 142.564C166.378 143.115 166.199 143.527 165.974 143.894C166.109 144.123 166.199 144.353 166.378 144.399C169.295 145.362 172.302 146.279 175.309 147.242C176.117 147.517 176.924 147.838 177.014 148.801C176.117 150.085 174.097 150.085 172.751 150.91C172.751 151.781 173.514 151.781 174.007 151.965C175.803 152.607 177.598 153.203 179.393 153.891C180.066 154.166 180.694 154.579 181.502 155.083C179.258 157.055 176.296 156.825 173.738 157.33C170.956 157.972 168.128 156.413 165.346 156.367C164.897 157.146 164.628 157.972 164 158.385C163.147 158.981 162.025 158.751 160.903 158.43C158.435 157.88 155.967 157.422 153.723 156.229C153.05 155.908 152.152 155.725 151.12 155.45C151.21 156.092 151.255 156.596 151.299 157.238C150.581 158.109 149.549 158.018 148.517 157.651C146.812 157.101 145.106 156.413 143.446 155.725C141.92 155.083 140.439 154.212 138.644 153.386C138.509 153.937 138.464 154.212 138.33 154.579C138.195 154.854 138.15 155.175 138.016 155.45C136.4 155.908 134.919 155.404 133.483 154.716C131.867 153.982 130.252 153.065 128.636 152.332C128.008 152.056 127.335 151.827 126.662 151.552C126.392 152.332 126.437 153.249 125.944 153.57C125.315 154.028 124.238 154.258 123.341 154.166C120.917 153.937 118.718 153.065 116.609 151.827C115.622 151.231 114.59 150.589 112.884 149.672C113.468 150.635 113.557 150.91 113.782 151.277C115.846 153.57 117.911 155.954 120.065 158.155C121.052 159.256 119.975 160.127 119.975 161.182C120.917 162.374 121.86 163.658 122.847 164.896C123.296 165.446 123.79 165.951 124.149 166.455C124.552 167.143 125.001 167.739 124.418 168.289C124.059 168.61 123.386 168.61 122.757 168.84C123.924 171.82 125.989 174.617 127.873 177.552C126.258 179.249 126.707 181.312 127.245 183.376C127.425 184.155 127.604 184.843 127.829 185.577C128.098 186.494 127.873 187.182 126.931 187.869C124.552 187.044 122.578 185.623 121.546 183.422C121.052 182.459 120.558 181.404 120.02 180.441C119.751 179.982 119.392 179.57 118.808 178.79C118.539 179.57 118.404 180.028 118.27 180.533C118 181.266 117.955 182.092 117.686 182.871C117.462 183.513 116.385 183.513 115.981 182.871C115.083 181.22 114.276 179.524 113.468 177.827C112.974 176.681 112.615 175.397 112.211 174.021C110.596 174.755 111.673 176.956 109.474 177.002C107.679 173.058 106.691 168.885 104.851 164.575C104.313 165.492 103.864 166.226 103.505 166.914C102.338 166.822 102.248 166.042 101.934 165.538C101.396 164.071 101.396 162.603 100.184 161.365C100.094 161.182 100.049 160.952 100.049 160.769C100.094 160.952 100.184 161.136 100.274 161.319C99.1967 164.071 98.6582 166.914 98.6582 169.848C98.6582 173.104 98.5684 176.314 98.3889 179.57C98.3889 180.166 98.0748 180.716 97.8055 181.541C96.1899 181.587 94.4397 181.587 92.7344 181.679C91.1637 181.771 89.5929 182.504 87.753 181.541C87.5735 179.478 88.7852 177.69 89.1891 175.718C89.5929 173.608 89.9968 171.453 90.4905 169.39C90.9393 167.326 91.4778 165.355 91.8368 163.337C92.1958 161.182 92.2856 158.935 92.6895 156.825C93.0934 154.762 92.8241 152.698 93.1383 150.864C92.7344 150.589 92.5997 150.497 92.51 150.497C92.4202 150.543 92.2856 150.589 92.2856 150.681C91.6124 152.011 90.9393 153.295 90.311 154.533C89.8622 155.404 89.5032 156.229 88.9647 156.963C87.9325 158.155 87.0349 158.064 85.7784 156.963C85.4193 156.596 85.1501 156.229 84.7911 155.908C83.4447 156.229 83.2652 157.33 82.5921 158.064C81.5599 159.256 80.9765 160.677 79.4955 161.686C78.6877 161.365 77.9697 161.044 77.0721 160.631C74.7834 163.016 72.4498 165.309 70.2059 167.556C69.7122 167.601 69.3083 167.739 69.0391 167.693C67.5581 167.143 66.5259 167.556 65.6284 168.473C64.6411 169.482 63.564 170.536 62.487 171.499C61.9484 171.958 61.5894 172.462 61.006 172.783C60.647 172.921 60.0636 172.967 59.7046 172.783C59.3456 172.6 59.166 172.095 58.807 171.683C57.7748 171.545 57.1466 172.416 56.3836 172.875C55.3515 173.379 54.4539 173.929 53.3769 174.296C52.6588 174.571 51.5818 173.608 51.9408 172.921C52.1203 172.279 52.4793 171.637 52.9281 171.132C53.8256 170.078 54.7681 169.069 55.7105 168.06C54.409 167.143 52.6588 167.739 51.5818 166.317C51.9857 165.034 53.1973 164.025 54.1847 163.062C55.172 161.961 56.2939 161.044 57.4607 159.944C56.0695 158.889 54.3193 160.356 52.9281 158.889C54.7232 156.367 57.5953 154.945 60.2431 153.34C59.6597 152.653 59.166 152.194 58.4929 151.552C60.1085 150.452 61.6343 149.259 63.2948 148.113C62.9358 147.425 62.487 146.737 61.9036 145.958C60.9163 146.049 59.929 146.187 58.9417 146.279C56.8324 146.462 54.7232 146.737 52.6588 146.783C51.3574 146.829 49.9662 146.554 49.3828 145.178C48.9789 144.353 48.1262 144.169 47.2735 144.123C45.8374 144.123 44.4911 144.123 43.0102 144.123C40.1829 144.123 37.3107 144.032 34.5732 143.161C33.8552 142.931 33.3615 142.61 32.4191 142.152C33.182 141.372 33.7205 140.822 34.3039 140.226C34.1244 140.042 33.8552 139.813 33.5859 139.767C31.3869 139.538 29.0533 139.492 26.8543 139.125C25.2387 138.896 23.5782 138.392 21.9626 137.887C20.6612 137.474 19.5393 136.832 19.988 135.273C16.4427 134.402 12.8525 134.265 9.66623 132.201C9.80086 131.605 9.93549 131.101 10.115 130.413C9.71111 130.229 9.30721 129.954 8.85843 129.908C6.21066 129.725 3.74241 128.762 1.31902 127.57C0.87025 127.249 0.421475 126.836 0.0175781 126.515C1.58829 125.277 1.58829 125.277 12.0896 123.901C11.0574 123.122 10.0701 122.434 9.30721 121.838C9.21745 120.967 9.71111 120.829 10.3394 120.829C13.1218 120.921 15.7696 121.058 18.5071 121.196C19.8983 121.242 21.3792 121.608 22.7256 121.058C22.6807 120.508 22.5909 120.095 22.5461 119.362C27.0787 119.041 31.5664 120.095 36.3234 121.425C35.9195 120.508 35.6503 119.774 35.381 119.27C36.1439 118.399 36.9966 118.765 37.7595 119.041C40.3624 120.004 42.9653 120.921 45.5233 121.929C47.9018 123.03 50.2803 124.131 52.7935 125.277C53.2871 124.635 52.4344 124.222 52.2549 123.672C52.0754 123.259 51.9408 122.709 51.7613 122.25C52.9281 121.929 53.7808 122.526 54.5886 122.984C55.6656 123.489 56.7427 123.947 57.73 124.452L57.9095 124.727L57.7748 124.497C57.7748 122.801 59.2109 121.929 60.7816 121.012C59.9738 120.508 59.4353 120.049 58.8519 119.683C56.5183 118.169 54.2295 116.748 51.9857 115.189C50.8637 114.501 49.9213 113.63 49.0686 112.713C47.7672 111.291 48.0813 110.374 49.8315 109.549C50.1457 109.365 50.4149 109.182 50.8188 108.998C50.3252 108.448 49.8764 107.944 49.4725 107.485C47.0491 104.917 44.6258 102.487 42.2921 99.9189C41.7087 99.3228 41.2151 98.6808 40.8561 98.0388C39.8687 96.7549 40.0483 96.1587 41.4395 95.5626C41.9331 95.3334 42.4716 95.1958 43.1897 94.9207C42.7409 94.1411 42.4716 93.4991 42.0677 92.8572C39.779 89.6014 37.5351 86.3457 35.3361 83.0441C34.663 82.1729 33.7654 81.2557 34.3039 79.8801C35.4259 79.6967 36.6376 79.5132 37.9839 79.2381C37.6698 78.5044 37.5351 77.9083 37.2659 77.358C35.6503 74.5609 33.8552 71.7637 32.1947 68.9665C31.4767 67.866 30.7586 66.6737 30.2201 65.4815C29.7713 64.4727 29.5918 63.418 30.5342 62.4092C31.7908 62.3633 33.2269 62.2716 34.5732 62.1799C33.182 57.7319 31.7908 53.284 30.4445 48.8818C30.3547 48.6984 30.624 48.515 30.7586 48.3316C32.3742 47.6896 33.9 49.157 35.74 48.9277C35.8298 48.3316 35.9644 47.7813 35.9195 47.231C35.7849 45.5344 35.6503 43.8377 35.381 42.187C34.9322 38.5185 35.0669 34.9877 35.3361 31.5027C35.3361 31.3192 35.6054 31.1817 35.9644 30.769C36.3683 31.09 36.9068 31.2734 37.1761 31.6861C38.2532 33.2452 39.42 34.8501 40.2726 36.5009C41.2151 38.2892 43.1897 39.3439 43.9526 41.4991C45.2092 40.2152 45.0745 39.0229 45.6131 38.0141C45.7926 37.6014 46.2413 37.097 46.6452 37.0512C47.453 36.8677 47.8569 37.6014 48.0813 38.2434C48.4403 39.3898 48.7096 40.4903 48.9789 41.6367C49.5174 44.4797 50.1457 47.231 50.7291 50.3492C51.3125 50.3492 51.7164 50.3951 52.0754 50.3034C53.1973 49.9824 54.05 50.3492 54.4539 51.2205C55.2617 52.8254 55.9349 54.3845 56.4734 56.0353C57.1466 58.1446 57.5505 60.254 58.1339 62.3175C58.1787 62.6385 58.4031 62.9136 58.5826 63.2804C59.2109 62.776 59.7943 62.3633 60.4675 61.8589C61.8587 62.4092 62.0382 63.4639 62.3075 64.5185C62.8011 67.6367 63.2499 70.8007 63.7435 73.9189C63.8782 74.6526 63.9679 75.3404 64.1026 76.1658C65.0899 76.0741 65.8079 76.0741 66.6157 76.0282C68.1415 77.4039 68.9493 78.9171 69.084 80.7055C69.2186 83.0441 69.3532 85.3369 69.5327 87.6296C69.5776 88.2258 69.5776 88.776 69.6225 89.8307C70.7444 88.9136 71.5971 88.3175 72.4049 87.6296C74.3795 89.0053 74.7385 90.7937 75.0527 92.582C75.5014 94.8748 75.7707 97.2134 75.9951 99.5062C76.1746 100.607 76.3541 101.616 76.5785 102.808C79.6302 103.312 80.6175 105.284 80.8867 107.623C80.9765 108.356 81.0214 109.136 81.2009 109.87C81.6945 112.575 81.7394 112.575 84.4769 114.959C84.6564 114.455 84.9257 113.996 84.8808 113.63C84.5218 110.42 84.1628 107.302 83.7589 104.183C83.6243 103.404 83.5345 102.67 83.5345 101.982C83.5345 101.57 83.8038 101.203 84.0281 100.882C84.073 100.744 84.2076 100.698 84.2525 100.698C84.7462 100.698 85.1501 100.79 85.8232 100.882C86.2271 98.4974 85.4642 95.9753 85.6886 93.4991C85.8681 91.0229 86.0925 88.5009 86.272 86.0247C86.4515 83.5485 86.1823 81.0265 86.9003 78.5044C87.6183 78.4586 88.2915 78.3669 89.0095 78.3669C89.952 76.1199 89.7725 73.6437 89.952 71.351C90.4007 67.6367 90.5802 63.8766 90.8944 60.1623C90.9393 59.5661 91.2085 58.97 91.4329 58.3739C93.228 58.9242 93.1383 60.575 94.4397 61.4462C94.7987 59.1993 94.9782 56.9982 95.427 54.8889C95.8758 52.6878 96.549 50.4868 97.3119 48.3316C97.9402 46.2222 98.2543 43.8836 99.4211 41.9118C100.094 42.0035 100.678 42.1411 101.485 42.2328C103.281 37.3721 104.313 32.0071 107.499 27.4215C108.352 28.2469 108.935 28.7972 109.743 29.5767C110.371 28.0635 110.865 26.7337 111.359 25.3122C111.807 24.0282 112.256 22.6526 112.66 21.2769C112.884 20.6808 113.019 20.0847 113.288 19.5344C114.231 17.8836 115.263 16.187 116.205 14.7196C117.955 14.7196 117.552 16.2787 118.763 16.6914C120.065 15.1781 121.321 13.6649 121.95 11.8307C122.578 9.95062 123.61 8.34568 124.822 6.69489C126.078 4.95238 127.245 3.02646 128.457 1.28395C128.771 0.825397 129.309 0.458554 129.803 0C130.117 0.504409 130.476 0.733686 130.521 0.962963C130.611 2.01764 130.746 3.07231 130.566 4.12698C130.117 9.07937 129.489 14.2152 128.95 19.2134C128.906 19.5344 128.95 19.8095 128.95 20.1764C129.624 20.0388 130.252 19.8554 130.79 19.7178C131.778 20.4515 131.912 21.3686 131.688 22.194C130.746 26.7795 130.252 31.6402 128.277 35.9506C127.873 36.776 127.829 37.7848 126.348 38.1517C126.348 37.5556 126.168 37.097 126.303 36.6843C126.662 35.6755 127.11 34.7584 127.47 33.7954C128.636 30.769 129.175 27.6967 129.309 24.3951C128.098 24.4868 128.143 26.3668 126.258 25.6332C126.707 22.3316 127.2 18.9383 127.559 15.545C127.963 12.2892 128.816 9.07937 128.277 5.31923C125.989 7.38272 124.642 9.58378 123.745 11.9683C123.52 12.6102 123.52 13.2522 123.116 13.6649C121.546 15.7743 120.289 18.067 119.481 20.4974C119.257 21.0935 118.539 21.5062 118 22.1482C116.43 20.9101 117.237 19.351 116.295 18.1129C114.59 19.03 114.231 20.5432 113.827 21.9647C112.839 25.2663 111.852 28.5221 110.865 31.7319C110.64 32.4198 110.326 33.0159 109.878 33.933C109.339 33.4286 108.845 33.1076 108.531 32.7407C108.217 32.1905 108.038 31.6402 107.544 30.7231C106.018 33.3827 104.717 35.6296 104.223 38.381C103.864 40.582 103.46 42.8289 102.922 45.0758C102.742 45.9471 102.832 47.1393 101.441 47.873C100.992 46.9101 100.543 46.1305 100.094 45.3051C99.7353 45.4427 99.3762 45.4885 99.3762 45.5344C98.2992 49.3862 97.3119 53.1005 96.4143 56.9065C96.1002 58.1905 96.1899 59.6579 96.1899 60.9877C96.1002 62.8219 96.1899 64.7478 96.1002 66.582C96.1002 67.0406 95.6514 67.4533 95.2475 68.0035C93.8114 66.3527 94.1256 64.4268 92.4202 63.0053C92.1958 63.6473 91.9715 64.1058 91.9266 64.5644C91.6124 69.3792 91.2534 74.1482 90.8944 78.9171C90.7598 80.3845 90.7598 81.7601 91.6573 83.2734C91.8368 83.5944 91.7471 84.2822 91.4778 84.649C91.1188 85.0617 89.6378 84.5115 89.3237 83.8695C89.0993 83.5026 89.1442 83.0441 89.0095 82.6314C88.7852 82.2187 88.4261 81.806 87.8427 80.7513C87.753 81.9436 87.753 82.448 87.6632 82.9983C87.4837 85.6579 87.2144 88.3175 87.0798 91.0688C86.9003 94.3704 86.9452 97.7178 87.5735 101.065C87.6632 101.707 87.8876 102.395 87.8427 102.945C87.8427 103.541 87.753 104.321 87.3042 104.596C86.3618 105.284 86.0476 103.908 85.3296 103.679C85.1501 103.908 84.9257 104.092 84.9706 104.229C85.5989 106.981 85.913 109.64 86.0028 112.437C86.0925 114.409 86.7208 116.381 86.9901 118.444C87.1696 119.132 87.3042 119.866 86.0028 120.141C85.3296 119.453 84.5667 118.582 83.6691 117.573C83.3999 120.049 85.0154 122.25 85.1501 125.002C83.0857 122.847 81.9189 119.683 80.8419 115.189C80.1238 112.071 79.9892 108.952 78.4185 105.376C77.6107 106.109 77.1619 106.614 76.5785 107.164C75.9951 106.43 75.7258 106.247 75.6361 105.926C75.1873 103.083 74.7834 100.286 74.3795 97.3968C74.0654 95.8378 73.841 94.2787 73.482 92.6737C73.3922 91.9401 72.8985 91.3439 72.5844 90.5644C70.0264 91.4356 71.2381 94.5997 68.5903 95.2416C67.8274 94.3245 68.1415 93.3157 68.0967 92.4445C68.0967 89.097 68.0967 85.7496 67.8723 82.3563C67.8274 80.9347 67.6479 79.4674 66.0772 78.1376C65.404 78.8713 64.7757 79.5132 63.9231 80.4304C63.4743 79.7425 63.0255 79.3298 62.9806 78.8713C62.7562 77.679 62.6665 76.3492 62.3972 75.1111C61.9036 72.0388 61.4548 69.0582 60.8714 66.0318C60.8265 65.8483 60.5572 65.7108 60.2431 65.4815C59.4353 65.9859 59.5251 67.4533 57.7748 67.2699C57.5056 66.8113 57.2363 66.3069 57.1017 65.7108C56.3388 62.5467 55.7105 59.4286 54.8129 56.3104C54.4539 55.0265 54.0949 53.6049 52.8832 52.5044C51.9857 53.0547 51.2676 53.5132 50.2803 54.2011C48.7096 49.478 48.4403 44.9841 47.0491 40.582C46.017 40.5362 46.1067 41.2698 46.0618 41.6367C46.017 42.5997 46.0618 43.746 45.9721 44.7549C45.9272 45.1676 45.3438 45.4427 44.895 45.9471C42.5165 42.3245 40.5868 38.8395 37.4454 35.5379C37.1312 36.5926 36.7273 37.1887 36.7273 37.8307C37.0415 41.2698 37.4902 44.7549 37.8044 48.2399C37.8493 48.5608 37.9839 48.8818 38.0288 49.157C38.3429 50.5326 37.6249 51.1287 36.099 50.8078C35.4259 50.6702 34.7527 50.4409 34.0347 50.2575C33.7654 50.2116 33.4513 50.3492 32.7781 50.3951C33.2269 52.0917 33.4962 53.7425 34.0796 55.3475C35.0669 58.1446 36.3234 60.7584 37.4005 63.5556C37.5351 63.739 37.6698 63.9683 37.6698 64.1517C37.6698 64.4727 37.6698 64.8395 37.4454 64.9771C37.2659 65.1605 36.8171 65.2981 36.5478 65.1605C35.9644 64.9312 35.5156 64.5644 34.9322 64.3351C33.9898 63.8307 33.1371 63.8307 32.2396 64.2892C31.8806 65.5732 32.8679 66.582 33.4064 67.545C35.4708 71.0758 37.4454 74.515 39.4649 78.0459C39.7341 78.5503 40.0483 79.0547 40.1829 79.5591C40.4522 80.2469 40.138 80.7972 39.3751 80.9348C38.6122 81.2099 37.8044 81.3016 36.8171 81.485C39.3751 86.6667 42.6511 91.2522 46.376 95.4709C46.376 96.4797 45.8374 96.9383 44.8501 96.9383C44.177 96.9383 43.5936 97.1217 42.696 97.2134C44.5809 100.286 46.9145 102.624 49.3828 104.917C50.5496 106.064 51.851 107.118 52.9281 108.31C54.3642 109.778 54.2744 110.42 52.3447 110.97C51.851 111.153 51.3125 111.291 50.5496 111.566C52.7934 113.996 55.3515 115.647 58.0441 117.252C59.6597 118.215 61.3202 119.178 62.846 120.233C63.3397 120.6 63.564 121.333 63.9231 121.975C62.6665 122.571 61.5894 123.03 60.5572 123.489C60.1085 124.452 60.7816 124.956 61.4099 125.506C63.6538 127.386 66.4362 128.533 69.1288 129.954C70.161 130.596 71.283 131.055 72.2703 131.697C72.6741 131.926 72.9434 132.614 72.8985 133.026C72.719 133.76 71.9561 133.989 71.2381 133.806C70.4752 133.577 69.7122 133.164 68.9942 132.751C66.0323 131.101 63.0255 129.312 60.0187 127.57C58.8519 126.882 57.73 126.377 56.2041 125.598C56.249 126.515 56.2939 127.203 56.3836 128.074C55.4412 127.799 54.5885 127.707 53.9603 127.432C51.5818 126.377 49.1584 125.139 46.7799 123.993C44.9848 123.076 43.055 122.526 40.9907 121.884C40.9458 122.663 40.9458 123.076 40.9458 123.764C40.3175 123.81 39.5995 123.947 39.0161 123.81C37.4902 123.489 35.9644 122.892 34.4835 122.48C32.0601 121.838 29.6816 121.287 26.8543 120.554C26.944 121.379 26.944 121.792 27.0338 122.48C24.8797 123.168 22.5461 122.663 20.2573 122.617C17.8788 122.526 15.5452 122.296 12.5833 122.159C14.154 123.351 15.3208 124.268 16.712 125.277C14.2886 126.148 11.955 125.46 9.80086 125.598C7.7365 125.873 5.58238 125.827 3.51802 126.836C5.58238 128.67 7.91601 128.303 9.98037 128.899C12.0447 129.404 14.2886 128.854 16.5325 129.862C15.9042 131.376 14.0642 131.009 13.2115 131.926C13.2115 132.66 14.0193 132.705 14.4681 132.843C17.5647 133.944 20.7958 134.081 23.9821 134.356C24.745 134.356 25.5528 134.631 26.2709 134.815C26.226 136.374 24.386 135.915 23.668 136.924C28.6494 139.079 33.7654 138.208 38.6122 139.125C38.8814 140.914 36.9966 140.914 36.3683 142.06C38.2083 142.748 39.9136 142.84 41.6638 142.84C44.2667 142.84 46.8247 142.885 49.4725 142.931C49.9213 142.931 50.4149 142.931 50.8188 142.977C52.5242 143.161 52.7037 143.344 52.8832 145.407C54.4539 145.591 55.8451 145.407 57.371 145.132C59.3007 144.72 61.2304 144.353 63.1601 144.078C64.7757 143.757 65.0899 144.032 65.763 145.866L65.5386 145.912L65.7182 145.774C66.8401 146.233 67.6928 145.545 68.6352 145.27C71.0137 144.536 73.3024 143.711 75.6809 142.84C76.3541 142.702 76.9824 142.427 77.6556 142.427C78.0594 142.427 78.598 142.794 78.7775 143.115C78.8672 143.39 78.6877 144.032 78.3736 144.078C77.4312 144.536 76.3092 144.903 75.2322 145.178C73.3024 145.82 71.3278 146.37 69.3981 147.012C67.2889 147.746 65.3591 148.755 63.7884 150.452C64.327 150.864 64.7309 151.277 65.3591 151.69C64.686 153.249 63.1153 153.845 61.6792 154.579C59.9738 155.45 58.3583 156.275 57.1017 157.972C58.448 158.201 59.5699 158.43 60.5572 158.614C61.1407 159.714 60.4675 160.127 59.8841 160.586C58.4929 161.824 56.9222 163.062 55.531 164.346C55.0822 164.713 54.8578 165.263 54.409 166.042C56.1144 166.226 57.4607 166.363 58.807 166.455C59.5251 167.831 58.089 168.381 57.8646 169.344H57.7748L57.8646 169.252C59.1212 168.702 60.4226 168.473 61.8138 169.115C63.3397 167.922 64.686 166.868 66.0772 165.813C67.0645 164.988 67.9172 164.116 69.6674 164.437C70.2508 164.529 71.1483 163.979 71.642 163.52C72.7639 162.374 73.7063 161.182 74.7834 159.989C74.918 159.852 75.0078 159.668 75.0975 159.485C76.7131 157.651 77.0721 157.467 80.0341 157.651C81.2458 156.871 81.9638 155.725 82.5023 154.533C82.8165 153.937 83.0408 153.432 83.3999 152.882C84.073 152.011 85.4193 152.194 85.9579 153.249C86.3169 153.891 86.631 154.579 87.0349 155.587C88.83 154.074 89.2788 152.148 90.0417 150.452C90.8495 148.801 91.6124 147.15 92.5549 145.224C93.228 145.774 93.9909 146.141 94.1256 146.6C94.5295 147.884 94.9782 149.213 94.9334 150.543C94.8885 153.432 94.8885 156.367 94.2602 159.256C93.587 162.191 93.4973 165.217 92.8241 168.152C92.1061 171.774 91.1637 175.351 90.3559 178.974C90.311 179.157 90.3559 179.386 90.4456 179.753C92.3753 180.212 93.9909 179.249 96.0553 179.524C96.2348 178.653 96.5041 178.056 96.549 177.369C96.7733 173.288 96.9529 169.298 97.3119 165.217C97.5811 162.42 97.985 159.714 98.5684 156.963C99.0172 154.349 99.1518 151.781 99.0172 149.168C99.0172 148.113 99.0172 147.058 99.0172 146.004C99.0172 145.683 99.4211 145.362 99.5557 145.041C101.126 145.453 100.319 146.829 101.261 147.425C103.46 147.15 102.114 145.499 102.473 144.307C103.505 144.444 104.403 144.49 105.255 144.582C106.961 144.949 108.666 145.041 110.102 145.637C111.448 146.279 112.525 147.471 113.827 148.388C115.263 149.397 116.789 150.314 118.404 151.231C120.065 152.148 121.815 152.607 123.745 152.561C123.969 150.864 122.309 149.855 122.039 148.434C122.488 147.608 123.206 147.746 124.059 148.159C125.091 148.755 126.123 149.397 127.155 149.993C129.354 151.277 131.643 152.377 134.47 153.34C133.663 152.332 133.214 151.69 132.81 151.139C133.214 150.039 134.066 150.176 134.919 150.452C137.118 151.323 139.317 152.332 141.516 153.249C143.581 154.12 145.331 155.587 148.068 155.954C147.036 154.854 146.228 154.074 145.241 153.065C145.914 152.882 146.318 152.561 146.677 152.653C149.145 153.065 151.524 153.386 153.857 154.67C156.056 155.908 158.57 156.734 161.531 156.963C161.262 156.459 161.083 156.183 160.948 155.954C160.813 155.679 160.589 155.45 160.23 154.899C160.903 154.808 161.352 154.533 161.891 154.624C164.269 154.899 166.648 155.129 168.936 155.679C171.674 156.275 174.097 156.046 176.565 155.358C176.745 155.266 176.835 155.083 177.104 154.67C174.725 153.249 171.494 153.478 169.295 151.277C170.283 149.626 172.751 149.764 173.963 148.434C172.616 147.012 170.866 146.646 169.116 146.37C167.231 146.004 165.301 145.82 163.371 145.407C162.07 145.178 160.544 144.995 159.602 143.573C160.051 143.161 160.454 142.748 160.858 142.381C158.929 141.235 156.819 141.556 154.89 141.143C153.005 140.73 150.896 141.418 148.876 139.767C149.28 139.355 149.549 138.896 149.863 138.667C150.851 138.254 151.883 137.795 153.184 137.291C151.389 136.374 149.908 136.007 148.382 136.282C146.049 136.649 143.895 136.97 141.785 137.841C140.619 138.346 139.362 138.575 138.15 138.713C137.522 138.804 136.849 138.3 136.086 138.025C136.849 136.832 137.432 135.732 138.285 134.448C131.733 134.448 126.482 136.97 120.514 138.437C120.693 136.649 121.68 135.961 123.161 135.503C126.482 134.494 129.803 133.256 133.079 132.155C134.022 131.834 134.874 131.33 135.862 130.871C134.829 130.092 134.022 129.404 132.9 128.67C133.932 128.12 134.605 127.661 135.368 127.295C138.868 125.873 142.369 124.452 145.869 122.938C146.273 122.755 146.453 122.342 146.767 122.067L146.946 122.021L146.812 122.159C145.824 121.425 144.164 121.563 143.581 120.049C148.113 118.078 152.421 116.014 156.64 113.63C156.326 112.483 154.935 112.713 154.261 111.795C154.575 111.52 154.845 111.108 155.249 110.97C157.044 110.236 158.839 109.594 160.589 108.952C162.923 108.127 165.167 107.164 167.186 105.559C165.929 104.642 164.134 105.743 163.327 104.092C163.82 103.083 165.122 102.716 166.064 102.028C168.802 100.148 171.584 98.2681 174.277 96.3422C175.219 95.6543 176.251 94.9665 176.431 93.6825L176.655 93.7284L176.476 93.7743ZM102.832 162.511C103.595 161.87 104.313 161.411 104.986 160.907C106.602 161.961 106.646 163.337 106.826 164.575C107.32 167.235 108.441 169.619 109.519 172.554C110.281 171.316 110.775 170.49 111.403 169.573C113.019 170.536 113.198 171.82 113.558 172.967C113.961 174.296 114.231 175.534 114.679 176.773C115.173 177.827 115.038 179.249 116.34 180.349C117.641 179.111 116.654 177.185 118.404 176.222C118.808 176.543 119.661 176.773 119.93 177.185C120.648 178.194 121.142 179.34 121.725 180.349C122.398 181.541 122.982 182.78 123.745 183.834C124.059 184.293 124.597 184.66 125.45 184.293C125.405 183.88 125.405 183.376 125.405 182.871C125.226 181.358 124.687 179.707 124.867 178.194C125.001 176.452 124.283 174.892 123.386 173.288C122.533 172.004 121.546 170.765 120.783 169.39C119.975 168.06 118.853 166.73 119.347 165.217C119.706 164.208 119.347 163.383 118.674 162.557C117.955 161.64 117.372 160.677 116.654 159.806C115.981 158.935 115.532 158.064 115.891 157.101C116.071 156.321 115.667 155.679 115.128 155.037C112.48 151.781 109.16 149.168 105.165 147.425C104.762 147.196 104.223 147.242 103.55 147.104C100.633 151.965 100.453 156.963 102.832 162.511Z" fill="black"/>
</svg>
