<svg width="132" height="169" viewBox="0 0 132 169" fill="none" xmlns="http://www.w3.org/2000/svg">
<path d="M121.903 78.0105C124.388 75.8473 126.088 74.3601 124.519 70.5745C123.996 69.4929 123.342 68.9521 122.557 68.2761C122.034 67.8705 121.511 67.4649 120.987 66.7889C120.726 66.5185 120.595 66.1129 120.464 65.5721C120.072 64.3553 119.418 63.2737 118.633 62.3273C118.633 61.9217 118.633 61.2457 118.633 60.8401C118.633 59.0825 118.633 59.0825 118.502 58.9473C118.372 58.1361 118.11 57.3249 118.241 56.6489C118.372 55.9729 118.502 55.8377 118.633 55.2969L118.764 54.8913C119.026 54.3505 119.287 53.9449 119.549 53.5393C119.81 52.9985 120.203 52.5929 120.333 51.9169C121.38 48.9425 120.987 48.2665 119.68 46.6441C119.156 45.9681 118.502 45.1569 117.848 44.0753C117.325 43.2641 117.064 42.4529 116.802 41.7769C116.279 40.2897 115.756 39.2081 114.186 38.1265C113.663 37.8561 113.14 37.5857 112.617 37.4505C111.832 37.1801 111.047 36.9097 110.393 36.3689C110.132 36.2337 110.132 35.8281 110.001 35.4225C110.001 35.2873 110.001 35.0169 109.87 35.0169C109.87 34.8817 109.739 34.7465 109.739 34.7465C108.693 33.5297 107.647 32.8537 106.47 32.1777C106.077 31.9073 105.816 31.7721 105.423 31.5017C104.508 30.9609 103.723 30.1497 103.069 29.4737C102.415 28.7977 101.761 28.1217 101.107 27.7161C100.977 27.5809 100.584 27.1753 100.192 26.7697C98.7531 25.1473 98.23 24.4713 97.9684 24.3361C97.3144 23.9305 96.3989 23.2545 95.4834 22.3081C94.8294 21.6321 94.3062 20.9561 93.9139 20.4153C92.9983 19.1985 92.2136 18.2521 90.3825 17.7113C89.8594 17.5761 89.3362 17.5761 88.6823 17.4409C87.7667 17.4409 86.982 17.3057 86.3281 17.0353C86.0665 16.9001 85.9357 16.6297 85.8049 16.2241C85.8049 16.0889 85.6741 15.9537 85.5433 15.8185C85.5433 15.6833 85.4125 15.6833 85.2817 15.5481C83.9738 14.7369 82.6659 14.3313 81.358 14.0609C80.9657 13.9257 80.5733 13.9257 80.1809 13.7905C79.1346 13.5201 78.2191 12.9793 77.4343 12.5737C75.9956 11.7625 74.4262 10.9513 72.9875 11.6273C72.4643 11.8977 72.2027 12.0329 71.9411 12.3033C71.5488 12.7089 71.1564 12.9793 69.7177 13.1145C68.1482 13.1145 66.8403 12.8441 65.4016 12.4385H65.2708C65.0093 12.3033 64.7477 12.3033 64.3553 12.1681C63.4398 11.8977 62.655 11.7625 61.7395 11.7625C60.17 11.7625 59.2545 12.4385 58.8621 13.7905C58.8621 13.9257 58.6006 14.0609 58.4698 14.0609C57.685 14.0609 55.0692 14.8721 53.1074 17.0353C52.715 17.1705 52.1918 17.3057 51.7995 17.5761C51.0147 17.9817 50.23 18.2521 49.4452 18.2521C49.1837 18.2521 48.9221 18.1169 48.5297 17.8465C48.3989 17.7113 48.2681 17.5761 48.1373 17.5761C48.0066 17.5761 47.8758 17.4409 47.745 17.4409C46.1755 17.3057 44.9984 17.5761 43.6905 17.9817C43.2981 18.1169 42.9057 18.1169 42.5134 18.2521C41.467 18.5225 40.4207 18.5225 39.5052 18.5225C37.6741 18.5225 36.1047 18.5225 35.0583 19.8745C34.666 20.4153 34.5352 20.6857 34.4044 21.0913C34.2736 21.6321 34.012 22.0377 32.8349 22.8489C31.527 23.6601 30.0883 23.9305 28.6496 24.3361C28.388 24.4713 27.9957 24.4713 27.7341 24.6065C25.3799 25.1473 23.1564 25.9585 23.5488 28.6625C23.5488 28.7977 23.5488 29.0681 23.2872 29.0681C21.3254 30.1497 20.4098 33.2593 20.4098 35.9633V37.8561C18.8404 38.6673 17.9248 39.8841 17.0093 41.1009C16.3553 41.9121 15.8322 42.8585 14.9167 43.3993C14.0011 44.0753 12.9548 44.0753 12.0393 43.9401C11.7777 43.9401 11.5161 43.9401 11.3853 43.9401C10.339 43.9401 9.0311 44.0753 8.11557 45.4273C5.89214 48.2665 7.20004 49.4833 8.50794 50.7001C8.90031 51.1057 9.29268 51.3761 9.68505 51.9169C10.4698 52.9985 10.2082 53.5393 9.94663 54.6209C9.68505 55.2969 9.42347 56.2433 9.42347 57.4601C9.68505 60.8401 11.3853 62.1921 13.3472 63.5441C13.8703 63.9497 14.5243 64.3553 15.0474 64.8961C15.963 65.7073 15.963 65.7073 15.963 66.2481C15.963 66.5185 15.963 67.0593 16.2246 67.8705C16.4861 69.4929 16.6169 70.0337 17.794 71.3857C17.794 71.3857 17.794 71.5209 17.9248 71.5209C17.0093 72.1969 15.8322 73.1433 15.4398 73.5489C15.0474 73.9545 14.6551 74.3601 14.3935 74.7657C14.1319 75.1713 13.8703 75.4417 13.6088 75.7121C13.2164 75.9825 12.824 76.2529 12.3009 76.5233C11.7777 76.7937 11.2545 77.0641 10.7314 77.4697C8.50794 79.2273 7.7232 82.8777 8.90031 85.9873C9.68505 88.1505 11.5161 89.0969 13.0856 89.9081C14.0011 90.3137 14.9167 90.8545 15.5706 91.5305C16.2246 92.2065 16.6169 93.0177 17.1401 93.8289C17.9248 95.1809 18.7096 96.6681 20.5406 97.7497C22.6333 98.8313 26.557 99.9129 29.4344 98.5609C31.7886 101.265 35.5815 103.293 39.1128 103.293C40.4207 103.293 41.8594 103.023 43.0365 102.347C43.4289 102.076 43.8213 101.806 44.2136 101.535C44.4752 101.265 44.7368 101.13 44.8676 100.995C45.5215 100.589 45.6523 100.589 46.3063 100.454C46.5679 100.454 46.8294 100.319 47.091 100.319C48.2681 100.724 51.6687 101.806 53.4997 100.859C53.6305 100.995 53.7613 101.13 53.8921 101.265C58.7313 108.971 57.0311 120.869 56.9003 121.004C56.9003 121.41 57.0311 121.68 57.2927 121.815C57.4234 121.951 61.3471 123.843 66.1864 123.843C69.3253 123.843 72.0719 123.032 74.5569 121.545C74.8185 121.41 74.9493 121.139 74.9493 120.869C74.9493 120.734 74.2954 106.132 82.9275 97.3441C83.0583 97.6145 83.1891 97.8849 83.3199 98.2905C84.1046 100.454 85.2817 101.535 87.2436 102.076C88.2899 102.347 89.7286 102.482 91.1673 102.482C92.0828 102.482 92.9983 102.482 93.7831 102.347C94.0447 102.347 94.3063 102.211 94.6986 102.211C96.2681 101.941 96.7913 101.941 98.6223 102.617C100.061 103.158 101.369 103.428 102.546 103.428C105.162 103.428 106.862 102.211 107.516 99.6425C107.516 99.5073 107.647 99.3721 107.778 99.3721C110.655 98.9665 112.748 96.9385 113.14 94.5049C113.402 93.1529 112.617 89.5025 110.524 87.8801C110.524 87.6097 110.655 87.4745 110.655 87.2041C110.655 87.0689 110.786 86.9337 110.786 86.9337C110.917 86.9337 111.047 86.7985 111.047 86.9337L111.44 87.0689C113.009 87.4745 114.971 87.8801 116.933 87.8801C118.895 87.8801 120.203 87.3393 120.987 86.2577C122.165 84.5001 122.034 80.8497 120.595 79.7681C120.464 79.6329 120.464 79.6329 120.464 79.4977C120.464 79.3625 120.464 79.2273 120.595 79.2273C121.118 78.5513 121.511 78.2809 121.903 78.0105ZM104.639 32.8537C105.031 33.1241 105.293 33.2593 105.685 33.5297C106.731 34.2057 107.516 34.7465 108.432 35.6929V35.8281C108.562 36.3689 108.693 37.0449 109.216 37.5857C110.001 38.3969 111.047 38.6673 111.963 39.0729C112.486 39.2081 112.878 39.4785 113.271 39.6137C114.448 40.4249 114.84 41.1009 115.233 42.4529C115.494 43.1289 115.887 44.0753 116.41 45.0217C117.195 46.3737 117.848 47.1849 118.502 47.8609C119.549 49.0777 119.68 49.2129 118.895 51.5113C118.764 51.9169 118.502 52.3225 118.241 52.7281C117.979 53.1337 117.587 53.6745 117.325 54.2153L117.195 54.6209C116.933 55.1617 116.802 55.4321 116.671 56.2433C116.41 57.3249 116.671 58.4065 116.933 59.2177C116.933 59.4881 116.933 60.1641 116.933 60.8401C116.541 60.5697 116.148 60.2993 115.756 60.0289C114.71 59.4881 113.663 58.9473 112.486 58.5417C111.571 58.1361 110.786 57.7305 110.001 57.3249C107.908 56.3785 106.077 55.4321 103.462 55.1617C101.761 55.0265 100.323 55.1617 99.0147 55.4321C98.8839 55.0265 98.7531 54.4857 98.6223 53.6745C98.4915 52.9985 98.2299 52.1873 98.2299 51.9169C98.2299 51.1057 98.2299 50.2945 98.2299 49.4833C98.2299 48.6721 98.4915 47.8609 98.7531 47.0497C99.1455 45.8329 99.4071 44.6161 99.0147 43.2641C98.4915 40.8305 96.5297 37.7209 94.3063 36.5041C93.6523 36.2337 92.7368 36.0985 91.6904 35.9633C90.6441 35.8281 89.5978 35.8281 88.9439 35.4225C88.0283 34.8817 87.7667 33.9353 87.5052 32.9889C87.3744 32.4481 87.2436 31.9073 86.982 31.5017C86.0665 29.8793 84.2354 28.2569 82.012 26.9049C83.0583 26.7697 83.843 26.6345 83.9738 26.6345C84.2354 26.6345 84.3662 26.6345 84.497 26.7697C85.2817 27.0401 86.1973 26.6345 86.7204 25.9585C86.8512 25.6881 87.1128 25.6881 87.3744 25.6881C88.1591 25.6881 89.2054 26.2289 90.121 26.7697C90.3826 26.9049 90.6441 27.0401 90.9057 27.3105C92.2136 28.1217 93.5215 28.9329 95.2218 29.3385C97.0528 29.8793 97.9684 29.4737 98.6223 29.0681C98.7531 28.9329 98.8839 28.9329 99.2763 28.7977C100.061 28.6625 100.715 29.2033 102.023 30.5553C102.808 31.5017 103.723 32.3129 104.639 32.8537ZM80.5733 88.4209C77.042 90.0433 74.2954 92.7473 72.4643 95.5865L73.903 86.5281C76.5188 85.1761 79.7886 83.0129 82.1428 80.0385C82.7967 81.2553 84.1046 83.2833 85.1509 84.2297C84.1046 84.6353 83.1891 85.0409 82.2736 85.8521C81.4888 86.6633 80.8349 87.4745 80.5733 88.4209ZM82.6659 77.3345C82.4044 77.1993 82.012 76.9289 81.6196 76.6585C81.358 76.3881 80.9657 76.1177 80.5733 75.8473C80.3117 75.7121 79.9193 75.5769 79.527 75.4417C78.873 75.3065 78.3499 75.1713 77.9575 75.1713C77.6959 75.1713 77.4343 75.1713 77.1727 75.1713C76.9112 75.1713 76.7804 75.1713 76.5188 75.1713C76.1264 75.1713 75.8648 75.1713 75.6033 75.0361C75.3417 74.9009 75.2109 74.9009 74.9493 74.7657C73.5106 74.0897 72.3335 72.8729 71.0256 71.7913C70.6332 71.5209 70.3717 71.1153 69.9793 70.8449C69.4561 70.3041 68.933 69.8985 68.4098 69.4929C67.3635 68.6817 66.5787 68.0057 65.9248 67.0593C65.2708 65.9777 65.5324 65.3017 65.6632 64.8961C65.9248 64.3553 66.448 63.9497 67.2327 63.4089C67.2327 63.4089 67.2327 63.4089 67.3635 63.4089C68.933 62.4625 71.418 61.7865 73.903 61.7865H74.1646C75.3417 61.7865 75.8648 61.9217 76.7804 62.1921C77.042 62.3273 77.3035 62.3273 77.5651 62.4625C79.2654 64.3553 81.4888 64.8961 83.5815 65.4369C86.328 66.1129 87.5052 66.6537 88.0283 68.2761C88.1591 68.8169 88.5515 69.2225 89.0746 69.4929C89.3362 69.6281 90.3826 70.8449 90.7749 72.0617C90.7749 72.1969 90.9057 72.3321 90.9057 72.4673C90.7749 72.4673 90.6441 72.6025 90.6441 72.6025C89.9902 72.7377 89.2054 73.0081 88.5515 73.6841C88.0283 74.2249 87.7667 75.0361 87.636 75.5769C87.636 75.7121 87.5052 76.1177 87.5052 76.1177C86.7204 77.0641 85.2817 77.7401 83.9738 77.7401C83.4507 77.6049 83.0583 77.4697 82.6659 77.3345ZM75.2109 76.6585C75.6033 76.7937 75.9956 76.7937 76.5188 76.7937C76.7804 76.7937 76.9112 76.7937 77.1727 76.7937C77.4343 76.7937 77.5651 76.7937 77.8267 76.7937C77.9575 76.7937 78.2191 76.7937 78.4807 76.7937C77.042 77.8753 75.7341 78.9569 74.8185 79.6329L75.2109 76.6585ZM64.3553 71.1153L65.0093 73.1433L62.2627 93.1529C62.0011 93.0177 61.8703 92.8825 61.6087 92.6121C60.9548 90.8545 56.6387 77.8753 54.2845 57.8657L60.824 60.8401L64.3553 71.1153ZM64.0937 65.7073L62.1319 60.0289C62.0011 59.7585 61.8703 59.6233 61.7395 59.6233L50.4916 54.3505C50.3608 54.2153 50.23 54.0801 50.0992 53.8097C49.576 53.2689 48.7913 52.8633 48.1373 52.5929C47.6142 52.3225 47.091 52.1873 46.8294 51.9169C46.4371 51.5113 46.3063 51.1057 46.1755 50.4297L59.7777 57.5953C59.9085 57.5953 60.0392 57.7305 60.17 57.7305C60.3008 57.7305 60.5624 57.5953 60.6932 57.5953C60.9548 57.3249 61.0856 57.0545 60.9548 56.7841L59.2545 51.6465C59.9085 51.7817 60.5624 51.9169 61.2164 52.0521C61.4779 52.0521 61.8703 52.1873 62.1319 52.1873L66.0556 62.5977C65.2708 63.1385 64.7477 63.6793 64.3553 64.3553C64.2245 64.6257 64.0937 65.1665 64.0937 65.7073ZM50.4916 65.7073C51.4071 71.7913 52.9766 80.0385 54.4153 85.5817C54.0229 85.0409 53.7613 84.6353 53.4997 84.0945C51.7995 81.1201 48.7913 72.4673 46.9602 67.3297L46.8294 67.0593C47.2218 66.9241 47.745 66.7889 48.1373 66.6537C48.9221 66.6537 49.7068 66.3833 50.4916 65.7073ZM55.7232 49.8889C56.1155 50.1593 56.5079 50.4297 57.0311 50.7001C57.1619 50.7001 57.1619 50.8353 57.2927 50.8353L58.7313 55.2969L54.1537 52.8633C55.2 52.0521 55.5924 50.9705 55.7232 49.8889ZM83.5815 56.3785C82.2736 58.1361 80.3117 60.7049 79.3962 61.9217C79.1346 61.6513 78.873 61.3809 78.6114 61.1105C78.4806 60.9753 78.3499 60.8401 78.2191 60.8401C77.8267 60.7049 77.5651 60.7049 77.1727 60.5697C76.6496 60.4345 76.2572 60.2993 75.8648 60.2993L81.358 54.0801C82.2736 54.4857 83.1891 54.6209 84.2354 54.8913C84.3662 54.8913 84.497 55.0265 84.497 55.1617L83.5815 56.3785ZM73.903 60.1641C73.7722 60.1641 73.6414 60.1641 73.5106 60.1641L74.5569 50.7001C74.8185 50.5649 74.9493 50.4297 75.2109 50.1593C75.6033 49.7537 76.1264 49.4833 76.5188 49.0777C76.6496 48.9425 76.7804 48.9425 76.9112 49.0777C77.042 49.0777 77.1727 49.2129 77.1727 49.3481C77.8267 51.2409 78.7422 52.3225 80.0501 53.2689L73.903 60.1641ZM71.9411 60.2993C70.3717 60.5697 68.8022 60.9753 67.4943 61.5161V61.3809L69.3253 52.9985C70.1101 52.9985 70.8948 52.7281 71.5488 52.4577C71.9411 52.3225 72.4643 52.0521 72.8567 51.7817L71.9411 60.2993ZM66.448 58.8121L63.9629 52.4577C65.1401 52.7281 66.448 52.9985 67.7559 53.1337L66.448 58.8121ZM83.843 63.8145C82.7967 63.5441 81.6196 63.2737 80.7041 62.7329C81.6196 61.5161 83.5815 59.0825 84.7586 57.4601V57.3249C84.8894 57.8657 85.1509 58.2713 85.5433 58.6769L85.6741 58.8121C85.9357 59.2177 86.4588 60.1641 87.3744 60.7049C86.1973 61.5161 84.6278 62.5977 83.843 63.8145ZM89.3362 59.7585C88.0283 59.6233 87.3744 58.6769 87.1128 58.0009C86.982 57.8657 86.8512 57.7305 86.8512 57.5953C86.3281 57.0545 86.1973 56.2433 86.3281 55.2969C86.4588 54.2153 85.6741 53.2689 84.7586 53.1337C81.6196 52.5929 79.6578 51.6465 78.7422 48.8073C78.4806 48.2665 78.0883 47.7257 77.4343 47.5905C76.7804 47.4553 76.1264 47.4553 75.7341 47.8609C75.3417 48.1313 74.8185 48.5369 74.4262 48.9425C73.3798 49.7537 72.3335 50.7001 71.1564 51.1057C70.5024 51.3761 69.7177 51.5113 68.933 51.5113C67.3635 51.5113 65.6632 51.1057 64.2245 50.7001C63.309 50.4297 62.3935 50.2945 61.6087 50.2945C60.3008 50.1593 59.1237 49.8889 57.9466 49.3481C56.2463 48.5369 55.854 47.5905 54.8076 45.6977C54.6768 45.4273 54.5461 45.1569 54.4153 44.8865C54.0229 44.2105 53.3689 43.8049 52.715 43.8049C49.7068 43.8049 45.6523 43.5345 45.1292 41.5065C44.8676 40.5601 45.26 39.3433 46.0447 38.1265C47.3526 36.2337 49.4452 34.4761 51.0147 34.3409C51.6687 34.2057 52.1918 33.8001 52.5842 33.2593C54.6768 29.0681 58.4698 26.6345 62.1319 27.1753C63.8322 27.4457 65.2708 27.5809 66.8403 27.5809C68.6714 27.5809 70.3717 27.4457 72.3335 27.1753H72.8567C73.3798 27.1753 73.7722 27.1753 74.2954 27.1753C75.8648 27.1753 77.3035 27.3105 78.6114 27.7161C79.2654 27.8513 79.7885 28.1217 80.3117 28.3921C82.6659 29.6089 84.6278 31.2313 85.5433 32.8537C85.6741 33.1241 85.8049 33.5297 85.9357 33.9353C86.1973 35.0169 86.5896 36.5041 88.0283 37.3153C89.0746 37.9913 90.2518 37.9913 91.5597 38.1265C92.2136 38.1265 93.1291 38.2617 93.5215 38.3969C95.3526 39.3433 96.9221 42.1825 97.4452 44.2105C97.7068 45.1569 97.4452 45.9681 97.1836 47.0497C96.9221 47.8609 96.6605 48.8073 96.6605 49.7537C96.6605 50.5649 96.6605 51.3761 96.6605 52.3225C96.6605 52.7281 96.7913 53.4041 97.1836 54.4857C97.3144 55.0265 97.576 55.8377 97.576 56.1081C95.7449 56.6489 94.1755 57.5953 92.2136 58.5417C91.1673 58.8121 90.2518 59.3529 89.3362 59.7585ZM58.6006 15.8185C59.3853 15.8185 60.17 15.2777 60.4316 14.4665C60.5624 13.9257 60.824 13.6553 61.8703 13.6553C62.5243 13.6553 63.309 13.7905 64.0937 14.0609C64.3553 14.1961 64.6169 14.1961 64.8785 14.3313H65.0093C66.448 14.7369 68.0174 15.1425 69.7177 15.0073C71.2872 15.0073 72.0719 14.6017 72.9875 13.7905C73.1183 13.6553 73.249 13.5201 73.5106 13.3849C74.2954 13.1145 75.2109 13.5201 76.6496 14.3313C77.5651 14.7369 78.6114 15.2777 79.6578 15.6833C80.0501 15.8185 80.4425 15.9537 80.8349 15.9537C82.012 16.2241 82.9275 16.4945 84.1046 17.1705V17.3057C84.3662 17.7113 84.6278 18.3873 85.4125 18.7929C86.4588 19.3337 87.5052 19.3337 88.4207 19.4689C88.9439 19.4689 89.467 19.4689 89.8594 19.6041C91.2981 20.0097 91.6904 20.5505 92.606 21.7673C93.1291 22.4433 93.6523 23.1193 94.3063 23.7953C95.3526 24.8769 96.2681 25.4177 97.0528 25.9585C97.1836 26.0937 97.9684 26.9049 98.6223 27.5809C98.23 27.7161 98.0992 27.7161 97.8376 27.8513C97.576 27.9865 97.0528 28.3921 95.6142 27.9865C94.1755 27.5809 92.8676 26.7697 91.6904 26.0937C91.4289 25.9585 91.1673 25.8233 90.9057 25.5529C89.7286 24.8769 88.5515 24.2009 87.3744 24.2009C86.4588 24.2009 85.8049 24.6065 85.1509 25.4177C85.0201 25.5529 84.8894 25.6881 84.7586 25.5529C84.497 25.4177 84.1046 25.4177 83.7122 25.4177C83.4507 25.4177 79.527 25.8233 78.6114 25.9585C77.3035 25.5529 75.7341 25.4177 74.0338 25.4177C73.5106 25.4177 72.9875 25.4177 72.4643 25.5529H71.9411C70.2409 25.6881 68.8022 25.8233 67.2327 25.8233C67.2327 25.6881 67.2327 25.4177 67.2327 25.2825C67.2327 23.5249 67.2327 22.8489 67.1019 22.5785C65.9248 19.7393 65.1401 19.4689 63.1782 19.3337C62.3935 19.1985 61.3471 19.1985 60.0392 18.7929C59.1237 18.5225 58.4698 18.2521 57.8158 17.8465C57.1619 17.5761 56.5079 17.3057 55.854 17.0353C57.1619 16.2241 58.4698 15.8185 58.6006 15.8185ZM24.4643 30.2849C25.2491 29.8793 25.6414 29.0681 25.5107 28.1217C25.3799 27.4457 25.2491 26.7697 28.5188 25.9585C28.7804 25.8233 29.042 25.8233 29.4344 25.6881C30.873 25.2825 32.4425 25.0121 34.012 24.0657C35.4507 23.2545 35.9739 22.5785 36.3662 21.3617C36.497 21.0913 36.497 21.0913 36.6278 20.8209C37.151 20.1449 37.9357 20.1449 39.8976 20.1449C40.9439 20.1449 41.9902 20.1449 43.1673 19.8745C43.5597 19.7393 43.9521 19.7393 44.3444 19.6041C45.5215 19.3337 46.4371 19.0633 47.745 19.1985C47.745 19.1985 47.8758 19.1985 47.8758 19.3337C48.2681 19.6041 48.7913 20.0097 49.7068 20.0097C50.8839 20.0097 51.7995 19.4689 52.5842 19.1985C53.1074 18.9281 53.4997 18.7929 53.8921 18.6577C55.2 18.3873 55.9847 18.6577 57.2927 19.3337C57.9466 19.6041 58.7313 20.0097 59.7777 20.2801C61.2164 20.6857 62.2627 20.8209 63.1782 20.8209C64.8785 20.9561 65.0093 20.9561 65.794 23.1193C65.9248 23.3897 65.9248 24.6065 65.9248 25.2825C65.9248 25.5529 65.9248 25.6881 65.9248 25.8233C64.7477 25.8233 63.5706 25.6881 62.2627 25.5529C57.9466 25.0121 53.4997 27.7161 51.1455 32.5833C51.1455 32.7185 51.0147 32.7185 50.8839 32.8537C48.9221 33.1241 46.3063 35.0169 44.7368 37.4505C43.6905 39.0729 43.2981 40.8305 43.5597 42.1825C44.3444 45.1569 48.5297 45.6977 52.5842 45.6977C52.715 45.6977 52.8458 45.8329 52.9766 45.9681C53.1074 46.2385 53.2382 46.5089 53.3689 46.7793C53.6305 47.3201 53.8921 47.8609 54.2845 48.4017C54.4153 48.9425 54.6768 51.2409 52.715 52.3225L45.9139 48.6721C45.7831 48.1313 45.5215 47.5905 45.26 47.1849C43.6905 44.8865 40.8131 42.9937 38.3281 42.4529C37.6741 42.3177 37.2818 42.3177 36.8894 42.3177C36.3662 42.3177 36.1047 42.3177 35.5815 41.7769C35.4507 41.6417 35.1891 41.3713 34.9275 41.1009C34.5352 40.5601 34.012 39.8841 33.3581 39.6137C31.1346 38.2617 27.7341 37.4505 24.8567 37.4505C23.9412 37.4505 23.1564 37.5857 22.5025 37.7209V36.2337C22.3717 33.6649 23.1564 30.9609 24.4643 30.2849ZM17.5325 66.1129C17.4017 65.0313 17.2709 64.8961 16.0938 63.6793C15.4398 63.1385 14.7859 62.5977 14.2627 62.1921C12.4316 60.9753 11.2545 60.0289 11.2545 57.3249C11.2545 56.3785 11.5161 55.7025 11.7777 55.0265C12.1701 53.9449 12.5624 52.7281 11.2545 50.9705C10.8622 50.4297 10.339 49.8889 9.94663 49.4833C8.76952 48.4017 8.50794 48.1313 9.81584 46.5089C10.339 45.8329 10.993 45.6977 11.9085 45.6977C12.1701 45.6977 12.3009 45.6977 12.5624 45.6977C12.824 45.6977 13.0856 45.6977 13.3472 45.6977C14.2627 45.6977 15.4398 45.5625 16.4861 44.7513C17.4017 43.9401 18.1864 42.9937 18.8404 42.1825C19.7559 40.9657 20.5406 39.7489 21.9793 39.2081C22.2409 39.0729 22.3717 39.0729 22.6333 38.9377C23.2872 38.8025 23.9412 38.6673 24.7259 38.6673C27.3417 38.6673 30.6115 39.4785 32.4425 40.5601C32.8349 40.8305 33.2273 41.2361 33.4889 41.6417C33.7504 42.0473 34.1428 42.4529 34.4044 42.7233C35.3199 43.3993 35.9739 43.3993 36.6278 43.5345C36.8894 43.5345 37.2818 43.5345 37.8049 43.6697C39.8976 44.0753 42.3826 45.8329 43.6905 47.7257C44.0828 48.2665 44.2136 49.0777 44.3444 49.8889C44.4752 50.9705 44.7368 52.0521 45.5215 52.8633C46.0447 53.4041 46.6987 53.6745 47.3526 53.9449C47.8758 54.2153 48.5297 54.4857 48.7913 54.7561C49.4452 55.4321 49.7068 55.9729 50.0992 56.9193C50.6224 58.6769 50.6224 61.5161 50.0992 63.1385C49.576 64.6257 48.7913 64.7609 47.6142 65.1665C46.9602 65.3017 46.1755 65.5721 45.26 66.1129C44.7368 66.5185 44.2136 66.9241 43.8213 67.3297C43.2981 67.8705 42.9057 68.4113 42.121 68.6817C41.8594 68.8169 41.467 68.8169 40.9439 68.8169C40.2899 68.8169 39.5052 68.9521 38.982 69.3577C38.1973 69.8985 37.6741 70.7097 37.151 71.5209C36.497 72.4673 35.9739 73.4137 34.7968 73.8193C33.3581 74.3601 31.0038 74.2249 27.7341 73.2785C26.557 73.0081 25.5107 72.7377 24.3335 72.6025C22.1101 72.3321 20.1483 72.0617 18.7096 70.3041C17.794 69.0873 17.794 68.8169 17.5325 67.4649C17.6632 66.7889 17.5325 66.3833 17.5325 66.1129ZM47.6142 98.5609C47.4834 98.5609 47.3526 98.5609 47.091 98.5609C46.6987 98.6961 46.4371 98.6961 46.1755 98.8313C45.5215 98.9665 45.1292 98.9665 44.3444 99.5073C43.9521 99.7777 43.6905 100.048 43.4289 100.319C43.1673 100.589 42.9057 100.859 42.6442 100.995C38.5897 103.023 33.2273 100.589 30.4807 97.0737C30.2191 96.8033 29.8267 96.6681 29.4344 96.9385C27.3417 98.2905 23.8104 97.7497 21.587 96.3977C20.1483 95.5865 19.4943 94.5049 18.7096 93.1529C18.1864 92.2065 17.6632 91.2601 16.8785 90.4489C15.963 89.6377 14.9167 89.0969 13.8703 88.5561C12.3009 87.8801 10.993 87.2041 10.4698 85.5817C9.55426 83.1481 10.2082 80.3089 11.7777 78.9569C12.1701 78.5513 12.6932 78.4161 13.0856 78.1457C13.6088 77.8753 14.2627 77.4697 14.6551 77.0641C15.0474 76.6585 15.309 76.2529 15.5706 75.9825C15.8322 75.5769 16.0938 75.3065 16.3553 75.0361C16.6169 74.7657 18.0556 73.6841 18.9712 73.0081C20.5406 74.2249 22.5025 74.4953 24.3335 74.7657C25.3799 74.9009 26.4262 75.0361 27.4725 75.3065C29.6959 75.9825 31.527 76.2529 32.9657 76.2529C34.012 76.2529 34.7968 76.1177 35.5815 75.8473C37.151 75.3065 37.9357 73.9545 38.5897 72.8729C39.1128 72.1969 39.5052 71.5209 40.0284 71.1153C40.2899 70.9801 40.8131 70.9801 41.2055 70.8449C41.467 70.8449 41.5978 70.8449 41.8594 70.8449L43.8213 79.9033C43.8213 80.1737 44.9984 85.7169 47.3526 91.9361C44.2136 90.8545 40.0284 89.3673 37.8049 88.8265C35.0583 88.2857 31.9194 86.6633 30.7423 85.9873C29.9575 85.5817 28.9112 85.9873 28.5188 86.7985C28.2572 87.3393 28.2572 87.8801 28.388 88.4209C28.5188 88.9617 28.9112 89.2321 29.4344 89.5025L37.151 92.4769L50.0992 97.7497C50.4916 98.2905 51.1455 98.8313 52.1918 99.7777C51.1455 99.5073 49.3145 99.1017 47.6142 98.5609ZM73.6414 120.193C71.5488 121.41 69.0638 122.086 66.448 122.086C62.9166 122.086 59.9085 121.004 58.7313 120.463C58.9929 117.759 59.9085 107.484 55.3308 100.183C55.2 99.9129 54.8076 99.5073 54.2845 99.1017C54.0229 98.8313 53.7613 98.5609 53.3689 98.2905C52.715 97.7497 51.5379 96.6681 51.4071 96.3977C51.2763 96.2625 51.1455 96.1273 51.0147 95.9921L37.9357 90.5841L30.2191 87.6097L30.0883 87.4745C30.0883 87.4745 30.0883 87.3393 30.0883 87.2041L30.2191 87.0689C31.7886 87.8801 34.9275 89.3673 37.6741 90.0433C40.2899 90.5841 45.6523 92.6121 48.6605 93.6937C48.9221 93.8289 49.3145 93.6937 49.4452 93.4233C49.7068 93.1529 49.7068 92.8825 49.576 92.4769C46.6987 85.8521 45.5215 79.2273 45.3908 79.0921L43.4289 69.8985C44.0828 69.4929 44.606 68.9521 44.9984 68.5465C45.1292 68.4113 45.26 68.2761 45.26 68.2761C47.091 73.5489 50.23 82.0665 51.9303 85.0409C52.715 86.5281 53.8921 88.0153 55.4616 89.6377C55.5924 89.7729 55.854 89.9081 55.9847 89.9081C56.1155 89.9081 56.2463 89.9081 56.3771 89.7729C56.6387 89.5025 56.7695 89.2321 56.6387 88.8265C54.8076 83.2833 52.3226 71.1153 51.4071 63.6793C52.061 61.7865 52.061 58.8121 51.4071 56.7841L52.1918 57.1897C54.6768 79.4977 59.7777 93.4233 59.9085 93.5585C59.9085 93.6937 60.0392 93.8289 60.17 93.9641C61.3471 94.9105 62.1319 95.3161 62.1319 95.4513C62.2627 95.5865 62.3935 95.5865 62.5243 95.5865C62.655 95.5865 62.7858 95.5865 62.7858 95.4513C63.0474 95.3161 63.1782 95.0457 63.1782 94.7753L66.1864 73.2785C66.1864 73.1433 66.1864 73.0081 66.1864 72.8729L65.4016 70.7097L64.6169 68.5465C65.2708 69.4929 66.1864 70.1689 67.1019 70.9801C67.6251 71.3857 68.1482 71.7913 68.5406 72.1969C68.933 72.4673 69.1945 72.8729 69.5869 73.1433C70.764 74.2249 71.9411 75.3065 73.249 76.1177L72.4643 81.3905C72.4643 81.6609 72.5951 82.0665 72.8567 82.2017C72.9875 82.3369 73.1183 82.3369 73.249 82.3369C73.3798 82.3369 73.5106 82.3369 73.6414 82.2017C73.7722 82.0665 76.7804 80.1737 79.527 77.7401C79.6578 77.8753 79.7886 78.0105 79.9193 78.1457C80.1809 78.2809 80.3117 78.4161 80.5733 78.5513C78.2191 81.9313 74.2954 84.2297 72.0719 85.4465C71.8103 85.5817 71.6796 85.7169 71.6796 85.9873L69.1945 101.265C69.0638 101.671 69.4561 102.076 69.8485 102.211H69.9793C70.3717 102.211 70.6332 101.941 70.764 101.671C71.8103 97.8849 74.8185 93.1529 79.527 90.5841V90.7193C79.3962 91.8009 79.3962 92.8825 80.3117 93.8289C80.9657 94.6401 81.4888 95.1809 81.7504 95.5865C73.7722 103.969 73.5106 117.354 73.6414 120.193ZM111.832 93.9641C111.571 95.7217 110.001 97.2089 107.778 97.4793C106.993 97.6145 106.339 98.1553 106.208 98.9665C105.685 100.724 104.639 101.535 102.808 101.535C101.761 101.535 100.584 101.265 99.4071 100.859C98.0992 100.319 97.3144 100.183 96.3989 100.183C95.8757 100.183 95.3526 100.319 94.5678 100.454C94.3062 100.454 94.0447 100.589 93.7831 100.589C93.1291 100.724 92.3444 100.724 91.4289 100.724C90.121 100.724 88.8131 100.589 87.8975 100.319C86.4588 99.9129 85.6741 99.1017 85.0202 97.4793C84.1046 95.0457 83.843 94.6401 82.1428 92.7473C81.7504 92.2065 81.7504 91.8009 81.7504 90.8545C81.7504 90.7193 81.7504 90.5841 81.7504 90.4489C81.8812 89.2321 82.2736 88.1505 83.3199 87.3393C84.6278 86.1225 86.5896 85.5817 87.8975 85.5817C88.1591 85.5817 88.4207 85.5817 88.5515 85.7169C89.7286 85.8521 90.7749 85.9873 91.5597 86.6633C92.2136 87.2041 92.606 87.8801 92.9984 88.6913C93.3907 89.6377 93.7831 90.4489 94.6986 90.9897C96.7913 92.3417 100.323 92.8825 102.938 92.8825H103.069C105.816 92.8825 108.824 91.8009 110.132 89.5025C111.44 90.4489 112.094 93.0177 111.832 93.9641ZM119.81 80.8497C120.333 81.2553 120.726 83.8241 119.941 85.0409C119.549 85.7169 118.633 85.9873 117.195 85.9873C115.494 85.9873 113.532 85.4465 112.094 85.1761H111.701C111.178 85.0409 110.524 85.1761 110.132 85.4465C109.609 85.7169 109.347 86.2577 109.347 86.9337C109.086 89.7729 105.947 91.1249 103.2 91.1249H103.069C100.584 91.1249 97.3144 90.5841 95.6142 89.5025C95.2218 89.2321 94.8294 88.6913 94.5678 87.8801C94.1755 87.0689 93.6523 85.9873 92.7368 85.3113C91.6905 84.5001 90.2518 84.2297 88.9439 84.0945C88.1591 83.9593 87.2436 83.8241 86.7204 83.5537C85.9357 83.0129 84.3662 80.8497 83.5815 79.2273C83.7122 79.2273 83.9738 79.2273 84.1046 79.2273C85.8049 79.2273 87.636 78.4161 88.8131 77.0641C89.0746 76.7937 89.2054 76.3881 89.3362 75.8473C89.467 75.4417 89.5978 74.9009 89.8594 74.6305C90.2518 74.2249 90.7749 74.0897 91.2981 73.9545C91.952 73.8193 92.3444 73.6841 92.606 73.1433C92.8676 72.6025 92.606 71.7913 92.4752 71.3857C91.952 69.8985 90.6441 68.2761 89.9902 67.8705C89.8594 67.8705 89.8594 67.7353 89.7286 67.6001C89.0746 65.5721 87.636 64.7609 85.8049 64.2201C86.8512 63.1385 88.9439 61.7865 90.121 61.2457C91.1673 60.7049 92.0828 60.2993 93.1291 59.7585C96.6605 58.0009 99.4071 56.5137 103.592 56.7841C105.816 56.9193 107.647 57.8657 109.478 58.6769C110.263 59.0825 111.178 59.4881 112.094 59.8937C113.271 60.4345 114.317 60.8401 115.233 61.3809C117.064 62.3273 118.502 63.9497 119.156 65.9777C119.418 66.6537 119.68 67.1945 119.941 67.6001C120.595 68.4113 121.249 68.9521 121.903 69.4929C122.557 70.0337 122.949 70.3041 123.342 71.1153C124.519 73.8193 123.603 74.4953 121.249 76.6585C120.857 76.9289 120.464 77.3345 120.072 77.6049C119.68 78.0105 119.418 78.5513 119.418 79.2273C119.026 79.9033 119.418 80.4441 119.81 80.8497Z" fill="black"/>
</svg>
