<svg width="138" height="177" viewBox="0 0 138 177" fill="none" xmlns="http://www.w3.org/2000/svg">
<path d="M125.964 60.7465C125.827 60.3217 125.281 60.0385 124.871 60.1801C124.598 60.1801 119.682 61.5961 114.493 64.0033C113.127 64.5697 110.942 65.1361 108.484 65.8441C99.4711 68.2513 84.1764 72.0745 77.0753 86.0929C76.9387 86.2345 75.3 89.3497 74.4806 93.3145L73.9344 93.5977C73.115 94.0225 72.5688 94.4473 71.886 94.8721C71.6129 91.3321 71.2032 86.3761 70.7935 80.0041C72.0225 78.3049 74.4806 75.8977 75.4365 75.0481C79.943 74.3401 84.7226 72.7825 84.9958 72.6409C84.9958 72.6409 84.9958 72.6409 85.1323 72.6409C103.841 64.0033 113.673 39.7897 117.361 30.7273C117.907 29.4529 118.316 28.1785 118.59 28.0369C119.819 26.4793 121.867 25.6297 121.867 25.6297C122.14 25.4881 122.413 25.2049 122.413 24.7801C122.413 24.3553 122.277 24.0721 122.004 23.9305C119.682 22.6561 103.295 29.4529 89.0926 45.0289C83.357 51.2593 76.2559 61.3129 74.4806 73.7737C73.6613 74.4817 72.1591 76.0393 70.7935 77.5969C70.7935 77.4553 70.6569 77.3137 70.5204 77.3137C70.7935 72.2161 70.5204 66.4105 70.5204 64.8529C74.8903 57.3481 76.529 48.7105 75.4365 39.2233C73.5247 22.5145 69.0182 8.07128 68.8816 7.92968C68.6085 7.36328 68.1988 7.08008 67.7892 7.08008C67.3795 7.08008 66.9698 7.50488 66.9698 7.92968C66.9698 8.07128 65.6042 21.6649 63.1461 31.4353C60.8246 40.9225 61.5074 55.3657 68.472 64.8529C68.6085 66.9769 68.8816 76.6057 68.0623 81.9865C67.516 81.2785 66.9698 80.7121 66.4236 80.2873C65.058 75.4729 60.688 64.0033 47.8514 53.1001C32.0104 39.5065 14.8038 34.9753 12.7554 36.5329C12.4823 36.8161 12.3457 37.0993 12.3457 37.5241C12.4823 37.9489 12.6188 38.2321 13.0285 38.2321C13.0285 38.2321 15.35 38.7985 16.5791 40.2145C16.7156 40.3561 17.3984 41.6305 18.0812 42.7633C22.8608 51.2593 35.5609 74.0569 55.0891 80.2873C55.3622 80.2873 60.2784 81.4201 64.7848 81.5617L64.9214 81.7033C65.6042 82.2697 66.6967 83.4025 67.516 84.8185C66.9698 90.1993 67.3795 97.2793 67.6526 103.651C67.3795 103.368 66.9698 103.085 66.5601 102.802C65.6042 98.8369 63.2827 95.1553 63.0096 94.5889C57.274 83.2609 45.803 76.3225 29.1426 73.7737C28.8695 73.7737 28.5964 73.6321 28.3233 73.6321C27.2308 73.4905 25.4555 72.3577 24.7727 71.9329C24.4996 71.7913 24.2264 71.7913 23.9533 71.7913C23.6802 71.9329 23.4071 72.0745 23.4071 72.3577C22.5877 74.9065 28.7329 88.5001 41.433 97.2793C48.6707 102.235 56.7278 104.642 65.4676 104.218C66.5601 104.926 67.2429 105.634 67.7892 106.2C67.6526 108.89 67.516 113.563 67.1064 117.245C66.4236 116.678 65.7408 115.97 64.6483 115.404C63.2827 113.422 61.9171 112.289 60.688 111.439C60.4149 111.298 60.2784 111.156 60.1418 111.014C54.5428 106.625 44.5739 102.094 28.7329 105.492H28.4598C27.6405 105.634 26.0017 105.35 25.4555 105.209C25.1824 105.209 24.9092 105.209 24.6361 105.35C24.363 105.492 24.2264 105.775 24.363 106.058C24.4996 108.182 32.6932 116.678 44.7105 119.51C54.4063 121.776 61.5074 118.378 63.9655 117.103C65.3311 117.953 66.287 118.944 66.8332 119.51C66.0139 125.316 64.9214 132.113 64.9214 132.254C64.9214 132.396 64.9214 133.104 65.3311 133.67C65.6042 133.954 66.1504 134.378 67.1064 134.378C67.3795 134.378 67.6526 134.378 67.9257 134.52C68.1988 134.52 68.6085 134.662 69.0182 134.662C69.9741 134.662 71.2032 134.237 71.4763 132.396C71.886 130.13 73.3881 108.89 72.2957 102.235C72.2957 101.952 72.1591 100.253 71.886 97.2793C72.4322 96.7129 73.3881 96.1465 74.6172 95.4385L75.3 95.0137C83.0839 96.0049 91.141 93.8809 98.3787 88.9249C107.392 82.6945 115.858 72.7825 121.048 66.8353C123.233 64.4281 125.008 62.3041 125.554 61.8793C125.964 61.7377 126.1 61.1713 125.964 60.7465ZM76.1193 72.9241C76.2559 72.7825 76.2559 72.7825 76.1193 72.9241C76.6656 72.3577 77.0753 71.6497 77.6215 71.0833L77.8946 70.6585C78.3043 70.0921 78.8505 69.3841 79.3968 68.8177C80.7624 67.1185 82.4011 65.2777 84.1764 63.2953C85.9517 61.3129 87.8635 59.3305 89.9119 57.2065C97.8324 48.9937 105.889 41.0641 106.026 40.9225C106.436 40.4977 106.436 39.9313 106.026 39.6481C105.616 39.2233 105.07 39.2233 104.797 39.6481C104.66 39.6481 96.4668 47.7193 88.6829 55.9321C86.6345 58.0561 84.7226 60.1801 82.9473 62.0209C81.1721 64.0033 79.5333 65.8441 78.0312 67.5433C77.6215 67.9681 77.3484 68.3929 76.9387 68.8177C79.6699 59.1889 85.4054 51.4009 90.0485 46.1617C100.291 34.9753 111.215 28.8865 116.951 26.6209L116.814 26.7625C116.541 27.1873 116.131 27.8953 115.449 29.8777C112.171 37.9489 102.202 62.4457 84.1764 70.8001C83.7667 70.9417 79.8065 72.2161 75.9828 72.9241C76.1193 72.9241 76.1193 72.9241 76.1193 72.9241ZM55.6353 78.3049C36.79 72.3577 23.9533 49.2769 19.72 41.7721C18.6275 39.9313 18.2178 39.0817 17.9447 38.7985L17.8081 38.6569C23.8168 40.2145 35.4244 44.8873 46.8954 54.5161C55.7719 62.1625 60.5515 69.9505 62.873 75.4729C62.4633 75.0481 62.0536 74.6233 61.644 74.1985C60.1418 72.6409 58.2299 70.9417 56.3181 69.2425C54.4063 67.4017 52.2213 65.5609 50.0363 63.7201C41.5696 56.3569 32.5566 49.2769 32.5566 49.1353C32.1469 48.8521 31.6007 48.8521 31.3276 49.2769C31.0545 49.7017 31.0545 50.2681 31.4641 50.5513C31.6007 50.6929 40.4771 57.7729 48.9439 64.9945C51.1288 66.8353 53.1772 68.6761 55.2256 70.5169C57.1375 72.2161 59.0493 73.9153 60.5515 75.4729C61.2343 76.0393 61.7805 76.6057 62.3268 77.1721L62.7364 77.5969C63.2827 78.1633 63.8289 78.7297 64.2386 79.1545C64.3752 79.2961 64.3752 79.2961 64.5117 79.2961C60.0052 79.2961 55.6353 78.3049 55.6353 78.3049ZM61.3708 98.2705C60.688 97.7041 59.8687 96.9961 59.1859 96.4297L58.6396 96.0049C57.9568 95.4385 57.4106 95.0137 56.7278 94.4473L56.045 93.8809C55.3622 93.3145 54.6794 92.8897 53.9966 92.3233L53.86 92.1817C53.0407 91.4737 52.0847 90.9073 51.1288 90.1993C49.217 88.7833 47.1686 87.3673 45.3933 86.2345C43.618 85.1017 41.8427 83.9689 40.3406 83.1193C37.3362 81.2785 35.2878 80.2873 35.1513 80.2873C34.7416 80.0041 34.1953 80.2873 33.9222 80.7121C33.6491 81.1369 33.9222 81.7033 34.3319 81.9865C34.3319 81.9865 36.3803 83.1193 39.3846 84.8185C40.8868 85.6681 42.6621 86.8009 44.4374 87.9337C46.0761 89.0665 48.1245 90.3409 50.0363 91.7569C50.9923 92.3233 51.8116 93.0313 52.631 93.7393L52.7675 93.8809C53.4503 94.4473 54.1331 94.8721 54.8159 95.4385L55.4987 96.0049C56.1815 96.5713 56.8643 96.9961 57.4106 97.5625L57.9568 97.9873C58.6396 98.5537 59.459 99.2617 60.1418 99.8281L61.9171 101.386L63.0096 102.377C55.6353 102.235 48.6707 99.9697 42.5255 95.7217C32.1469 88.5001 26.8211 78.4465 25.4555 74.4817C26.2748 74.9065 27.2308 75.3313 28.0501 75.4729C28.3233 75.4729 28.5964 75.6145 28.8695 75.6145C44.9836 78.1633 55.9084 84.8185 61.3708 95.5801C61.3708 95.5801 61.3708 95.5801 61.3708 95.7217C61.3708 95.7217 62.873 98.1289 63.9655 101.102L61.3708 98.2705ZM45.3933 117.67C36.2437 115.404 29.6889 109.882 27.3673 107.191C27.9136 107.191 28.5964 107.191 29.1426 107.191H29.4157C44.5739 103.934 53.9966 108.182 59.3224 112.43C59.459 112.572 59.7321 112.714 60.0052 112.855C60.4149 113.138 60.8246 113.563 61.2343 113.846L60.4149 113.563C59.7321 113.28 59.0493 112.997 58.2299 112.714L57.8203 112.572C57.1375 112.289 56.4547 112.147 55.7719 111.864C53.86 111.298 52.0847 110.731 50.3095 110.306C49.4901 110.023 48.5342 109.882 47.4417 109.598C46.7589 109.457 46.2126 109.315 45.5298 109.174L44.5739 109.032C42.6621 108.749 41.0234 108.466 39.6578 108.182C36.9265 107.758 35.0147 107.616 34.8781 107.616C34.3319 107.616 33.9222 108.041 33.9222 108.466C33.9222 109.032 34.3319 109.457 34.7416 109.457C34.7416 109.457 36.6534 109.598 39.3846 110.023C40.7502 110.165 42.389 110.448 44.1642 110.873L44.9836 111.014C45.5298 111.156 46.2126 111.298 46.8954 111.439C47.9879 111.722 48.8073 111.864 49.6267 112.147C51.4019 112.572 53.1772 113.138 54.9525 113.705C55.6353 113.846 56.3181 114.13 57.0009 114.413L57.4106 114.554C58.2299 114.838 58.9127 115.121 59.5955 115.404L61.3708 116.112L61.644 116.254C58.6396 117.528 52.7675 119.369 45.3933 117.67ZM67.9257 25.9129L68.472 61.4545C63.2827 52.5337 62.873 40.2145 65.058 31.8601C66.5601 25.4881 67.7892 17.5585 68.3354 12.6025C69.8376 18.1249 72.2957 28.1785 73.5247 39.2233C74.4806 47.1529 73.3881 54.3745 70.2472 60.7465L69.701 25.7713C69.701 25.2049 69.2913 24.7801 68.7451 24.7801C68.3354 24.9217 67.9257 25.3465 67.9257 25.9129ZM69.9741 131.971C69.8376 132.679 69.8376 132.821 68.472 132.538C68.0623 132.538 67.6526 132.396 67.2429 132.396C66.9698 132.396 66.9698 132.396 66.8332 132.396C66.9698 131.546 68.0623 124.891 68.7451 119.369C69.2913 115.546 69.5644 108.89 69.701 105.775L69.5644 103.934C69.2913 97.8457 68.8816 91.0489 69.2913 85.8097C69.9741 95.0137 70.5204 101.81 70.6569 102.518C71.7494 108.89 70.3838 129.706 69.9741 131.971ZM119.682 65.7025C114.629 71.5081 106.163 81.2785 97.5593 87.2257C91.2775 91.6153 84.4495 93.7393 77.6215 93.1729C77.8946 92.8897 78.3043 92.6065 78.714 92.1817L80.8989 90.3409C81.4452 89.9161 81.9914 89.4913 82.5377 89.0665C82.8108 88.7833 83.2205 88.5001 83.4936 88.2169C84.1764 87.6505 84.7226 87.2257 85.4054 86.6593C85.6786 86.3761 86.0882 86.2345 86.3614 85.9513C87.0442 85.3849 87.727 84.9601 88.5463 84.3937C88.956 84.1105 89.2291 83.8273 89.6388 83.6857C90.3216 83.1193 91.141 82.6945 91.8238 82.2697C92.2334 81.9865 92.6431 81.7033 93.0528 81.4201C95.5109 79.8625 97.8324 78.4465 99.8808 77.1721C101.793 76.0393 103.841 74.9065 106.026 73.6321C109.577 71.6497 112.035 70.5169 112.171 70.5169C112.581 70.2337 112.854 69.8089 112.581 69.2425C112.308 68.8177 111.898 68.5345 111.352 68.8177C111.352 68.8177 108.757 70.0921 105.207 72.0745C103.022 73.2073 100.973 74.4817 99.0615 75.6145C96.8765 76.8889 94.555 78.3049 92.0969 79.8625C91.6872 80.1457 91.2775 80.4289 90.8678 80.7121C90.0485 81.2785 89.3657 81.7033 88.6829 82.2697C88.2732 82.5529 88.0001 82.8361 87.5904 82.9777C86.9076 83.5441 86.0882 83.9689 85.4054 84.5353C85.1323 84.8185 84.7226 84.9601 84.4495 85.2433C83.7667 85.8097 83.0839 86.2345 82.4011 86.8009C82.128 87.0841 81.7183 87.3673 81.4452 87.5089C80.8989 87.9337 80.2161 88.3585 79.8065 88.9249L77.6215 90.7657C77.3484 90.9073 77.2118 91.1905 77.0753 91.3321C77.8946 88.7833 78.8505 86.9425 78.8505 86.9425C85.6786 73.7737 100.29 69.9505 109.03 67.6849C111.762 66.9769 113.947 66.4105 115.449 65.7025C117.77 64.5697 120.228 63.7201 122.004 63.1537C121.184 63.8617 120.501 64.7113 119.682 65.7025Z" fill="black"/>
</svg>
