<svg width="134" height="172" viewBox="0 0 134 172" fill="none" xmlns="http://www.w3.org/2000/svg">
<path d="M125.723 52.3526C124.889 51.5669 123.82 51.2326 122.986 51.0275C118.756 50.0066 113.838 50.8762 109.129 53.4865C104.954 55.8023 101.408 59.1005 97.9783 62.2915L94.1177 65.8842C95.417 63.9688 96.7229 61.997 97.8907 59.9303C99.2404 57.5388 100.495 54.879 101.84 51.5587C105.443 42.6752 107.1 35.3109 107.056 28.3841C107.027 23.619 105.816 20.2162 103.461 18.2691C101.653 16.7748 99.1236 16.1528 96.5118 16.5698C94.4176 16.9028 92.3048 17.8536 90.0553 19.4731C84.6539 23.3631 81.0348 28.995 77.2087 35.4196C76.147 29.2854 73.2485 23.8048 71.0508 20.0923C66.2253 11.9409 61.3255 6.89374 55.6281 4.20916C53.6308 3.26798 49.8551 2.00756 47.027 4.15687C45.9241 4.99348 45.2075 6.19473 44.6222 7.25425C38.7085 17.9554 37.2752 31.143 40.6501 42.9532C39.0469 41.7726 37.4026 40.6525 35.6906 39.648C28.9089 35.659 22.6369 34.0945 17.0563 34.9958C14.4392 35.4182 12.4724 36.391 11.2103 37.8895C10.2202 39.0646 9.59248 40.6291 9.34166 42.5431C8.6542 47.7953 11.0829 52.8852 13.2766 56.7324C15.8207 61.1976 18.4418 64.8453 21.2899 67.8835C24.0821 70.8626 27.4584 73.6105 31.5221 76.2249C29.5818 75.8795 27.615 75.6153 25.6203 75.4914C18.8851 75.0676 12.7006 76.2785 7.73317 78.9865C7.50225 79.1131 7.36422 79.3663 7.38015 79.6373C7.53144 82.1816 9.45844 84.0928 11.2541 85.6862C13.2726 87.4764 15.5593 89.5046 18.1379 91.0196C25.5911 95.4022 34.4577 95.1751 43.6441 94.516L43.8737 94.4995C48.017 94.2023 52.3023 93.8968 56.4948 94.1528C58.6036 94.2821 60.5531 94.7554 62.3554 95.2577C62.4244 95.3279 62.4854 95.3898 62.5624 95.4668C62.5651 95.4696 62.5677 95.4723 62.5691 95.4737C63.0694 96.0351 63.5817 96.5814 64.1085 97.1057C64.151 97.1566 64.2028 97.2144 64.2386 97.2611C66.5398 100.229 67.21 104.387 67.5365 107.676C68.1152 113.513 68.07 119.43 67.4038 125.259C67.2817 126.328 67.1278 127.657 67.7369 128.783C68.1523 129.553 68.8424 130.066 69.3958 130.478L74.7813 134.496C74.8968 134.581 75.0322 134.625 75.1689 134.625C75.2843 134.625 75.4011 134.595 75.5046 134.531C75.7316 134.392 75.859 134.13 75.8285 133.859L73.9134 116.59C73.2737 110.828 73.007 106.072 75.8059 101.66C76.7588 100.158 78.2691 98.7981 79.7316 97.4827C80.4814 96.8057 81.1834 96.1617 81.8245 95.5012C81.8298 95.4957 81.8377 95.4944 81.8417 95.4902L82.0089 95.3196C82.0103 95.3182 82.0103 95.3155 82.0116 95.3141C82.0461 95.2769 82.0872 95.2426 82.1217 95.2054C82.1337 95.193 82.1337 95.1737 82.1443 95.16C82.4336 94.8408 82.7043 94.5119 82.9592 94.1748C89.2073 91.7558 95.2789 89.0313 101.006 86.0715C103.267 84.9005 105.921 83.475 108.445 81.7784C116.034 76.6803 122.268 69.1701 125.999 60.6293C126.927 58.5075 128.12 54.6134 125.723 52.3526ZM90.8078 20.6056C92.8875 19.1071 94.8184 18.232 96.7096 17.932C98.9525 17.5784 101.11 18.093 102.63 19.3465C104.656 21.0225 105.698 24.0662 105.725 28.3937C105.767 35.1292 104.144 42.3202 100.613 51.0275C99.2909 54.29 98.0606 56.8989 96.7414 59.2354C95.3559 61.6888 93.7541 64.0335 92.2066 66.3025L89.6705 70.0205L86.5782 72.8991C86.0381 73.4013 85.482 73.9214 84.9193 74.4581C84.7627 74.6067 84.6075 74.7663 84.4509 74.919C84.0381 75.3195 83.6254 75.7212 83.2153 76.1423C83.0109 76.3514 82.8172 76.573 82.6154 76.7876C82.2571 77.1688 81.9014 77.5499 81.5564 77.9504C81.344 78.1967 81.1476 78.454 80.9419 78.7072C80.6937 79.0126 80.4323 79.3085 80.1974 79.625L78.1417 78.2407C80.504 70.8612 83.6294 63.7267 87.4515 57.0393C87.5444 56.8783 87.5696 56.6843 87.5205 56.504C87.4727 56.3238 87.3546 56.171 87.1967 56.0816C87.056 56.0032 86.8742 55.5546 86.8609 55.1143C86.8503 54.7923 86.9963 54.4483 87.2471 54.1937C87.5325 53.9075 87.9213 53.7644 88.2823 53.8208C88.6167 53.8745 88.922 54.1359 89.0082 54.4428C89.1197 54.8432 88.9379 55.3427 88.7083 55.9082C88.5663 56.2591 88.7256 56.6623 89.0626 56.8095C89.4011 56.9554 89.7899 56.7916 89.9319 56.4421C90.1721 55.8518 90.5331 54.9602 90.2836 54.0603C90.054 53.2388 89.3321 52.5962 88.4867 52.46C87.7236 52.3334 86.91 52.6113 86.3221 53.2044C85.7979 53.7328 85.5112 54.4442 85.5325 55.1583C85.5497 55.6771 85.697 56.3293 86.0408 56.8095C82.3487 63.3427 79.3202 70.2902 76.999 77.4688L76.8902 77.3958C76.6407 77.228 76.3832 77.0532 76.1164 76.8826C75.4396 76.4478 74.6964 76.0501 73.8948 75.7887L74.2877 69.3848C74.3739 67.9675 74.4642 66.502 74.6739 65.0696C75.2233 61.3407 76.6141 57.7466 77.9598 54.2708L79.9147 49.2222C80.6088 49.1507 81.279 48.6429 81.6068 48.0595C82.0248 47.3234 82.1324 46.4744 81.8988 45.7313C81.6267 44.8617 80.8862 44.2177 80.058 44.1324C79.6294 44.0884 79.2246 44.1902 78.9114 44.4255C78.2823 44.8947 78.1961 45.7176 78.1509 46.1606C78.1125 46.5377 78.3752 46.8775 78.7389 46.9188C79.1012 46.9587 79.4303 46.6863 79.4701 46.3092C79.4927 46.0973 79.5391 45.6543 79.6878 45.5428C79.7236 45.5167 79.8112 45.4933 79.924 45.5015C80.2279 45.5332 80.5278 45.8098 80.6367 46.1579C80.7508 46.5225 80.6858 46.9739 80.4628 47.366C80.2916 47.6701 79.859 47.9164 79.6878 47.849C79.3533 47.732 78.995 47.9082 78.8636 48.2453L76.7296 53.7603C75.356 57.309 73.9373 60.9774 73.364 64.8646C73.145 66.3562 73.0534 67.8533 72.9645 69.3008L72.5836 75.5038C72.5212 75.4983 72.4602 75.4997 72.3978 75.4956C72.2094 75.4818 72.0196 75.4667 71.8338 75.4667C71.8232 75.4667 71.8139 75.4694 71.8033 75.4694C71.3016 75.4708 70.8199 75.5162 70.3673 75.5699C70.3487 75.5726 70.3262 75.5713 70.3089 75.574C70.3195 75.3057 70.3315 75.036 70.3447 74.7677C70.7601 66.8777 71.8869 58.996 72.9738 51.3757C73.3507 48.7324 73.7409 45.9983 74.6221 43.4692C75.2989 41.5235 76.2757 39.6783 77.2578 37.9748C77.3693 37.8771 77.4476 37.7492 77.4781 37.5978C77.7422 37.1451 78.0076 36.6938 78.2651 36.2631C82.0355 29.9211 85.5816 24.3676 90.8078 20.6056ZM81.9306 82.4746C81.932 82.476 81.9346 82.4746 81.9359 82.476C82.4004 82.8352 82.8331 83.2259 83.1649 83.691C83.7223 84.4685 84.0514 85.517 84.1177 86.7237C84.1337 87.0127 84.131 87.3058 84.1164 87.5989C84.1111 87.7089 84.0965 87.819 84.0859 87.9277C84.07 88.1094 84.0527 88.291 84.0248 88.474C84.0036 88.6116 83.9757 88.7492 83.9479 88.8868C83.9173 89.0395 83.8855 89.1923 83.8483 89.345C83.8098 89.4991 83.7661 89.6532 83.7196 89.806C83.6798 89.9381 83.6373 90.0702 83.5909 90.2009C83.5325 90.3674 83.4728 90.5339 83.4051 90.7004C83.3599 90.8132 83.3095 90.9233 83.2604 91.0361C83.1808 91.215 83.0998 91.3953 83.0096 91.5714C82.9658 91.6581 82.9154 91.7434 82.8689 91.8287C82.7627 92.0255 82.6552 92.2209 82.5371 92.4149C82.5278 92.43 82.5159 92.4451 82.5066 92.4603C82.3527 92.7052 82.1907 92.9488 82.0169 93.1868C82.0142 93.1896 82.0156 93.1937 82.0129 93.1978C81.8085 93.4771 81.5896 93.751 81.3586 94.0179C80.987 93.9945 80.6526 94.0041 80.2982 93.9959C79.932 93.9876 79.5497 93.9656 79.2007 93.9725C78.8291 93.9808 78.4894 94.0193 78.1364 94.0468C77.7953 94.0729 77.4396 94.084 77.1171 94.128C76.7442 94.1775 76.4058 94.2628 76.0554 94.3358C75.7913 94.3908 75.5086 94.4293 75.2578 94.4981C74.6739 94.6591 74.1218 94.8531 73.6055 95.0871L71.4901 88.2745C71.4025 87.9897 71.1463 87.797 70.8583 87.797C70.849 87.797 70.8398 87.797 70.8305 87.797C70.5332 87.8108 70.2797 88.0268 70.212 88.3282L68.8517 94.3206C68.6473 94.2271 68.4071 94.1321 68.151 94.0372C68.139 94.0331 68.1284 94.0289 68.1165 94.0248C67.8736 93.9353 67.6122 93.8459 67.3361 93.7578C67.2791 93.74 67.2207 93.7221 67.1623 93.7028C66.9592 93.6395 66.7509 93.5776 66.5372 93.5157C64.8531 93.0299 62.9367 92.6337 61.9387 92.6227C61.8736 92.5401 61.8073 92.4575 61.7423 92.3736C61.4715 92.0296 61.2061 91.6815 60.9433 91.3306C60.8425 91.1957 60.7416 91.0623 60.6407 90.926C60.3143 90.4816 59.9944 90.0344 59.6852 89.5844C59.6613 89.55 59.6361 89.5156 59.6122 89.4812C59.4529 89.2487 59.2817 88.9818 59.1105 88.6983C59.0813 88.6501 59.0535 88.5978 59.0256 88.5497C58.8743 88.291 58.7257 88.0185 58.5837 87.731C58.5624 87.6883 58.5425 87.6457 58.5213 87.6016C58.1948 86.9178 57.9174 86.1706 57.7834 85.4083C57.7808 85.3918 57.7688 85.3794 57.7648 85.3629C57.7529 85.2941 57.7529 85.2294 57.7436 85.162C57.7157 84.9473 57.6945 84.7327 57.6932 84.5208C57.6932 84.4272 57.7025 84.3391 57.7078 84.2483C57.7197 84.0502 57.7449 83.8534 57.7861 83.6608C57.8046 83.5768 57.8219 83.4929 57.8458 83.4117C57.9228 83.1489 58.0196 82.8902 58.1656 82.6439C58.6009 81.9077 59.3295 81.3532 60.0528 80.8647C61.7343 79.7268 63.6414 78.787 65.7183 78.0742C65.7502 78.0632 65.7741 78.037 65.8033 78.0219C67.0481 77.5995 68.3222 77.2816 69.6135 77.0725C69.644 77.0725 69.6732 77.0835 69.7051 77.078C69.8179 77.0601 69.9307 77.0367 70.0421 77.0119C70.1443 76.9899 70.2479 76.9679 70.3487 76.9541C71.2114 76.8441 72.22 76.7587 73.1516 76.9872C74.2266 77.2472 75.21 77.9105 76.1616 78.5503L79.989 81.1275L80.8079 81.6779C81.1914 81.9311 81.5696 82.1953 81.9306 82.4746ZM45.7742 7.93812C46.2917 7.00107 46.9182 5.9443 47.8113 5.26731C50.1789 3.4675 53.6839 4.80359 55.08 5.4627C60.5253 8.02894 65.2393 12.9069 69.9174 20.8147C72.2439 24.7473 75.3905 30.7068 76.1337 37.24C75.1145 39.0082 74.0939 40.9346 73.3733 43.0013C72.4482 45.6612 72.0488 48.4641 71.6626 51.1734C70.8663 56.7407 70.0581 62.447 69.5126 68.2055C68.9486 64.5385 67.936 61.0132 66.9313 57.8016C66.6845 57.0131 66.4337 56.2247 66.1815 55.4376C65.3215 52.7448 64.4324 49.9625 63.7489 47.1775C63.2605 45.1864 62.9168 43.3564 62.6991 41.5813C62.6845 41.463 62.6752 41.346 62.6673 41.2318C62.6261 40.6883 62.5704 39.9439 61.8551 39.4458C61.4662 39.1747 61.0429 39.1169 60.7018 39.0701C60.3302 39.0192 60.1112 38.982 59.9281 38.8018C59.518 38.3959 59.3189 37.7437 59.4184 37.141C59.4516 36.9414 59.51 36.7681 59.5923 36.6291C59.8644 36.1654 60.5332 35.9452 61.0827 36.142C61.644 36.3401 62.1046 36.9098 62.2545 37.595C62.3355 37.9666 62.6925 38.1977 63.0495 38.1124C63.4065 38.0271 63.6308 37.6597 63.5485 37.2882C63.2937 36.131 62.512 35.1925 61.5087 34.8389C60.3673 34.4344 59.0561 34.8995 58.4589 35.9122C58.289 36.2012 58.1723 36.5355 58.1099 36.9084C57.9347 37.9679 58.2798 39.0729 59.0123 39.798C59.518 40.2961 60.1019 40.3773 60.5279 40.4351C60.7734 40.4681 60.9831 40.4984 61.1145 40.5892C61.2791 40.7034 61.307 40.8438 61.3441 41.3405C61.3547 41.4754 61.3653 41.6143 61.3826 41.7561C61.6069 43.5875 61.9599 45.4726 62.4629 47.5188C63.157 50.3506 64.0541 53.1576 64.9207 55.8724C65.1702 56.6568 65.4211 57.4425 65.6679 58.2282C67.3295 63.5368 69.0402 69.6999 68.5332 75.8671C67.7236 76.0281 66.9207 76.2304 66.1298 76.4725C65.7515 67.2754 63.1716 58.2777 58.5943 50.3671C58.5983 50.3492 58.6023 50.334 58.6062 50.3162C58.6832 49.9722 58.4496 49.5497 58.1271 49.4369C57.7516 49.3007 57.3348 49.4864 57.1769 49.8497C57.1451 49.9226 57.1225 49.9969 57.1105 50.0726C57.007 50.1098 56.861 50.1524 56.654 50.1868C56.4284 50.2212 56.1842 50.1304 56.0382 49.957C55.875 49.763 55.794 49.4465 55.7423 49.1906C55.6666 48.8191 55.583 48.1503 55.8803 47.8311C56.0555 47.6412 56.3966 47.5463 56.8956 47.5463C56.9831 47.549 57.0734 47.5559 57.1265 47.5697C57.2167 47.8545 57.51 48.0499 57.7808 48.043C58.147 48.0292 58.4337 47.71 58.4204 47.3302C58.3979 46.6546 57.794 46.1772 56.9566 46.1703C56.0528 46.1593 55.3786 46.3904 54.9261 46.8762C54.5465 47.2848 54.155 48.0664 54.4457 49.4795C54.5306 49.8965 54.6753 50.429 55.0389 50.8624C55.4888 51.3991 56.1895 51.6633 56.8677 51.5449C57.149 51.4981 57.3972 51.4321 57.6122 51.3468C61.6268 58.3726 64.0382 66.2791 64.6845 74.4058C64.5266 74.1044 64.3673 73.8031 64.2081 73.5018L62.723 70.6754C57.6228 61.0311 52.942 54.3066 47.5446 48.8672C45.9414 47.2518 44.2387 45.7492 42.4709 44.3374C38.5147 32.4433 39.7397 18.8567 45.7742 7.93812ZM22.2414 66.9217C19.4677 63.9647 16.909 60.4009 14.4193 56.0321C12.3357 52.376 10.0238 47.56 10.6568 42.7275C10.8679 41.108 11.4054 39.7485 12.2083 38.7949C13.2594 37.5469 14.9581 36.7268 17.2593 36.3566C22.54 35.5021 28.5188 37.0144 35.035 40.8452C37.2739 42.1606 39.4145 43.6439 41.4596 45.2621C41.5088 45.3144 41.5539 45.3584 41.6149 45.3915C43.3588 46.7812 45.0363 48.2618 46.6169 49.8538C51.9148 55.1927 56.5226 61.8181 61.5565 71.3359L63.0402 74.1581C63.5392 75.1103 64.0382 76.0611 64.5398 77.0106C62.8411 77.6545 61.2127 78.4911 59.6839 79.4874C54.9194 71.8203 50.0011 64.599 42.8545 59.9922C42.8478 59.9316 42.8332 59.8739 42.8107 59.8202C42.6846 59.5106 42.3541 59.3056 42.0184 59.3482C41.7782 59.3702 41.5207 59.567 41.4052 59.8009C41.3561 59.8133 41.3123 59.8257 41.2725 59.8381C40.7111 60.0362 40.1498 60.0238 39.7304 59.8106C39.319 59.6028 39.039 59.1473 39.0788 58.7497C39.1173 58.3492 39.5127 58.008 39.9109 58.0121C40.2984 58.0341 40.6647 58.4346 40.6647 58.8377C40.6647 59.2161 40.962 59.5257 41.3283 59.5257C41.6945 59.5257 41.9918 59.2175 41.9918 58.8377C41.9918 57.7066 41.0721 56.698 39.9812 56.6389C38.8797 56.5522 37.8711 57.481 37.7583 58.6093C37.6614 59.5794 38.2321 60.5811 39.1465 61.0462C39.887 61.4219 40.7894 61.4576 41.6932 61.1411C41.741 61.1246 41.8047 61.1136 41.8697 61.1012C41.9162 61.0916 41.964 61.082 42.0144 61.0723C49.0031 65.5182 53.8617 72.661 58.5797 80.2552C57.9918 80.712 57.4384 81.2404 57.0349 81.9215C56.8916 82.165 56.7788 82.421 56.6806 82.6838C56.6607 82.7375 56.6421 82.7925 56.6235 82.8462C56.4669 83.3168 56.3727 83.8121 56.3581 84.3391C56.297 84.3075 56.2333 84.2813 56.1723 84.2497C55.2167 83.7543 54.2479 83.2934 53.2712 82.8599C53.1278 82.7966 52.9871 82.7347 52.8438 82.6728C51.8684 82.249 50.8916 81.8527 49.9175 81.4826C49.7848 81.4316 49.6534 81.3849 49.5207 81.3339C48.5346 80.9652 47.5565 80.6171 46.5983 80.2937C46.5054 80.262 46.4178 80.2345 46.3249 80.2029C45.3349 79.8726 44.3608 79.5589 43.4251 79.2672C40.8664 78.4705 38.2108 77.6958 35.4849 77.0463C30.0078 73.8953 25.6734 70.5819 22.2414 66.9217ZM56.5731 92.7781C52.297 92.5181 47.9679 92.8263 43.7835 93.1249L43.5539 93.1414C34.5718 93.7826 25.9242 94.011 18.7935 89.8225C16.3264 88.3722 14.0915 86.3894 12.1193 84.6391C10.5799 83.2727 9.06561 81.7935 8.75639 79.9868C13.4385 77.5472 19.2315 76.4698 25.5407 76.8619C28.7882 77.0642 31.9812 77.627 35.0881 78.3632C35.096 78.3659 35.1027 78.37 35.1093 78.3714C37.461 78.9287 39.9839 79.6318 43.0482 80.5854C46.2506 81.583 49.8458 82.7884 53.3335 84.3804C53.4954 84.4547 53.6534 84.5455 53.8166 84.6212C54.7403 85.0533 55.656 85.5087 56.5518 86.0013C56.5571 86.0234 56.5651 86.0426 56.5704 86.0633C56.6514 86.4183 56.7589 86.7802 56.8929 87.1517C56.9181 87.2191 56.9433 87.2838 56.9699 87.3512C57.0721 87.6154 57.1809 87.881 57.3083 88.1534C57.3083 88.1534 57.3096 88.1548 57.3096 88.1562L57.3149 88.1685C57.3149 88.1699 57.3163 88.1713 57.3176 88.174V88.1754V88.1768C57.3176 88.1768 57.3176 88.1768 57.3176 88.1782C57.3176 88.1782 57.3176 88.1782 57.3176 88.1795C57.3189 88.1809 57.3202 88.1809 57.3202 88.1837C57.3309 88.2071 57.3455 88.2305 57.3561 88.2538C57.4198 88.3873 57.4848 88.5112 57.5525 88.6391C57.6626 88.8483 57.7715 89.0561 57.8962 89.268C58.1125 89.6395 58.3289 89.9849 58.5319 90.2807C58.9287 90.8586 59.3375 91.4283 59.7529 91.9897C59.8511 92.1218 59.9533 92.2497 60.0528 92.3818C60.3249 92.7424 60.5969 93.1056 60.8716 93.4524C59.5246 93.129 58.094 92.8717 56.5731 92.7781ZM78.8596 96.4424C77.3308 97.8184 75.7488 99.2412 74.6951 100.903C71.652 105.7 71.9227 110.703 72.5929 116.747L74.3368 132.469L70.1696 129.359C69.6997 129.008 69.1649 128.612 68.8929 128.108C68.496 127.375 68.6102 126.381 68.7203 125.421C69.3985 119.49 69.4436 113.472 68.8557 107.536C68.5106 104.057 67.7913 99.6471 65.2724 96.397C64.8504 95.8521 64.1563 95.1545 63.4861 94.4775C63.4171 94.4073 63.3401 94.3303 63.2645 94.2546C63.2512 94.2353 63.2539 94.2078 63.2366 94.1899C63.2207 94.172 63.2048 94.1514 63.1888 94.1335C63.936 94.2683 64.865 94.4789 65.7529 94.7142C65.7714 94.7197 65.79 94.7238 65.8086 94.7293C66.0687 94.7981 66.3222 94.8697 66.5677 94.9412C66.6951 94.9784 66.8212 95.0155 66.942 95.0527C67.0242 95.0788 67.1052 95.1036 67.1848 95.1297C67.3852 95.1944 67.5803 95.2591 67.7528 95.321C67.7555 95.3224 67.7582 95.3224 67.7608 95.3237C67.9413 95.3898 68.0966 95.4531 68.2359 95.515C68.2638 95.5274 68.2903 95.5398 68.3155 95.5508C68.4483 95.6127 68.5624 95.6732 68.6394 95.7283C68.7124 95.9429 68.8862 96.1163 69.1145 96.1713C69.4768 96.2677 69.8285 96.0282 69.9121 95.6595L70.9592 91.0485L72.577 96.258C72.6367 96.4521 72.776 96.6089 72.9592 96.686C72.9725 96.6915 72.9871 96.6887 73.0003 96.6929C73.068 96.7176 73.1384 96.7355 73.2087 96.7355C73.214 96.7355 73.2193 96.7314 73.2246 96.7314C73.3268 96.7286 73.4277 96.7066 73.5206 96.6543C73.9824 96.3998 74.4881 96.1892 75.0242 96.009C75.1928 95.9512 75.3812 95.9127 75.5577 95.8631C75.9426 95.7544 76.3381 95.6553 76.7601 95.5824C76.987 95.5425 77.2273 95.515 77.4661 95.4861C77.8736 95.4352 78.2969 95.398 78.7375 95.3774C79.0109 95.365 79.287 95.3554 79.5723 95.354C79.7209 95.3526 79.8842 95.365 80.0368 95.3678C79.6612 95.72 79.2671 96.0764 78.8596 96.4424ZM124.792 60.061C121.163 68.3638 115.102 75.6662 107.725 80.6212C105.255 82.282 102.643 83.6869 100.414 84.8386C95.2444 87.5108 89.7926 89.9917 84.1814 92.225C84.4004 91.7971 84.5862 91.3609 84.7508 90.9219C84.784 90.8352 84.8079 90.7472 84.8384 90.6591C84.9552 90.3206 85.0574 89.9807 85.141 89.6395C85.1728 89.5088 85.202 89.378 85.2286 89.2459C85.2936 88.9322 85.3414 88.6185 85.3772 88.3048C85.3918 88.1782 85.4104 88.0516 85.421 87.925C85.4542 87.4957 85.4661 87.0677 85.4422 86.6439C85.3613 85.1689 84.9432 83.863 84.2306 82.8709C83.8045 82.2751 83.2737 81.7963 82.7243 81.3725C82.3274 81.0656 81.9227 80.7849 81.5378 80.5249L81.3361 80.3886C81.5418 80.1148 81.7528 79.8451 81.9691 79.5782C82.1801 79.3181 82.3858 79.0539 82.6048 78.8007C82.9167 78.443 83.2392 78.0976 83.563 77.7522C83.7806 77.5197 83.9943 77.2803 84.2146 77.0546C84.5663 76.6954 84.9207 76.3501 85.275 76.0061C85.4754 75.8107 85.6758 75.6084 85.8749 75.4171C86.4137 74.9039 86.9485 74.4044 87.4661 73.9228L90.6141 70.9933C90.6141 70.9933 90.6141 70.9933 90.6154 70.9919L98.8635 63.3166C102.234 60.1807 105.721 56.9361 109.753 54.7001C114.179 52.2467 118.768 51.417 122.682 52.3678C123.362 52.5343 124.221 52.7971 124.832 53.3709C126.672 55.1074 125.417 58.6286 124.792 60.061Z" fill="black"/>
</svg>
