<svg width="67" height="85" viewBox="0 0 67 85" fill="none" xmlns="http://www.w3.org/2000/svg">
<path fill-rule="evenodd" clip-rule="evenodd" d="M18.8429 6.25129H22.0017C23.6772 6.25129 25.2841 5.66452 26.4688 4.62005C27.6536 3.57559 28.3192 2.15898 28.3192 0.681885H25.1604C25.1604 1.42043 24.8276 2.12874 24.2352 2.65097C23.6429 3.1732 22.8394 3.46659 22.0017 3.46659H18.8429C17.1674 3.46659 15.5606 4.05336 14.3758 5.09783C13.1911 6.1423 12.5255 7.5589 12.5255 9.036H15.6842C15.6842 8.29745 16.017 7.58915 16.6094 7.06692C17.2018 6.54468 18.0052 6.25129 18.8429 6.25129ZM54.4008 13.8087C54.3898 13.7373 54.3844 13.6652 54.3846 13.593V12.0741H46.3131V13.593C46.3133 13.6652 46.3079 13.7373 46.2969 13.8087L44.9458 22.7066H55.752L54.4008 13.8087ZM24.1651 27.0724V25.7445H22.5781H8.29581H6.70889V29.5418L17.8174 27.9705L24.1651 27.0724ZM18.629 63.7181H16.685L23.6963 70.3072V67.5456H26.9095V73.3269L31.2313 77.3885L31.6474 75.779C31.5943 72.5657 30.1999 69.5008 27.7647 67.2447C25.3295 64.9886 22.0486 63.7221 18.629 63.7181ZM18.376 72.4105V75.3475L24.7038 75.3372L29.1492 79.2875L27.3875 79.6664C23.8713 79.6183 20.5172 78.3444 18.0479 76.1194C15.5786 73.8944 14.192 70.8964 14.1867 67.7715V65.996L21.4036 72.4105H18.376ZM31.644 32.8177V28.7832L25.6092 29.7839L20.2694 30.6694L0.0566406 34.0185V37.1373H31.644V32.8177ZM59.0751 25.7445V27.0724L52.7274 27.9705L41.619 29.5418V25.7445H43.2059H57.4882H59.0751ZM19.4682 13.593C19.468 13.6652 19.4734 13.7373 19.4844 13.8087L20.8355 22.7066H10.0293L11.3805 13.8087C11.3915 13.7373 11.3969 13.6652 11.3967 13.593V12.0741H19.4682V13.593ZM0.0566406 40.1754V44.5117H6.38995V47.4025H0.0566406V50.2934H6.38995V53.1843H0.0566406V56.0751H6.38995V58.966H0.0566406V61.8569H6.38995V64.7477H0.0566406V67.6386H6.38995V70.5295H0.0566406V73.4203H6.38995V76.3112H0.0566406V79.2021H9.5566V82.0929H0.0566406V84.9838H66.5564V40.1754H0.0566406ZM38.4666 47.1929C40.5649 49.1138 42.036 51.53 42.715 54.171C43.394 56.812 43.2541 59.5734 42.3109 62.1459C44.1701 61.4728 46.1517 61.1261 48.1518 61.124H53.8898C54.3097 61.124 54.7124 61.2763 55.0093 61.5474C55.3063 61.8185 55.4731 62.1861 55.4731 62.5695V67.8063C55.4668 71.6764 53.78 75.3863 50.7823 78.1229C47.7847 80.8595 43.7208 82.3994 39.4815 82.4051C39.3561 82.4055 39.2312 82.3919 39.1094 82.3647L34.4908 81.3427C34.2152 81.2811 33.9627 81.1528 33.7599 80.9715C33.5571 80.7902 33.4115 80.5625 33.3382 80.3122C33.265 80.5623 33.1196 80.7899 32.9171 80.9712C32.7146 81.1525 32.4625 81.2808 32.1871 81.3427L27.5685 82.3647C27.4467 82.3918 27.3218 82.4054 27.1964 82.4051C22.9571 82.3994 18.8933 80.8595 15.8956 78.1229C12.898 75.3863 11.2111 71.6764 11.2048 67.8063V62.5651C11.2048 62.1818 11.3717 61.8141 11.6686 61.543C11.9655 61.272 12.3682 61.1197 12.7882 61.1197H18.5262C20.4858 61.1222 22.4281 61.4559 24.2546 62.104C23.3175 59.5367 23.1821 56.7818 23.8636 54.1481C24.5451 51.5144 26.0166 49.106 28.1132 47.1929L32.1713 43.4897C32.4682 43.2188 32.8708 43.0665 33.2907 43.0665C33.7105 43.0665 34.1132 43.2188 34.4101 43.4897L38.4666 47.1929ZM34.9675 47.7698L36.2897 49.039C38.6147 51.273 39.931 54.2936 39.9547 57.4495C39.9784 60.6054 38.7077 63.6439 36.4165 65.9098L34.9675 66.7564V61.1146L39.1583 57.1008L36.967 55.0041L34.9675 56.9213V47.7698ZM60.5201 29.7824L55.1803 30.6679L34.9675 34.017V37.1358H66.5549V28.7817L60.5201 29.7824ZM30.1943 65.9083C27.9186 63.671 26.6482 60.6641 26.6569 57.5352C26.6532 55.9563 26.9754 54.3924 27.6048 52.934C28.2343 51.4757 29.1585 50.1518 30.3239 49.039L31.6444 47.7698V56.9213L29.6497 55.0041L27.4638 57.1082L31.6398 61.122V66.7564L30.1943 65.9083ZM48.4657 72.4057V75.3405H42.4918L38.2922 79.2878L39.9573 79.6664C43.2787 79.6183 46.4468 78.3448 48.7788 76.1205C51.1107 73.8962 52.4197 70.8994 52.4234 67.776V65.996L45.6129 72.3998L48.4657 72.4057ZM36.196 77.3885L35.8045 75.779C35.8543 72.5656 37.1711 69.5004 39.4711 67.2442C41.7711 64.9881 44.87 63.7217 48.0997 63.7181H49.9357L43.3139 70.3072V67.5456H40.2792V73.3269L36.196 77.3885ZM57.4147 6.25129H54.0898C53.2079 6.25129 52.3622 6.54468 51.7386 7.06692C51.1151 7.58915 50.7648 8.29745 50.7648 9.036H47.4398C47.4398 7.5589 48.1404 6.1423 49.3875 5.09783C50.6346 4.05336 52.3261 3.46659 54.0898 3.46659H57.4147C58.2966 3.46659 59.1423 3.1732 59.7659 2.65097C60.3894 2.12874 60.7397 1.42043 60.7397 0.681885H64.0647C64.0647 2.15898 63.3641 3.57559 62.117 4.62005C60.8699 5.66452 59.1784 6.25129 57.4147 6.25129Z" fill="#140E15"/>
</svg>
