<svg width="95" height="111" viewBox="0 0 95 111" fill="none" xmlns="http://www.w3.org/2000/svg">
<path d="M48.3468 79.5049C43.8098 79.5963 39.404 77.7754 35.9815 74.3944C35.554 73.9217 35.3059 73.2785 35.2899 72.6015C35.2739 71.9245 35.4913 71.267 35.8958 70.7691C36.3003 70.2711 36.8601 69.9718 37.4561 69.9349C38.0521 69.8979 38.6372 70.1263 39.0872 70.5713C41.6633 73.0669 44.9605 74.3958 48.3468 74.3034C51.7331 74.3958 55.0303 73.0669 57.6065 70.5713C57.8259 70.3287 58.0859 70.1385 58.3712 70.0119C58.6565 69.8853 58.9613 69.8249 59.2675 69.8342C59.5737 69.8435 59.8752 69.9224 60.1541 70.0662C60.433 70.21 60.6837 70.4157 60.8913 70.6713C61.0989 70.9269 61.2593 71.2271 61.3629 71.5542C61.4666 71.8813 61.5113 72.2287 61.4946 72.5758C61.4779 72.9229 61.4001 73.2626 61.2657 73.575C61.1313 73.8874 60.9431 74.166 60.7122 74.3944C57.2897 77.7754 52.8839 79.5963 48.3468 79.5049Z" fill="black"/>
<path d="M54.2476 52.4189C53.9339 52.4183 53.6234 52.3552 53.3348 52.2332C51.7509 51.6511 50.084 51.322 48.3961 51.258C46.7221 51.2911 45.0668 51.6133 43.5043 52.21C42.9378 52.4625 42.2935 52.4814 41.7129 52.2626C41.1324 52.0437 40.6633 51.6051 40.4088 51.0432C40.1543 50.4812 40.1352 49.842 40.3558 49.2661C40.5764 48.6902 41.0185 48.2249 41.585 47.9724C43.7507 47.1041 46.0604 46.6435 48.3961 46.614C50.7115 46.6793 52.9989 47.1347 55.1605 47.9608C55.6564 48.1704 56.0643 48.5434 56.3151 49.0168C56.5659 49.4903 56.6442 50.0351 56.5369 50.5592C56.4296 51.0833 56.1432 51.5546 55.7261 51.8935C55.309 52.2323 54.7867 52.4179 54.2476 52.4189Z" fill="black"/>
<path d="M23.7828 78.5409C23.2501 78.542 22.7323 78.3518 22.3115 78.0005C20.3017 76.3245 18.7925 74.0519 17.9704 71.4634C17.1482 68.875 17.0491 66.0842 17.6853 63.4358C18.3216 60.7875 19.6652 58.3976 21.5503 56.5616C23.4354 54.7256 25.7792 53.5239 28.2923 53.1049L34.7515 14.031C34.9871 10.2862 36.5314 6.776 39.0743 4.2056C41.6171 1.6352 44.97 0.194999 48.4594 0.174316C49.0939 0.174316 49.7024 0.44542 50.1511 0.927987C50.5997 1.41055 50.8517 2.06506 50.8517 2.74751C50.8517 3.42996 50.5997 4.08446 50.1511 4.56703C49.7024 5.0496 49.0939 5.3207 48.4594 5.3207C46.1611 5.33306 43.9537 6.2875 42.2868 7.98954C40.62 9.69158 39.6191 12.0132 39.4883 14.4813C39.494 14.5798 39.494 14.6786 39.4883 14.7772L32.6822 55.9483C32.5828 56.5501 32.2875 57.0942 31.8491 57.4832C31.4108 57.8721 30.858 58.0806 30.2898 58.0712C28.5696 58.0655 26.8909 58.6399 25.4898 59.7134C24.0887 60.787 23.0356 62.3059 22.4786 64.0566C21.9215 65.8072 21.8885 67.7016 22.3842 69.4735C22.8799 71.2454 23.8793 72.8056 25.2421 73.9349C25.6364 74.2641 25.9251 74.7176 26.0678 75.2321C26.2105 75.7465 26.2 76.2961 26.0378 76.8038C25.8757 77.3116 25.5699 77.752 25.1634 78.0635C24.7568 78.375 24.2699 78.5419 23.7708 78.5409H23.7828Z" fill="black"/>
<path d="M72.2729 78.5409C71.7823 78.5419 71.3037 78.375 70.9041 78.0635C70.5045 77.752 70.2039 77.3115 70.0445 76.8038C69.8851 76.2961 69.8748 75.7465 70.0151 75.232C70.1553 74.7176 70.4391 74.264 70.8267 73.9349C72.1623 72.8089 73.1429 71.2545 73.6317 69.4889C74.1204 67.7232 74.0928 65.8346 73.5527 64.087C73.0125 62.3393 71.9869 60.8201 70.6191 59.7415C69.2513 58.6629 67.6097 58.0789 65.9237 58.0711C65.3652 58.0806 64.8219 57.8721 64.391 57.4831C63.9601 57.0942 63.6699 56.5501 63.5722 55.9483L56.882 14.7772C56.8764 14.6786 56.8764 14.5798 56.882 14.4813C56.8149 12.0327 55.881 9.70848 54.2773 7.99927C52.6736 6.29006 50.5257 5.32961 48.2871 5.3207C47.6634 5.3207 47.0653 5.0496 46.6243 4.56703C46.1833 4.08446 45.9355 3.42996 45.9355 2.74751C45.9355 2.06506 46.1833 1.41055 46.6243 0.927987C47.0653 0.44542 47.6634 0.174316 48.2871 0.174316C51.6942 0.183416 54.9677 1.62572 57.43 4.20268C59.8922 6.77964 61.3546 10.2939 61.5146 14.0181L67.8638 53.092C70.334 53.511 72.6379 54.7127 74.4909 56.5487C76.3438 58.3847 77.6646 60.7746 78.29 63.4229C78.9154 66.0713 78.818 68.8621 78.0098 71.4505C77.2017 74.039 75.7182 76.3116 73.7426 77.9876C73.3242 78.349 72.806 78.5441 72.2729 78.5409Z" fill="black"/>
<path d="M66.4097 104.663C64.0213 104.66 61.7315 103.654 60.0426 101.865C58.3537 100.076 57.4035 97.6516 57.4004 95.1222C57.4004 90.2329 63.3043 81.3671 64.4851 79.5789C64.7013 79.2614 64.9849 79.0021 65.313 78.8218C65.6412 78.6415 66.0047 78.5454 66.3743 78.541C66.7424 78.545 67.105 78.6357 67.4359 78.8066C67.7668 78.9774 68.0576 79.2242 68.2872 79.5289C70.1741 82.1927 71.8712 85.0015 73.3645 87.932C74.5145 90.1511 75.2143 92.6001 75.4191 95.1222C75.4159 97.6516 74.4657 100.076 72.7768 101.865C71.0879 103.654 68.7982 104.66 66.4097 104.663ZM66.4097 85.4436C64.2489 89.0199 62.0881 93.259 62.0881 95.1222C62.0881 96.326 62.5397 97.4806 63.3435 98.3319C64.1473 99.1831 65.2375 99.6614 66.3743 99.6614C67.5111 99.6614 68.6013 99.1831 69.4051 98.3319C70.209 97.4806 70.6605 96.326 70.6605 95.1222C70.4799 93.3952 69.974 91.7241 69.1727 90.2079C68.3441 88.5696 67.4336 86.9792 66.4452 85.4436H66.4097Z" fill="black"/>
<path d="M26.3476 92.4082H22.4179C22.2541 91.8134 22.034 91.2385 21.761 90.6925L24.544 87.6868C24.7659 87.4471 24.942 87.1625 25.0621 86.8493C25.1822 86.5362 25.244 86.2005 25.244 85.8615C25.244 85.5225 25.1822 85.1868 25.0621 84.8736C24.942 84.5604 24.7659 84.2759 24.544 84.0362C24.322 83.7964 24.0585 83.6063 23.7686 83.4766C23.4786 83.3468 23.1678 83.2801 22.8539 83.2801C22.54 83.2801 22.2292 83.3468 21.9392 83.4766C21.6492 83.6063 21.3857 83.7964 21.1638 84.0362L18.3808 87.0418C17.8752 86.747 17.3429 86.5092 16.7922 86.3323V82.0883C16.7922 81.404 16.5405 80.7478 16.0925 80.264C15.6445 79.7801 15.0369 79.5083 14.4034 79.5083C13.7698 79.5083 13.1622 79.7801 12.7142 80.264C12.2662 80.7478 12.0145 81.404 12.0145 82.0883V86.3323C11.4638 86.5092 10.9315 86.747 10.4259 87.0418L7.64294 84.0362C7.19469 83.552 6.58674 83.2801 5.95283 83.2801C5.31892 83.2801 4.71097 83.552 4.26273 84.0362C3.81448 84.5203 3.56266 85.1769 3.56266 85.8615C3.56266 86.5461 3.81448 87.2027 4.26273 87.6868L7.04573 90.6925C6.77275 91.2385 6.55261 91.8134 6.38879 92.4082H2.45915C1.82559 92.4082 1.21798 92.68 0.769988 93.1638C0.321994 93.6476 0.0703125 94.3039 0.0703125 94.9881C0.0703125 95.6724 0.321994 96.3286 0.769988 96.8124C1.21798 97.2963 1.82559 97.5681 2.45915 97.5681H6.38879C6.55261 98.1628 6.77275 98.7378 7.04573 99.2838L4.26273 102.289C4.04078 102.529 3.86472 102.814 3.7446 103.127C3.62449 103.44 3.56266 103.776 3.56266 104.115C3.56266 104.454 3.62449 104.789 3.7446 105.103C3.86472 105.416 4.04078 105.7 4.26273 105.94C4.48467 106.18 4.74816 106.37 5.03815 106.5C5.32814 106.629 5.63895 106.696 5.95283 106.696C6.26671 106.696 6.57752 106.629 6.86751 106.5C7.1575 106.37 7.42099 106.18 7.64294 105.94L10.4259 102.934C10.9315 103.229 11.4638 103.467 12.0145 103.644V107.888C12.0145 108.572 12.2662 109.228 12.7142 109.712C13.1622 110.196 13.7698 110.468 14.4034 110.468C15.0369 110.468 15.6445 110.196 16.0925 109.712C16.5405 109.228 16.7922 108.572 16.7922 107.888V103.644C17.3429 103.467 17.8752 103.229 18.3808 102.934L21.1638 105.94C21.612 106.424 22.22 106.696 22.8539 106.696C23.4878 106.696 24.0957 106.424 24.544 105.94C24.9922 105.456 25.244 104.799 25.244 104.115C25.244 103.43 24.9922 102.774 24.544 102.289L21.761 99.2838C22.034 98.7378 22.2541 98.1628 22.4179 97.5681H26.3476C26.9811 97.5681 27.5887 97.2963 28.0367 96.8124C28.4847 96.3286 28.7364 95.6724 28.7364 94.9881C28.7364 94.3039 28.4847 93.6476 28.0367 93.1638C27.5887 92.68 26.9811 92.4082 26.3476 92.4082ZM17.9866 94.9881C17.9866 95.7535 17.7765 96.5017 17.3827 97.1382C16.989 97.7746 16.4294 98.2706 15.7746 98.5635C15.1199 98.8564 14.3994 98.933 13.7043 98.7837C13.0092 98.6344 12.3707 98.2658 11.8696 97.7246C11.3685 97.1834 11.0272 96.4938 10.8889 95.7431C10.7507 94.9924 10.8216 94.2143 11.0929 93.5072C11.3641 92.8 11.8233 92.1956 12.4126 91.7704C13.0019 91.3451 13.6947 91.1182 14.4034 91.1182C15.3537 91.1182 16.2651 91.5259 16.9371 92.2517C17.6091 92.9774 17.9866 93.9618 17.9866 94.9881Z" fill="black"/>
<path d="M94.2576 18.0737C94.2576 17.4001 94.0096 16.7541 93.568 16.2779C93.1264 15.8016 92.5274 15.534 91.9029 15.534H90.5254L91.5026 14.4801C91.9445 14.0035 92.1927 13.3572 92.1927 12.6832C92.1927 12.0093 91.9445 11.363 91.5026 10.8864C91.0608 10.4099 90.4615 10.1422 89.8367 10.1422C89.2118 10.1422 88.6125 10.4099 88.1707 10.8864L87.1935 11.9404V10.4547C87.1935 9.78114 86.9454 9.13517 86.5038 8.65889C86.0622 8.18261 85.4633 7.91504 84.8388 7.91504C84.2143 7.91504 83.6153 8.18261 83.1737 8.65889C82.7321 9.13517 82.4841 9.78114 82.4841 10.4547V11.9404L81.5069 10.8864C81.2881 10.6505 81.0284 10.4633 80.7425 10.3356C80.4567 10.2079 80.1503 10.1422 79.8409 10.1422C79.5315 10.1422 79.2251 10.2079 78.9393 10.3356C78.6534 10.4633 78.3937 10.6505 78.1749 10.8864C77.9562 11.1224 77.7826 11.4025 77.6642 11.7108C77.5458 12.0191 77.4849 12.3495 77.4849 12.6832C77.4849 13.0169 77.5458 13.3474 77.6642 13.6557C77.7826 13.964 77.9562 14.2441 78.1749 14.4801L79.1521 15.534H77.7746C77.1501 15.534 76.5512 15.8016 76.1096 16.2779C75.668 16.7541 75.4199 17.4001 75.4199 18.0737C75.4199 18.7472 75.668 19.3932 76.1096 19.8695C76.5512 20.3458 77.1501 20.6133 77.7746 20.6133H79.1521L78.1749 21.6673C77.9562 21.9033 77.7826 22.1834 77.6642 22.4917C77.5458 22.8 77.4849 23.1304 77.4849 23.4641C77.4849 23.7978 77.5458 24.1282 77.6642 24.4365C77.7826 24.7448 77.9562 25.0249 78.1749 25.2609C78.3937 25.4969 78.6534 25.684 78.9393 25.8117C79.2251 25.9394 79.5315 26.0052 79.8409 26.0052C80.1503 26.0052 80.4567 25.9394 80.7425 25.8117C81.0284 25.684 81.2881 25.4969 81.5069 25.2609L82.4841 24.2069V25.6926C82.4841 26.3662 82.7321 27.0122 83.1737 27.4885C83.6153 27.9647 84.2143 28.2323 84.8388 28.2323C85.4633 28.2323 86.0622 27.9647 86.5038 27.4885C86.9454 27.0122 87.1935 26.3662 87.1935 25.6926V24.2069L88.1707 25.2609C88.6125 25.7375 89.2118 26.0052 89.8367 26.0052C90.4615 26.0052 91.0608 25.7375 91.5026 25.2609C91.9445 24.7844 92.1927 24.138 92.1927 23.4641C92.1927 22.7902 91.9445 22.1438 91.5026 21.6673L90.5254 20.6133H91.9029C92.5274 20.6133 93.1264 20.3458 93.568 19.8695C94.0096 19.3932 94.2576 18.7472 94.2576 18.0737ZM84.8388 16.8038C85.0716 16.8038 85.2993 16.8783 85.4929 17.0178C85.6865 17.1574 85.8374 17.3557 85.9265 17.5877C86.0156 17.8198 86.0389 18.0751 85.9935 18.3214C85.9481 18.5677 85.836 18.794 85.6713 18.9716C85.5066 19.1492 85.2969 19.2701 85.0685 19.3191C84.8401 19.3681 84.6034 19.343 84.3882 19.2468C84.1731 19.1507 83.9892 18.988 83.8598 18.7792C83.7305 18.5703 83.6614 18.3248 83.6614 18.0737C83.6614 17.7369 83.7855 17.4139 84.0063 17.1758C84.2271 16.9376 84.5265 16.8038 84.8388 16.8038Z" fill="black"/>
<path d="M13.9962 46.6145C13.3445 46.6145 12.7195 46.3322 12.2587 45.8298C11.7979 45.3273 11.5391 44.6459 11.5391 43.9353V31.8789C11.5391 31.1683 11.7979 30.4869 12.2587 29.9844C12.7195 29.482 13.3445 29.1997 13.9962 29.1997C14.6478 29.1997 15.2728 29.482 15.7336 29.9844C16.1944 30.4869 16.4532 31.1683 16.4532 31.8789V43.9353C16.4532 44.6459 16.1944 45.3273 15.7336 45.8298C15.2728 46.3322 14.6478 46.6145 13.9962 46.6145Z" fill="black"/>
<path d="M19.0249 43.7107C18.6129 43.71 18.2083 43.5937 17.8519 43.3736L8.702 37.779C8.42162 37.6229 8.17381 37.408 7.97348 37.1472C7.77314 36.8865 7.62442 36.5853 7.53626 36.2618C7.4481 35.9383 7.42232 35.5992 7.46048 35.2648C7.49863 34.9304 7.59993 34.6077 7.75828 34.316C7.91663 34.0244 8.12876 33.7699 8.3819 33.5678C8.63505 33.3657 8.92398 33.2202 9.23131 33.1401C9.53864 33.0599 9.85803 33.0468 10.1702 33.1015C10.4825 33.1561 10.7811 33.2775 11.0481 33.4582L20.198 39.0278C20.644 39.3032 20.9924 39.7275 21.1893 40.2349C21.3861 40.7424 21.4204 41.3047 21.2869 41.8349C21.1533 42.3652 20.8594 42.8339 20.4505 43.1684C20.0416 43.503 19.5406 43.6848 19.0249 43.6858V43.7107Z" fill="black"/>
<path d="M9.7873 43.7107C9.27117 43.7098 8.76972 43.5284 8.36051 43.1946C7.95129 42.8608 7.65711 42.3933 7.52345 41.8643C7.3898 41.3352 7.42413 40.7742 7.62112 40.268C7.81811 39.7617 8.1668 39.3385 8.61325 39.0637L17.7591 33.4573C18.0263 33.277 18.3252 33.1559 18.6377 33.1014C18.9502 33.0469 19.2698 33.06 19.5774 33.1399C19.885 33.2199 20.1742 33.365 20.4275 33.5666C20.6809 33.7682 20.8932 34.0222 21.0517 34.3131C21.2102 34.6041 21.3116 34.926 21.3497 35.2596C21.3879 35.5932 21.3621 35.9316 21.2739 36.2543C21.1857 36.5771 21.0368 36.8776 20.8363 37.1377C20.6358 37.3978 20.3878 37.6122 20.1072 37.768L10.9614 43.3744C10.6046 43.5939 10.1997 43.71 9.7873 43.7107Z" fill="black"/>
</svg>
