<svg width="68" height="70" viewBox="0 0 68 70" fill="none" xmlns="http://www.w3.org/2000/svg">
<path d="M2.28238 40.3937L10.4239 35.2157L33.3816 47.904L57.4129 34.937L64.3804 38.4865L33.4394 57.6502L2.28238 40.3937Z" fill="#F2F2F2"/>
<path d="M66.3512 29.1535C66.3465 28.8878 66.2805 28.6292 66.1614 28.4091C66.0423 28.189 65.8751 28.0166 65.6799 27.9129L48.7811 18.9269C49.7702 17.2884 50.5693 15.482 51.1548 13.5611C52.0058 11.0831 52.811 8.74131 54.6897 7.25925C54.8316 7.14739 54.951 6.99613 55.0389 6.81709C55.1267 6.63804 55.1806 6.43599 55.1965 6.22645C55.2124 6.01691 55.1897 5.80546 55.1304 5.60835C55.071 5.41125 54.9764 5.23373 54.854 5.08945C54.7822 5.00587 47.6995 -3.16026 39.7809 2.54683C38.4903 3.50216 37.3882 4.81033 36.5563 6.37447C35.7244 7.9386 35.184 9.71861 34.975 11.5827L33.55 10.8242C33.4074 10.7484 33.2538 10.7112 33.0992 10.7152C32.9446 10.7191 32.7924 10.7641 32.6528 10.8471L30.1161 12.3556C29.1913 10.357 27.8356 8.72618 26.2057 7.65166C18.0815 2.34861 11.3087 10.874 11.2401 10.9611C11.123 11.1115 11.0351 11.2937 10.983 11.4937C10.9309 11.6936 10.9161 11.906 10.9396 12.1145C10.9632 12.3231 11.0245 12.5222 11.1188 12.6966C11.2131 12.871 11.338 13.016 11.4838 13.1205C13.4153 14.5053 14.3057 16.8038 15.2469 19.2361C15.4473 19.7545 15.6579 20.2864 15.8784 20.8194L1.16945 29.5597C0.978084 29.6731 0.817116 29.8538 0.705986 30.0798C0.594857 30.3058 0.53832 30.5676 0.543203 30.8335C0.548087 31.0994 0.614183 31.358 0.733507 31.5782C0.852832 31.7983 1.02028 31.9705 1.21563 32.0741L7.61169 35.4747L1.34649 39.1985C1.15513 39.3119 0.994158 39.4925 0.883028 39.7186C0.771899 39.9446 0.715362 40.2064 0.720246 40.4722C0.725129 40.7381 0.791225 40.9968 0.91055 41.2169C1.02987 41.4371 1.19732 41.6093 1.39268 41.7128L7.78873 45.1134L1.52354 48.8373C1.33217 48.9507 1.1712 49.1313 1.06007 49.3573C0.948941 49.5834 0.892404 49.8451 0.897288 50.111C0.902172 50.3769 0.968267 50.6355 1.08759 50.8557C1.20692 51.0758 1.37437 51.2481 1.56972 51.3516L33.7052 68.4402C33.8477 68.5159 34.0014 68.5531 34.156 68.5491C34.3106 68.5452 34.4627 68.5002 34.6023 68.4173L66.0802 49.7047C66.2716 49.5913 66.4325 49.4107 66.5437 49.1847C66.6548 48.9586 66.7113 48.6969 66.7065 48.431C66.7016 48.1651 66.6355 47.9064 66.5162 47.6863C66.3968 47.4662 66.2294 47.2939 66.034 47.1904L59.638 43.7898L65.9032 40.066C66.0945 39.9525 66.2555 39.7719 66.3666 39.5459C66.4778 39.3199 66.5343 39.0581 66.5294 38.7922C66.5245 38.5263 66.4584 38.2677 66.3391 38.0475C66.2198 37.8274 66.0523 37.6552 65.857 37.5516L59.4609 34.151L65.7261 30.4272C65.9173 30.3136 66.078 30.1329 66.1889 29.9069C66.2998 29.6809 66.3562 29.4192 66.3512 29.1535ZM40.8771 4.9338C45.8294 1.36334 50.3444 4.32979 52.3163 6.06484C50.8957 7.87706 49.8118 10.0614 49.1419 12.4622C48.2482 15.0612 47.4056 17.5169 45.324 19.1281C44.7168 19.533 44.0481 19.7724 43.3615 19.8308C42.675 19.8891 41.9859 19.7651 41.3393 19.4668C40.9364 19.3037 40.5451 19.0985 40.1693 18.8533C41.7133 15.1754 43.7228 11.8377 46.1195 8.96999L44.6069 6.96974C42.1101 9.96108 40.0056 13.4291 38.3709 17.2461C37.9719 16.7745 37.648 16.2119 37.4166 15.5884C36.4787 12.8558 37.3444 7.48026 40.8771 4.9338ZM13.8137 11.8239C15.7292 10.0076 20.1596 6.81826 25.194 10.1021C28.8168 12.4673 29.8791 17.7921 29.0446 20.5701C28.8375 21.1995 28.5372 21.7738 28.1595 22.2623C26.3837 18.5355 24.1513 15.1823 21.5446 12.3264L20.1035 14.3952C22.6075 17.1352 24.7421 20.3658 26.424 23.9611C26.0558 24.2266 25.6706 24.453 25.2722 24.638C24.6369 24.9694 23.9526 25.1287 23.2642 25.1055C22.5757 25.0822 21.8985 24.8769 21.2767 24.5031C19.1379 22.9996 18.2058 20.5864 17.2176 18.0382C16.4595 15.6774 15.2974 13.5534 13.8136 11.8171L13.8137 11.8239ZM62.928 48.5274L34.1028 65.6569L4.67574 50.0145L10.4971 46.5597L33.5282 58.8069C33.6708 58.8827 33.8244 58.9198 33.979 58.9159C34.1336 58.912 34.2858 58.867 34.4254 58.784L56.9842 45.3729L62.928 48.5274ZM62.751 38.8887L33.9258 56.0181L4.4987 40.3758L10.32 36.9209L33.3512 49.1682C33.4937 49.2439 33.6474 49.2811 33.802 49.2771C33.9566 49.2732 34.1087 49.2282 34.2484 49.1452L56.8082 35.7341L62.751 38.8887ZM33.7488 46.3794L4.32166 30.737L17.0029 23.2001C17.8291 24.7279 18.9249 25.996 20.2049 26.9054C21.1821 27.5796 22.285 27.9121 23.3981 27.8681C24.2945 27.8359 25.1802 27.6193 26.0199 27.2267C26.5182 26.9942 27.0004 26.7105 27.4615 26.3785C28.2424 28.3363 28.8896 30.3733 29.3959 32.4678L31.496 31.684C30.9192 29.2929 30.1706 26.972 29.2597 24.7497C30.0604 23.8717 30.6894 22.774 31.0979 21.5412C31.6653 19.3702 31.6372 17.0214 31.0182 14.8687L33.1468 13.6076L34.9519 14.5672C35.025 15.2898 35.175 15.9972 35.3977 16.6704C35.8529 17.8879 36.5256 18.9579 37.3633 19.797C36.0044 23.5097 35.0935 27.4571 34.6607 31.5096L34.5573 32.511L36.7321 32.8687L36.8366 31.8673C37.2247 28.2254 38.0267 24.6736 39.2183 21.3201C39.6875 21.6254 40.176 21.8815 40.6786 22.086C41.5317 22.4362 42.4246 22.6075 43.3214 22.593C44.4351 22.5801 45.5248 22.1917 46.4763 21.4682C46.6743 21.3144 46.8478 21.1446 47.0292 20.9802L62.5739 29.2499L33.7488 46.3794Z" fill="#F2F2F2"/>
</svg>
