<svg width="67" height="69" viewBox="0 0 67 69" fill="none" xmlns="http://www.w3.org/2000/svg">
<path d="M37.6152 69C37.4702 69 37.3253 68.9266 37.2528 68.7797C37.2528 68.7062 37.1078 68.5593 36.8179 68.4859C36.6005 68.4125 36.0207 68.4124 35.6583 68.5593C35.3684 68.6328 34.7161 68.7797 34.5712 68.6328C34.4987 68.5593 34.4262 68.4859 34.4262 68.339C34.4262 68.2656 34.4262 68.1921 34.4987 68.1921C34.4987 68.1921 34.5712 68.1187 34.4987 68.0452C34.4987 67.9718 34.3537 67.9718 34.3537 67.9718C34.2088 68.0452 33.9189 67.9718 33.7739 67.8984C33.5565 67.8249 33.3391 67.678 33.2666 67.5311C33.1941 67.3842 33.0492 67.2374 32.9767 67.0905C32.9042 67.017 32.5418 66.8701 32.107 66.8701C31.6721 66.8701 31.1648 66.7233 31.0198 66.4295C30.9473 66.2092 30.7299 66.0623 30.6574 66.0623C30.5125 65.9888 30.2226 65.8419 30.0052 65.6951C29.8602 65.5482 29.4978 65.4747 29.2079 65.5482C28.918 65.6216 28.5556 65.6216 28.4107 65.4747C28.3382 65.4013 28.0483 65.2544 27.7584 65.1809C27.4685 65.1075 27.1786 65.0341 27.1061 65.0341C27.1061 65.0341 27.0336 65.1809 27.1061 65.4747C27.1061 65.5482 27.1061 65.6951 27.0336 65.7685C26.8887 65.9888 26.5263 66.1357 26.019 66.1357C25.6566 66.1357 24.8593 66.1357 24.7869 65.9888C24.7869 65.9888 24.5694 65.8419 24.4245 65.8419C24.2071 65.7685 23.8447 65.8419 23.6272 65.9154C23.3373 65.9888 22.975 65.9888 22.83 65.7685C22.7575 65.6216 22.5401 65.4013 22.3952 65.2544C22.2502 65.1075 21.9603 64.9606 21.8153 64.9606C21.5979 64.9606 21.1631 65.0341 20.9456 65.1809C20.6557 65.3278 20.1484 65.1809 19.8585 64.8872C19.5686 64.5934 19.2787 64.2262 19.2062 64.0793C19.1337 63.9324 18.9888 63.859 18.9163 63.859C18.6989 63.859 17.9741 63.5652 17.3943 63.3449C16.6695 63.0511 16.0172 62.6839 15.7998 62.4635C15.5824 62.2432 15.5099 61.9494 15.5099 61.6557C15.5099 61.5088 15.22 61.215 14.7851 61.1416C14.3503 61.0681 13.843 60.8478 13.698 60.6275C13.6255 60.554 13.5531 60.4071 13.6255 60.3337C13.6255 60.2602 13.7705 60.1134 13.9154 60.1134C14.1329 60.0399 14.4228 59.893 14.5677 59.7461C14.7127 59.5993 15.0751 59.0852 15.365 58.4242C15.6549 57.8366 16.0897 56.074 16.4521 54.3848C16.742 52.9159 17.1769 51.2267 17.3218 51.0064C17.4668 50.8595 17.6117 50.5657 17.6842 50.4188C17.6842 50.4188 17.6842 50.3454 17.6842 50.272C17.6117 50.1985 17.5392 50.0516 17.3943 50.0516C17.0319 49.9047 17.2493 48.289 17.4668 47.2608C17.7567 45.8653 18.0466 44.4699 18.1191 44.1027C18.1191 43.9558 18.1915 43.8089 18.3365 43.8089C18.4814 43.7355 18.7713 43.8089 18.9888 44.0293C19.3512 44.323 19.786 45.1309 19.931 45.7919C20.0759 46.4529 20.2933 47.0404 20.3658 47.1139C20.4383 47.2608 20.6557 47.7014 20.8007 48.0687C20.8732 48.2155 20.9456 48.289 20.9456 48.3624C20.9456 48.3624 20.9456 48.289 21.0181 48.2155C21.0906 47.9218 20.9456 47.4077 20.8007 47.1139C20.6557 46.8201 20.3658 45.9388 20.2209 45.2044C20.0759 44.4699 19.4961 43.5152 18.9163 43.0745C18.409 42.7073 17.7567 42.1197 17.6842 41.8994C17.6117 41.6791 17.7567 41.3119 18.0466 41.0181C18.264 40.7978 18.4814 40.504 18.4814 40.3571C18.4814 40.2102 18.4814 39.9164 18.4814 39.7696C18.4814 39.6227 18.409 39.3289 18.3365 39.182C18.264 38.9617 18.1191 38.7414 18.1191 38.6679C18.0466 38.521 18.1915 38.2272 18.264 38.0069L18.264 37.9335C18.1915 37.7866 17.9741 37.5663 17.5392 37.4194C17.0319 37.199 16.4521 36.9053 16.3071 36.6849C16.1622 36.5381 15.7998 36.2443 15.4374 36.0239C15.0751 35.8036 14.7851 35.4364 14.7127 35.1426C14.6402 34.9223 14.3503 34.3348 13.9879 33.8941C13.6255 33.38 13.4081 32.719 13.5531 32.2783C13.698 31.9111 13.698 31.5439 13.6255 31.4705C13.5531 31.3236 13.3356 31.1032 13.1182 30.9564C12.9732 30.8829 12.9008 30.736 12.9008 30.5891C12.9008 30.5157 12.9732 30.4423 13.0457 30.3688C13.1907 30.2954 13.3356 30.075 13.4081 29.9282C13.4081 29.8547 13.4081 29.8547 13.4081 29.7813C13.3356 29.7078 13.2631 29.7078 13.1182 29.7078C12.8283 29.7813 12.3934 29.7078 12.1035 29.6344C11.8861 29.5609 11.5237 29.2672 11.3788 29.0468C11.3063 28.8999 11.3063 28.7531 11.3063 28.6796C11.3788 28.5327 11.5237 28.3858 11.6687 28.3124C11.8136 28.239 11.8861 28.1655 11.8861 28.0921C11.8861 28.0186 11.8861 28.0186 11.8136 27.9452C11.6687 27.7983 11.2338 27.6514 10.8714 27.6514C10.8714 27.6514 10.8714 27.6514 10.799 27.6514C10.4366 27.6514 10.0017 27.5045 10.0017 27.2108C10.0017 27.0639 9.71181 26.9904 9.42191 26.9904C9.05953 27.0639 8.62467 26.9904 8.40724 26.8435C8.18981 26.6966 8.04486 26.4029 8.11734 26.0357C8.11734 25.9622 8.11734 25.8888 8.04486 25.8153C7.97238 25.7419 7.82743 25.7419 7.68248 25.7419C7.3201 25.8153 6.88524 25.7419 6.66781 25.5216C6.52286 25.3747 6.01553 25.1543 5.58067 25.0809C5.07334 25.0075 4.566 24.7871 4.42105 24.6402C4.20362 24.5668 3.84124 24.3465 3.62381 24.273C3.47886 24.1996 3.33391 24.1996 3.18895 24.1996C3.11648 24.1996 3.11648 24.273 3.11648 24.273C3.044 24.4933 2.68162 24.7137 2.39172 24.6402C2.10181 24.6402 1.81191 24.4199 1.81191 24.1261C1.81191 23.9058 1.73943 23.612 1.66695 23.4651C1.66695 23.3917 1.37705 23.1714 1.08714 23.0979C0.797238 23.0245 0.434857 22.8776 0.289905 22.7307C0.217429 22.6573 0.144952 22.5838 0.144952 22.5104C0.144952 22.4369 0.217429 22.29 0.289905 22.2166C0.507334 22.1432 1.15962 22.1432 1.59448 22.1432C2.10181 22.2166 2.39172 22.1432 2.46419 22.0697C2.46419 21.9963 2.39172 21.7759 2.31924 21.7025C2.24676 21.6291 2.02933 21.5556 1.81191 21.6291C1.522 21.7025 1.2321 21.6291 1.15962 21.4822C1.08714 21.3353 1.08714 21.0415 1.15962 20.8946C1.30457 20.7477 1.88438 20.6743 2.31924 20.6743C2.39172 20.6743 2.46419 20.6743 2.46419 20.6743C2.17429 20.6009 2.02933 20.454 2.02933 20.3071C2.02933 20.2336 2.02933 20.1602 2.24676 20.0867C2.31924 20.0133 2.39172 19.9399 2.46419 19.9399L2.39172 19.9399L2.17429 20.0133C2.17429 20.0133 1.73943 20.0867 1.44952 20.1602C1.08714 20.2336 0.652286 20.2336 0.434857 20.2336C0.217429 20.2336 0.0724762 20.0867 -3.95979e-08 19.8664C-3.93051e-08 19.7195 -1.13372e-07 19.4992 0.0724761 19.3523C0.144952 19.2789 0.144952 19.0585 0.144952 18.9117C0.144952 18.6913 0.57981 18.3976 1.01467 18.2507C1.44952 18.1038 1.95686 17.9569 2.17429 17.9569C2.31924 17.9569 2.82657 17.8834 3.18895 17.7366C3.55133 17.6631 3.91372 17.5162 3.98619 17.5162C4.05867 17.5162 4.2761 17.5897 4.42105 17.6631C4.566 17.7366 4.78343 17.8834 4.85591 17.9569L4.92838 18.0303C5.00086 17.9569 5.07334 17.81 5.14581 17.7366C5.29076 17.5897 5.65315 17.6631 5.7981 17.6631C6.01553 17.7366 6.23295 17.6631 6.23295 17.5162C6.30543 17.3693 6.37791 17.149 6.37791 17.0756C6.45038 16.8552 7.39257 16.7818 7.61 16.7818L7.68248 16.7818C8.33477 16.7818 9.05953 17.149 9.42191 17.5162C9.71181 17.81 10.0742 18.3976 10.0742 18.6179C10.0742 18.6913 10.2191 18.9117 10.4366 19.132C10.654 19.2789 11.1613 19.2789 11.5962 19.0585C12.0311 18.8382 12.6109 18.6913 12.9008 18.7648C13.1182 18.8382 13.4081 18.8382 13.5531 18.7648C13.698 18.6913 13.9154 18.5444 14.0604 18.471C14.2053 18.3976 14.4952 18.3241 14.7127 18.3241C14.8576 18.3241 15.0026 18.3976 15.0751 18.471C15.1475 18.5444 15.1475 18.5444 15.1475 18.6179C15.1475 18.6913 15.1475 18.7648 15.22 18.8382C15.22 18.9117 15.5099 18.9851 15.9448 18.9117C16.3071 18.9117 16.887 18.9117 17.1769 18.9117C17.3218 18.9117 17.3218 18.9117 17.3218 18.9117C17.3218 18.9117 17.3218 18.8382 17.2493 18.7648C17.0319 18.5444 16.742 18.1038 16.6695 17.81C16.5971 17.5162 16.5971 17.0021 16.6695 16.6349C16.8145 16.2677 16.742 16.0474 16.742 15.9739C16.5971 15.9005 16.5246 15.4598 16.5246 15.0926L16.5246 14.2113C16.5246 14.1378 16.3796 13.8441 16.1622 13.5503C15.9448 13.33 15.7273 13.0362 15.7273 12.8159C15.7273 12.7424 15.6549 12.5221 15.5099 12.4486C15.365 12.3018 15.4374 11.9345 15.5099 11.7142C15.6549 11.4939 15.6549 11.2735 15.5824 11.2001C15.4374 11.1267 15.2925 10.9798 15.1475 10.8329C15.0751 10.7594 15.0751 10.686 15.0751 10.6126C15.0751 10.5391 15.22 10.3922 15.2925 10.3188C15.5099 10.2453 16.0172 10.3188 16.3796 10.5391C16.742 10.7594 17.1044 10.7594 17.1769 10.686C17.3218 10.6126 17.6842 10.4657 17.9016 10.4657C18.1915 10.4657 18.4814 10.6126 18.6264 10.7594C18.7713 10.9798 18.6989 11.2735 18.5539 11.4939C18.4814 11.6408 18.4814 11.9345 18.6264 12.1549C18.7713 12.3752 18.9163 12.8893 18.9888 13.1831C18.9888 13.33 19.0612 13.4034 19.0612 13.4034C19.0612 13.4034 19.0612 13.4034 19.1337 13.33C19.2787 13.0362 19.7135 12.9627 20.2209 13.0362C20.6557 13.1096 21.308 13.2565 21.6704 13.2565C22.0328 13.2565 22.7575 13.4768 23.2649 13.6237C23.6997 13.7706 24.497 13.6972 24.8593 13.4768C25.2942 13.2565 25.9465 12.9627 26.3089 12.8893C26.5263 12.8159 26.6712 12.7424 26.8162 12.7424C26.7437 12.7424 26.5988 12.7424 26.3813 12.7424C26.3813 12.7424 26.3813 12.7424 26.3089 12.7424C25.9465 12.7424 25.5116 12.669 25.3667 12.5221C25.1492 12.3752 25.2217 11.8611 25.3667 11.5673C25.5116 11.2001 26.0914 10.6126 26.5988 10.2453C27.1061 9.95157 28.2657 9.51091 29.1354 9.29058C30.0776 9.07025 30.8024 8.84992 30.9473 8.70303C31.0923 8.55615 31.3822 8.40926 31.5996 8.33582C31.7446 8.26237 32.0345 7.9686 32.1794 7.52794C32.3244 7.08728 32.6868 6.79351 32.9767 6.79351C33.0492 6.79351 33.1216 6.79351 33.1216 6.72006C33.1941 6.64662 33.1941 6.49973 33.0492 6.2794C32.9042 5.91219 32.7593 4.73709 32.8317 3.63544C32.8317 3.34167 32.9042 1.72592 33.0492 1.57903C33.1216 1.50559 33.3391 1.28526 33.5565 1.06493C33.7739 0.844598 34.1363 0.624268 34.2812 0.624268C34.4262 0.624268 35.2959 0.403938 36.0932 0.183608C36.8904 -0.0367216 37.7601 -0.110165 37.9775 0.257052C38.1225 0.550825 38.2674 0.991485 38.2674 1.3587C38.2674 1.65247 38.5573 2.09313 38.8473 2.31346C39.1372 2.53379 39.4995 2.60724 39.572 2.46035C39.717 2.31346 40.0793 2.16658 40.2968 2.09313C40.5867 2.09313 40.8766 2.31346 41.0215 2.60724C41.1665 2.90101 41.3839 3.41511 41.5289 3.70889C41.6738 4.00266 41.9637 4.22299 42.1087 4.22299C42.3986 4.22299 42.761 4.44332 42.9784 4.81054C43.1233 5.10431 43.4857 5.39808 43.7032 5.47153C43.9206 5.54497 44.283 5.54497 44.5004 5.54497C44.7178 5.54497 45.1527 5.61841 45.5151 5.7653C45.7325 5.83874 45.9499 6.05907 46.0224 6.20596C46.0224 6.2794 46.0224 6.35285 46.0224 6.42629C45.9499 6.49973 45.8774 6.94039 45.8774 7.30761C45.8774 7.67483 45.9499 8.04204 46.0224 8.18893C46.0949 8.33582 46.4573 8.55615 46.8921 8.62959C47.2545 8.77648 47.6169 8.70303 47.6894 8.70303C47.8343 8.62959 48.0517 8.4827 48.1967 8.33582C48.2692 8.33582 48.2692 8.26237 48.2692 8.18893C48.2692 8.11549 48.2692 8.11549 48.2692 8.04204C48.1242 7.89516 48.2692 7.52794 48.5591 7.30761C48.7765 7.08728 49.1389 6.94039 49.3563 7.08728C49.4288 7.08728 49.4288 7.16072 49.4288 7.23417C49.5013 7.38105 49.4288 7.67483 49.2838 7.9686C49.1389 8.26237 49.0664 8.77648 49.1389 9.14369C49.2838 9.51091 49.5013 9.80468 49.6462 9.87813C49.8636 9.95157 50.2985 10.3188 50.7334 10.6126C51.1682 10.9063 51.6755 11.4204 51.8205 11.7142C51.9654 11.9345 52.4728 12.0814 52.9076 11.9345C53.3425 11.7877 53.8498 11.7142 54.0673 11.9345C54.2122 12.0814 54.5021 12.2283 54.792 12.3018C55.0095 12.3752 55.3718 12.3752 55.5168 12.2283C55.7342 12.0814 56.314 12.0814 56.8214 12.0814C57.3287 12.1549 58.0535 12.7424 58.3434 13.33C58.5608 13.6972 58.7782 13.991 59.0681 14.0644C59.1406 14.0644 59.2131 14.0644 59.2131 14.0644C59.503 13.8441 59.9378 13.991 60.2277 14.2847C60.4452 14.5785 60.8075 14.7988 60.9525 14.7988C61.0975 14.7988 61.6048 14.7254 62.0396 14.5785C62.4745 14.4316 63.1268 14.5051 63.4892 14.7254C63.7791 14.9457 64.3589 15.166 64.7937 15.166C65.2286 15.166 65.8809 15.2395 66.2433 15.3864C66.3882 15.4598 66.5332 15.5333 66.6056 15.6801C66.6781 15.827 66.6781 16.0474 66.6056 16.2677C66.4607 16.6349 66.0983 17.149 65.8809 17.4428C65.6635 17.6631 65.3736 18.2507 65.1561 18.6913C65.0112 19.132 64.7937 19.8664 64.6488 20.3071C64.5038 20.7477 64.2864 21.4087 64.1415 21.8494C63.9965 22.2166 63.924 22.8042 63.9965 23.0245C64.069 23.3183 64.069 23.9792 63.9965 24.4933C63.924 25.0075 63.924 25.595 63.924 25.8153C63.924 26.0357 63.924 26.4763 63.924 26.6966C63.924 26.9904 63.7066 27.4311 63.4892 27.6514C63.2717 27.8717 62.9094 28.0186 62.6195 28.0186C62.402 28.0186 62.0396 27.8717 61.8947 27.7249C61.7497 27.6514 61.3874 27.7249 61.025 28.0186C60.8075 28.239 60.7351 28.3858 60.6626 28.3858C60.88 28.3858 61.1699 28.5327 61.2424 28.7531C61.3149 28.9734 60.88 29.6344 60.5901 30.075C60.2277 30.5891 59.5755 31.2501 59.2131 31.6173C58.8507 31.9111 58.4883 32.4252 58.4158 32.719C58.3434 33.0862 57.981 33.6738 57.6911 34.041C57.3287 34.4082 56.9663 34.9957 56.8214 35.4364C56.6764 35.8771 56.6039 36.4646 56.6764 36.8318C56.7489 37.199 56.6764 37.6397 56.5315 37.7131L56.459 37.7866C56.459 37.86 56.459 38.0069 56.5315 38.0804C56.5315 38.0804 56.6039 38.1538 56.6764 38.1538C56.8214 38.1538 57.0388 38.0069 57.1837 37.7866C57.4736 37.4194 57.6186 37.0522 57.6186 36.9053C57.5461 36.6115 58.0535 36.3177 58.4883 36.1708C58.9956 35.9505 59.5755 35.8771 59.8654 35.9505C60.1553 36.0239 60.4452 36.5381 60.4452 37.0522C60.5176 37.5663 60.6626 38.1538 60.8075 38.3741C60.9525 38.5945 61.3149 38.9617 61.4598 39.2555C61.6773 39.5492 61.5323 40.0633 61.1699 40.3571C60.8075 40.6509 60.5176 40.9447 60.5176 41.0915C60.5176 41.165 60.6626 41.4588 61.025 41.6791C61.3874 41.9729 61.6773 42.3401 61.6773 42.5604C61.6773 42.7073 61.8947 43.0745 62.1846 43.2948C62.4745 43.5152 62.6919 44.1027 62.6195 44.4699C62.547 44.6903 62.4745 45.2044 62.2571 45.2778C62.1846 45.2778 61.9672 45.4981 61.7497 45.7919C61.5323 46.0122 61.025 46.1591 60.7351 46.0857C60.4452 46.0122 60.1553 46.0857 60.0828 46.306C60.0103 46.4529 60.0103 46.8201 60.1553 47.0404C60.3002 47.2608 60.5176 47.5546 60.5176 47.7749C60.5176 47.8483 60.8075 48.0687 61.2424 48.2155C61.6773 48.3624 62.1121 48.7296 62.1121 48.95C62.1846 49.2437 62.1121 49.611 61.8947 49.8313C61.7497 50.0516 61.6048 50.4188 61.5323 50.7126C61.4598 51.0064 61.4598 51.447 61.5323 51.6674C61.6048 51.8877 61.6773 52.2549 61.8222 52.5487C61.9672 52.769 62.1846 52.9159 62.3295 52.9159C62.547 52.9159 62.8369 52.9894 63.0543 53.1362C63.2717 53.2831 63.4167 53.3566 63.4892 53.43C63.5616 53.43 63.7791 53.5769 63.9965 53.6503C64.1415 53.7238 64.5763 53.6503 64.9387 53.5035C65.3736 53.2831 65.8084 53.3566 66.0258 53.5769C66.2433 53.7972 66.2433 54.2379 66.0258 54.6051C65.8084 54.8989 65.591 55.3395 65.446 55.4864C65.3736 55.6333 65.2286 55.9271 65.2286 56.1474C65.2286 56.4412 64.7213 56.8818 64.2864 57.1756C63.7791 57.4694 63.1268 58.0569 62.7644 58.4976C62.402 59.0117 61.8947 59.6727 61.5323 59.893C61.2424 60.1868 60.9525 60.7009 60.9525 60.9947C60.9525 61.215 60.88 61.4353 60.7351 61.5822C60.6626 61.6557 60.5176 61.7291 60.3727 61.7291C60.0828 61.7291 59.8654 61.7291 59.7929 61.8026C59.7204 61.876 59.358 62.0229 59.0681 62.0963C58.7782 62.1698 58.3434 62.3901 58.1259 62.537C57.836 62.7573 57.4012 62.6839 57.0388 62.3901L56.7489 62.3901C56.314 62.4635 55.8067 62.4635 55.6617 62.3167C55.5893 62.2432 55.1544 61.9494 54.5021 61.8026C53.9948 61.6557 53.415 61.4353 53.27 61.2885C53.1975 61.215 53.0526 60.9947 52.9076 60.7743C52.8352 60.6275 52.6177 60.554 52.4728 60.554C52.2554 60.6275 51.893 60.6275 51.6031 60.554C51.3856 60.554 51.2407 60.4806 51.2407 60.3337C51.2407 60.2602 51.1682 60.1868 51.3132 60.0399C51.4581 59.893 51.748 59.6727 51.893 59.5258C51.8205 59.4524 51.6031 59.3789 51.1682 59.3789C50.7334 59.3789 50.371 59.4524 50.226 59.5993C50.1535 59.6727 50.1535 59.7461 50.1535 59.8196C50.1535 59.9665 50.0811 60.1868 50.0086 60.2602C49.8636 60.4071 49.6462 60.4806 49.5013 60.4806C49.2114 60.4806 48.9214 60.4071 48.849 60.2602C48.7765 60.1868 48.7765 60.1134 48.7765 60.1134C48.7765 60.0399 48.704 59.893 48.6315 59.893C48.5591 59.893 48.1967 59.8196 47.9068 59.893C47.5444 59.9665 47.0371 59.893 46.7472 59.7461C46.4573 59.5993 46.1674 59.3789 46.0949 59.232C46.0949 59.1586 45.8774 59.0852 45.7325 59.0852C45.5875 59.0852 45.0802 59.3789 44.6454 59.7461C44.2105 60.1134 43.7032 60.4806 43.5582 60.554C43.4133 60.6275 43.1958 60.7743 42.9784 60.9212C42.761 61.0681 42.4711 61.1416 42.1812 61.0681C42.0362 61.0681 41.5289 61.3619 41.0215 61.9494C40.5142 62.4635 40.2968 63.1245 40.3693 63.4183C40.4417 63.7121 40.3693 63.9324 40.2968 64.0059C40.2243 64.0793 40.1518 64.0793 40.0793 64.0793L40.0069 64.0793C39.9344 64.1527 39.9344 64.2262 39.9344 64.2996C39.9344 64.52 40.0069 64.7403 40.0793 64.8137C40.2243 64.9606 40.3693 65.5482 40.3693 65.8419C40.3693 66.2826 40.5867 66.8701 40.8041 67.1639C40.8766 67.2374 41.1665 67.5311 41.094 67.7515C41.094 67.8249 41.0215 67.8249 41.0215 67.8984C40.8766 67.9718 40.5142 67.8983 40.2968 67.8249C40.0793 67.7515 39.572 67.8983 39.1372 68.1921C38.7748 68.4859 38.195 68.7062 37.9775 68.6328C37.8326 68.5593 37.6152 68.6328 37.6152 68.6328C37.9051 68.9266 37.7601 69 37.6152 69Z" fill="#F2F2F2"/>
</svg>
