<svg width="106" height="159" viewBox="0 0 106 159" fill="none" xmlns="http://www.w3.org/2000/svg">
<path d="M105.566 15.7017C105.526 15.519 105.409 15.3644 105.25 15.2783C105.008 15.1483 99.2672 12.0913 93.2471 13.5618C91.4868 13.9905 89.7366 14.8039 88.0456 15.9793C86.6961 16.9175 85.6172 17.9312 84.8478 18.7359C84.8428 18.7324 84.836 18.7306 84.8292 18.7271L87.5636 5.38874C88.1369 2.59176 84.2932 1.49721 80.6457 0.690794C78.2393 0.158455 76.6988 -0.0523733 75.5016 0.010875C73.7615 0.0916923 72.7469 0.778639 72.4865 2.05063L69.7538 15.3855C68.9979 15.4944 68.3485 16.0724 68.1811 16.8859C67.9292 18.1122 68.2268 19.0837 68.8356 19.8708L62.156 52.4507C61.7705 52.5052 61.412 52.6791 61.133 52.9497C61.0433 52.825 60.9622 52.6862 60.8692 52.5649C57.0018 47.5525 50.6706 46.2735 50.4034 46.2225C50.2293 46.1874 50.0449 46.2348 49.9029 46.3525C49.7625 46.4685 49.678 46.6442 49.6712 46.8304C49.6611 47.115 49.4869 53.8123 53.3526 58.823C53.7314 59.3132 54.1389 59.7594 54.5566 60.1811C52.5341 60.724 48.43 62.2296 45.5502 65.9648C45.4538 66.0895 45.371 66.2195 45.2796 66.346C45.0006 66.0772 44.6455 65.9051 44.2616 65.8506L37.5821 33.2707C38.1892 32.4836 38.4868 31.512 38.2348 30.2857C38.0674 29.467 37.4198 28.8855 36.6605 28.7818L33.9278 15.4522C33.3546 12.6588 29.4162 13.286 25.7686 14.0906C22.1211 14.8988 18.2774 15.9951 18.8507 18.7886L21.5851 32.127C21.58 32.1305 21.5732 32.1322 21.5665 32.1357C19.9397 30.4368 16.9872 27.8911 13.1672 26.9599C7.15219 25.4999 1.40779 28.5482 1.16429 28.6782C1.00533 28.7643 0.88865 28.9189 0.848065 29.1016C0.807481 29.2843 0.844685 29.4758 0.951219 29.6286C1.11187 29.857 4.95217 35.2419 10.9705 36.7054C12.1593 36.9953 13.3295 37.113 14.4456 37.113C17.3406 37.113 19.8602 36.3224 21.4346 35.6812C21.4751 35.7339 21.5208 35.7848 21.5665 35.8358C19.2988 36.3751 16.5323 37.4258 14.2054 39.4954C9.51286 43.6768 8.48979 50.2933 8.44921 50.5726C8.42215 50.7588 8.47288 50.9468 8.59125 51.0891C8.70793 51.2332 8.88042 51.314 9.05966 51.314C9.05966 51.314 9.06135 51.314 9.06304 51.314C9.38265 51.314 15.8001 51.2596 20.4757 47.0957C21.8894 45.836 22.9683 44.3532 23.7918 42.8862L29.1845 69.1869C28.5351 69.6033 28.1682 70.408 28.3373 71.2267C28.4844 71.9435 28.9207 72.9853 30.101 73.6512L33.4695 90.0817C33.3985 90.0641 33.3309 90.0395 33.2582 90.0237C27.2246 88.62 21.5123 91.7314 21.2722 91.8632C21.1133 91.951 20.9983 92.1074 20.9594 92.2901C20.9205 92.4728 20.9594 92.6644 21.0676 92.8154C21.2299 93.0421 25.121 98.3866 31.1529 99.7903C32.2605 100.049 33.3546 100.154 34.4081 100.154C34.7869 100.154 35.1589 100.136 35.5258 100.11L35.6594 100.764C35.0101 101.18 34.6448 101.985 34.8122 102.803C34.9593 103.52 35.3956 104.562 36.5743 105.23L43.2589 137.832C42.6095 138.249 42.2443 139.053 42.4117 139.872C42.645 141.005 43.2436 141.815 44.1788 142.323L46.9994 156.08C47.3139 157.624 48.6634 158.123 50.4237 158.123C51.8425 158.123 53.5284 157.8 55.1569 157.439C58.8044 156.631 62.6464 155.535 62.0749 152.741L59.7159 141.234L62.2457 128.897C63.4243 128.231 63.8606 127.189 64.0077 126.472C64.1109 125.968 64.0195 125.452 63.749 125.021C63.5968 124.777 63.3905 124.591 63.1588 124.443L69.8451 91.8316C71.0237 91.1657 71.46 90.1239 71.6071 89.4071C71.7103 88.9028 71.619 88.3863 71.3484 87.9559C71.1962 87.7117 70.9899 87.5254 70.7582 87.3779L70.8935 86.7155C71.2605 86.7401 71.6325 86.7594 72.0113 86.7594C73.0631 86.7594 74.1589 86.654 75.2665 86.3957C81.2984 84.992 85.1894 79.6475 85.3518 79.4191C85.46 79.268 85.4989 79.0783 85.46 78.8938C85.4211 78.7111 85.3061 78.5547 85.1471 78.4669C84.907 78.3351 79.1948 75.2201 73.1612 76.6274C73.0885 76.645 73.0208 76.6678 72.9498 76.6854L76.32 60.2478C77.2416 59.7278 77.8605 58.9091 78.0804 57.8304C78.1835 57.3261 78.0922 56.8096 77.8216 56.3792C77.6695 56.1349 77.4632 55.9487 77.2315 55.8011L82.6275 29.4828C83.5593 31.1501 84.6669 32.5679 85.9402 33.7011C90.6125 37.8632 97.0266 37.9194 97.3512 37.9194C97.3529 37.9194 97.3546 37.9194 97.3546 37.9194C97.5356 37.9194 97.7064 37.8369 97.8247 37.6946C97.9431 37.5522 97.9938 37.3643 97.9668 37.178C97.9262 36.8987 96.9031 30.2822 92.2105 26.1026C89.8905 24.0364 87.1341 22.9876 84.8749 22.4464C84.9172 22.3973 84.9594 22.3446 84.9983 22.2918C86.5964 22.9349 89.1143 23.7149 91.9873 23.7149C93.1 23.7149 94.2634 23.599 95.4438 23.3108C101.462 21.8456 105.302 16.4625 105.463 16.2323C105.57 16.0759 105.607 15.8844 105.566 15.7017ZM73.6989 2.32119C73.7564 2.03658 73.8917 1.37598 75.5591 1.29692C76.9288 1.2284 78.865 1.61141 80.3903 1.95049C83.5187 2.64271 86.6741 3.55981 86.3545 5.11993L83.6202 18.4495C82.8947 18.5497 82.2707 19.089 82.0712 19.848C81.8666 19.9429 80.8418 20.2257 76.8239 19.335C72.8027 18.446 71.9809 17.7538 71.8321 17.5816C71.9031 17.1125 71.805 16.6399 71.5547 16.2376C71.4025 15.9934 71.1962 15.8071 70.9646 15.6596L73.6989 2.32119ZM69.3919 17.1547C69.4545 16.8525 69.7149 16.6452 70.0024 16.6452C70.043 16.6452 70.0852 16.6504 70.1258 16.6592C70.2882 16.6944 70.4268 16.7928 70.5164 16.9386C70.6061 17.0826 70.6365 17.2548 70.6027 17.4217C70.4759 18.0366 70.8682 18.5918 71.7661 19.0785C72.708 19.588 74.3246 20.0992 76.5669 20.5947C81.0008 21.5768 83.0012 21.4643 83.2583 20.224C83.3276 19.8779 83.6574 19.6565 83.9888 19.7285L83.9922 19.7303C83.9939 19.7303 83.9939 19.7303 83.9956 19.7303C84.327 19.8058 84.5401 20.1467 84.469 20.491C84.2881 21.3747 83.7335 22.5466 81.0143 22.5466C79.4467 22.5466 77.7083 22.1618 76.3099 21.8526C72.6623 21.0444 68.8186 19.9499 69.3919 17.1547ZM76.0207 55.5183C75.297 55.6184 74.6747 56.1508 74.4734 56.9133C74.3855 56.9484 74.1758 57.0081 73.7463 57.0292C72.4763 57.0819 70.557 56.6972 69.2262 56.402C67.7719 56.0805 65.9608 55.6377 64.8549 55.0615C64.4693 54.8612 64.3002 54.7154 64.2343 54.6451C64.3036 54.1778 64.2072 53.7052 63.957 53.3046C63.8048 53.0604 63.5985 52.8741 63.3668 52.7266L69.8958 20.8775C71.646 22.1302 74.2874 22.7205 76.0545 23.1106C77.431 23.4145 79.3165 23.8309 81.0143 23.8309C81.5791 23.8309 82.083 23.7747 82.548 23.6833L76.0207 55.5183ZM50.9209 47.6737C52.666 48.1621 57.0745 49.7029 59.9036 53.3696C60.5022 54.1444 61.0332 55.0211 61.4847 55.9768C62.9356 59.0479 63.24 62.2648 63.3008 63.7177C61.5574 63.2311 57.154 61.6955 54.3181 58.0201C51.4891 54.3552 51.0004 49.5501 50.9209 47.6737ZM59.8275 63.8038L55.6811 84.0274C54.9252 84.1346 54.2759 84.7126 54.1068 85.5296C53.8852 86.6101 54.1237 87.6273 54.7646 88.4952L52.3599 100.223C52.409 99.8237 52.4039 99.3985 52.3075 98.9312C52.2044 98.427 51.9169 97.9948 51.4992 97.7137C51.2642 97.5538 51.0021 97.4607 50.7332 97.4238L46.5885 77.2037C48.6684 76.2462 51.1627 74.6878 53.0634 72.2246C55.9212 68.5228 56.4319 64.0603 56.4945 61.8572C57.6275 62.6864 58.7791 63.3224 59.8275 63.8038ZM51.6548 101.916C51.9304 101.56 52.135 101.164 52.2585 100.723L51.834 102.791L51.6548 101.916ZM46.5158 66.7694C49.3499 63.0975 53.6096 61.7377 55.2651 61.3301C55.2567 63.101 54.9421 67.7375 52.0995 71.4217C49.2705 75.0884 44.862 76.6274 43.1185 77.1158C43.1963 75.2412 43.685 70.4361 46.5158 66.7694ZM37.0258 30.5563C37.599 33.3498 33.7587 34.4443 30.1078 35.2525C27.6981 35.7848 26.1559 35.9781 24.9637 35.9324C23.2237 35.8498 22.209 35.1629 21.9486 33.8909C21.9148 33.724 21.9452 33.5518 22.0349 33.4077C22.1245 33.2637 22.2632 33.1635 22.4238 33.1284C22.4661 33.1196 22.51 33.1143 22.5523 33.1143C22.8381 33.1143 23.0968 33.3234 23.1594 33.6273C23.3353 34.4724 24.3042 34.6147 25.0195 34.6481C26.4163 34.7026 28.3373 34.3301 29.8491 33.9945C34.2829 33.0142 36.0686 32.0672 35.8133 30.8233C35.7795 30.6564 35.8099 30.4843 35.8995 30.3402C35.9892 30.1979 36.1261 30.0995 36.2851 30.0644C36.2868 30.0644 36.2885 30.0644 36.2902 30.0644C36.2919 30.0644 36.2936 30.0626 36.2952 30.0626C36.6318 29.9888 36.9547 30.2102 37.0258 30.5563ZM26.0274 15.3503C29.1558 14.6581 32.3974 14.1609 32.7187 15.7228L35.4531 29.0612C35.2214 29.2087 35.0151 29.395 34.863 29.6409C34.6127 30.0433 34.5146 30.5159 34.5856 30.985C34.4368 31.1571 33.615 31.8494 29.592 32.7366C28.2629 33.0335 26.3487 33.4042 25.0753 33.3638C24.6424 33.3427 24.4327 33.283 24.3465 33.2479C24.1453 32.4871 23.5196 31.9565 22.7992 31.8546L20.0648 18.5215C19.7435 16.9614 22.899 16.0426 26.0274 15.3503ZM11.2546 35.4528C6.85119 34.3811 3.61289 30.9129 2.43594 29.4899C4.0999 28.7555 8.48472 27.1479 12.8864 28.2143C16.4968 29.0928 19.2971 31.5665 20.7953 33.1565C20.6922 33.478 20.6668 33.8206 20.7362 34.1597C20.7598 34.2774 20.7953 34.4092 20.8376 34.5409C18.7729 35.3632 15.1237 36.398 11.2546 35.4528ZM19.6708 46.1206C16.2364 49.1794 11.63 49.8453 9.82908 49.9893C10.2417 48.1622 11.5793 43.5327 15.0121 40.4757C17.5706 38.197 20.7463 37.2448 23.0173 36.8442C23.4824 37.0269 24.0489 37.1464 24.7151 37.1956C24.1639 39.3654 22.7874 43.3447 19.6708 46.1206ZM24.6813 41.0836C25.356 39.5428 25.7602 38.1619 25.9885 37.1991C27.1096 37.1376 28.4861 36.925 30.3699 36.5087C32.1353 36.1169 34.7733 35.5283 36.5218 34.2774L43.0526 66.1282C42.8209 66.2758 42.6146 66.4637 42.4607 66.708C42.2104 67.1068 42.114 67.5776 42.1834 68.0485C42.1174 68.1187 41.95 68.2628 41.5628 68.4649C40.4552 69.0411 38.6458 69.4856 37.1915 69.8054C35.8742 70.0988 33.9718 70.4818 32.6731 70.4326C32.2402 70.4133 32.0305 70.3518 31.9442 70.3166C31.743 69.5559 31.1173 69.0271 30.397 68.9234L24.6982 41.124C24.6948 41.1082 24.6847 41.0977 24.6813 41.0836ZM30.0199 70.1972C30.0216 70.1972 30.0233 70.1972 30.0249 70.1972C30.0266 70.1972 30.0266 70.1954 30.0266 70.1954C30.3615 70.1216 30.6878 70.3447 30.7588 70.6944C30.9347 71.5394 31.9037 71.6817 32.6223 71.7151C34.0682 71.759 36.0653 71.3672 37.4485 71.0615C38.9738 70.7242 40.883 70.2551 42.1174 69.6139C42.7583 69.2801 43.5886 68.7389 43.4128 67.8903C43.3417 67.5442 43.5548 67.2016 43.8896 67.1279C44.1669 67.0681 44.4257 67.2104 44.5525 67.4529C43.9623 68.4455 43.4973 69.468 43.1388 70.4712C41.9263 71.0703 39.8548 71.8451 37.7072 72.3212C35.2975 72.8536 33.7503 73.0468 32.5632 73.0012C30.8231 72.9186 29.8085 72.2316 29.5481 70.9596C29.477 70.6135 29.6884 70.2745 30.0199 70.1972ZM31.4217 98.5341C27.0065 97.5081 23.736 94.0716 22.5472 92.6591C24.1994 91.9071 28.5605 90.2469 32.9859 91.2782C37.4012 92.3059 40.6716 95.7424 41.8604 97.1532C40.2083 97.9069 35.8454 99.5672 31.4217 98.5341ZM43.1371 97.9509C43.2961 97.863 43.4111 97.7066 43.45 97.5239C43.4888 97.3412 43.45 97.1497 43.3417 96.9986C43.1929 96.7913 39.9495 92.3534 34.819 90.4981L31.4691 74.1572C31.7836 74.2204 32.1269 74.2644 32.5074 74.2837C32.6511 74.2907 32.8016 74.2942 32.9555 74.2942C34.1781 74.2942 35.7237 74.0729 37.9643 73.5774C39.7635 73.1786 41.4055 72.6129 42.6264 72.1034C41.7978 75.2166 41.8604 77.7852 41.8655 77.9574C41.8722 78.1454 41.9568 78.3193 42.0971 78.4352C42.2087 78.5284 42.3457 78.5776 42.4844 78.5776C42.5233 78.5776 42.5605 78.574 42.5977 78.567C42.7076 78.5459 43.8524 78.3105 45.4234 77.6991L49.5241 97.7049C49.2924 97.8525 49.0861 98.0387 48.9339 98.2847C48.6837 98.6852 48.5856 99.1596 48.6566 99.6269C48.5061 99.8009 47.6826 100.491 43.663 101.38C41.605 101.837 40.1271 102.022 39.1463 102.008C38.7134 101.986 38.5037 101.925 38.4158 101.89C38.2146 101.129 37.5889 100.597 36.8685 100.495L36.7637 99.9818C40.3216 99.4811 42.9748 98.0405 43.1371 97.9509ZM36.1075 102.05C36.1972 101.907 36.3341 101.809 36.4914 101.772C36.4931 101.772 36.4948 101.772 36.4965 101.772C36.4982 101.772 36.4982 101.77 36.4999 101.77C36.5404 101.762 36.5827 101.756 36.6233 101.756C36.9108 101.756 37.1695 101.965 37.2321 102.269C37.4079 103.114 38.3769 103.257 39.099 103.292C40.1846 103.325 41.7657 103.114 43.9217 102.638C48.3573 101.658 50.1413 100.709 49.886 99.4671C49.8522 99.3001 49.8826 99.128 49.9722 98.9839C50.0618 98.8398 50.2005 98.7397 50.3645 98.7046C50.5235 98.6642 50.6875 98.7028 50.8279 98.7942C50.9682 98.889 51.0629 99.0331 51.0967 99.2018C51.67 101.995 47.8263 103.09 44.1805 103.898C41.7708 104.43 40.2303 104.625 39.0347 104.578C37.2963 104.495 36.2817 103.808 36.0196 102.535C35.9858 102.366 36.0179 102.194 36.1075 102.05ZM38.9806 105.86C39.126 105.867 39.2748 105.871 39.4304 105.871C40.653 105.871 42.1986 105.65 44.4392 105.154C46.2046 104.762 48.8443 104.172 50.5945 102.921L55.326 126C55.326 126.001 55.326 126.003 55.3277 126.005L57.1252 134.77C56.8936 134.918 56.6873 135.106 56.5351 135.348C56.2848 135.751 56.1867 136.223 56.2578 136.692C56.1089 136.864 55.2871 137.557 51.2659 138.446C47.2446 139.338 46.2215 139.053 46.0186 138.959C45.8191 138.196 45.1951 137.664 44.4696 137.562L37.944 105.734C38.2585 105.799 38.6001 105.843 38.9806 105.86ZM43.6208 139.602C43.5497 139.256 43.7628 138.913 44.0959 138.839C44.1382 138.829 44.1822 138.825 44.2244 138.825C44.5102 138.825 44.769 139.032 44.8315 139.336C45.0902 140.577 47.0907 140.689 51.5229 139.705C53.7652 139.21 55.3801 138.699 56.3237 138.189C57.2216 137.702 57.6123 137.147 57.4871 136.532C57.4533 136.365 57.4837 136.193 57.5734 136.049C57.663 135.905 57.8017 135.805 57.964 135.77C58.2988 135.693 58.6286 135.917 58.6979 136.265C59.2711 139.06 55.4291 140.155 51.7816 140.963C50.3848 141.272 48.6448 141.657 47.0772 141.657C44.3563 141.657 43.8017 140.484 43.6208 139.602ZM54.8999 156.181C51.7715 156.872 48.5281 157.369 48.2085 155.809L45.5401 142.796C46.0051 142.887 46.509 142.943 47.0738 142.943C48.7716 142.943 50.6588 142.527 52.037 142.223C53.8041 141.831 56.4438 141.241 58.194 139.99L60.8641 153.01C61.1837 154.57 58.0282 155.489 54.8999 156.181ZM59.6516 135.366C59.3574 134.888 58.8754 134.57 58.3343 134.494L57.2842 129.369C58.0857 129.484 58.7689 129.538 59.3895 129.538C59.5451 129.538 59.6939 129.536 59.8393 129.528C60.2181 129.51 60.5614 129.466 60.8759 129.401L59.6516 135.366ZM62.7969 126.204C62.5365 127.476 61.5219 128.162 59.7835 128.243C59.0226 128.28 58.1365 128.206 57.0086 128.024L56.7312 126.673C57.9961 126.896 58.9735 126.989 59.7243 126.961L60.0067 126.941C60.3534 126.908 61.4069 126.81 61.5862 125.936C61.6572 125.589 61.992 125.365 62.3201 125.441C62.4824 125.476 62.6211 125.575 62.7107 125.72C62.8003 125.863 62.8307 126.035 62.7969 126.204ZM61.948 124.166C61.2293 124.267 60.6037 124.798 60.4007 125.559C60.3314 125.587 60.1809 125.634 59.9019 125.661L59.6736 125.675C58.9194 125.705 57.8558 125.585 56.4522 125.316L52.4682 105.881L55.8215 89.523C56.0954 89.7233 56.3829 89.9166 56.716 90.0905C57.8862 90.7001 59.4605 91.1991 61.9785 91.756C64.2191 92.2515 65.7647 92.4728 66.9873 92.4728C67.1428 92.4728 67.2917 92.4711 67.4371 92.4623C67.8159 92.4447 68.1592 92.4008 68.4737 92.3358L61.948 124.166ZM70.3964 89.1348C70.136 90.4085 69.1213 91.0937 67.383 91.1763C66.1857 91.2237 64.6469 91.0287 62.2372 90.4963C59.8292 89.9622 58.3445 89.4967 57.2707 88.9397C56.6382 88.6112 56.1461 88.2335 55.8113 87.8206C55.3311 87.2285 55.1654 86.5503 55.3192 85.8002C55.3801 85.498 55.6405 85.2906 55.9263 85.2906C55.9686 85.2906 56.0109 85.2942 56.0531 85.3047C56.388 85.3785 56.601 85.7211 56.53 86.0672C56.3541 86.9158 57.1861 87.4569 57.8253 87.7907C59.0581 88.432 60.9672 88.9011 62.4925 89.2384C63.8758 89.5441 65.8847 89.9587 67.3255 89.892C68.0391 89.8586 69.008 89.718 69.1839 88.8695C69.2549 88.5233 69.5898 88.2967 69.9161 88.374C69.9178 88.374 69.9178 88.3758 69.9195 88.3758C69.9195 88.3758 69.9212 88.3758 69.9229 88.3758C70.2543 88.4496 70.4674 88.7886 70.3964 89.1348ZM73.4318 77.8783C77.8453 76.8453 82.2149 78.5108 83.8704 79.2592C82.6833 80.6718 79.4197 84.1048 74.9943 85.1343C70.579 86.1674 66.2094 84.5036 64.5556 83.7534C65.7427 82.3408 69.0064 78.9078 73.4318 77.8783ZM63.0759 83.5988C62.9677 83.7499 62.9288 83.9396 62.9677 84.1241C63.0066 84.3068 63.1216 84.4632 63.2806 84.551C63.4429 84.6406 66.0944 86.0813 69.654 86.582L69.5492 87.0967C68.8288 87.1986 68.2048 87.731 68.0019 88.49C67.914 88.5251 67.706 88.5848 67.2764 88.6059C66.294 88.6586 64.8194 88.4373 62.7513 87.9787C61.2987 87.659 59.4876 87.2145 58.3817 86.6382C57.9961 86.4379 57.827 86.2921 57.7611 86.2218C57.8304 85.7545 57.734 85.2819 57.4837 84.8813C57.3315 84.6371 57.1252 84.4509 56.8936 84.3033L60.9943 64.2975C62.5653 64.9107 63.7101 65.1461 63.82 65.1672C63.8572 65.1742 63.8961 65.1777 63.9333 65.1777C64.0736 65.1777 64.2089 65.1285 64.3205 65.0354C64.4609 64.9194 64.5454 64.7437 64.5522 64.5575C64.5573 64.417 64.6198 61.9661 63.8504 58.9407C64.9361 59.3255 66.4343 59.7296 68.4551 60.1758C70.6957 60.6713 72.2396 60.8926 73.4639 60.8926C73.6195 60.8926 73.7683 60.8909 73.9137 60.8821C74.2823 60.8663 74.6256 60.8171 74.952 60.7503L71.6004 77.0965C66.4681 78.9535 63.2231 83.3932 63.0759 83.5988ZM76.8696 57.5598C76.709 58.3469 76.2558 58.9144 75.5235 59.2464C75.072 59.4502 74.5106 59.5697 73.8562 59.5996C72.6539 59.6593 71.1201 59.452 68.7104 58.9196C66.1113 58.3451 64.3696 57.8391 63.3837 57.3771C63.1639 56.7288 62.9068 56.0682 62.5957 55.4093C62.3725 54.935 62.1239 54.4835 61.8635 54.0478C61.9903 53.8036 62.2473 53.663 62.5264 53.7262C62.6887 53.7614 62.8274 53.8598 62.917 54.0056C63.0066 54.1497 63.0371 54.3218 63.0032 54.4887C62.8274 55.3373 63.6593 55.8784 64.2985 56.2123C65.5313 56.8535 67.4405 57.3226 68.9658 57.6599C70.4792 57.9955 72.3985 58.3803 73.7987 58.3135C74.5123 58.2801 75.4813 58.1396 75.6588 57.291C75.7299 56.9449 76.0596 56.7165 76.3927 56.7955C76.5551 56.8307 76.6937 56.9291 76.7834 57.0749C76.873 57.2207 76.9034 57.3911 76.8696 57.5598ZM96.5869 36.5877C94.786 36.4436 90.1796 35.7795 86.7452 32.719C85.2588 31.3961 84.0125 29.6409 83.0283 27.5133L83.8451 23.5269C86.0704 23.9697 89.0061 24.9377 91.4039 27.0741C94.8384 30.1329 96.1743 34.7605 96.5869 36.5877ZM95.1631 22.0529C91.3177 22.9893 87.6634 21.9633 85.5682 21.134C85.6054 21.0093 85.6511 20.8916 85.6781 20.7581C85.7475 20.419 85.7221 20.0746 85.6189 19.7531C86.3495 18.9801 87.4013 17.9734 88.7338 17.0457C90.2997 15.9565 91.9129 15.2063 93.5279 14.8127C97.933 13.7375 102.318 15.3539 103.98 16.0882C102.808 17.5131 99.5766 20.9794 95.1631 22.0529Z" fill="black"/>
</svg>
