<svg width="187" height="243" viewBox="0 0 187 243" fill="none" xmlns="http://www.w3.org/2000/svg">
<path d="M92.7936 69.9446C94.0616 68.3981 95.1853 66.7292 96.1494 64.9606C97.9096 61.3633 100.363 58.2076 102.271 54.6812C104.409 50.4603 105.097 45.6046 104.221 40.9201C103.745 36.8091 104.213 32.6391 105.586 28.7532C106.372 26.8812 107.754 25.3494 109.499 24.4165C110.384 23.9954 111.387 23.9344 112.313 24.2456C113.238 24.5567 114.018 25.2175 114.5 26.0979C115.584 27.6581 116.302 29.4615 116.595 31.3632C116.889 33.2649 116.75 35.2118 116.191 37.0476C114.964 41.5408 113.481 45.822 109.832 49.0025C107.347 51.2476 105.092 53.7547 103.103 56.4837C100.914 58.9925 99.2119 61.9186 98.0897 65.1009C99.4402 65.0229 100.748 64.5803 101.885 63.8167C103.022 63.0531 103.949 61.9946 104.574 60.7451C106.86 57.19 110.404 54.7231 114.431 53.8844C119.468 52.5962 121.054 55.7647 121.105 59.5759C121.125 61.6743 120.367 63.6998 118.988 65.23C117.61 66.7602 115.718 67.6772 113.707 67.7898C110.809 68.1046 107.879 67.7915 105.103 66.87C102.94 66.2851 100.664 66.3325 98.5249 67.007C96.2312 67.5127 95.1109 69.8173 93.7345 71.6203C92.7223 72.9461 93.3785 74.3703 93.6195 75.6971C94.6756 80.8148 95.2822 86.0221 95.4318 91.2544C95.452 94.5289 96.0017 97.8438 95.8715 101.152C97.0479 101.389 97.0392 100.373 97.3044 99.8719C98.2171 97.753 99.3974 95.7706 100.814 93.9773C101.335 93.2453 101.632 92.3669 101.668 91.4564C101.858 89.0359 102.469 86.6716 103.471 84.4791C106.362 79.319 110.39 74.9508 115.223 71.7362C116.37 71.0564 117.659 70.68 118.977 70.6401C120.296 70.6002 121.603 70.8979 122.786 71.5072C123.426 71.7434 123.978 72.1855 124.362 72.7698C124.745 73.3541 124.941 74.0502 124.92 74.7578C125.048 76.2771 124.758 77.803 124.085 79.1571C123.411 80.5112 122.382 81.6376 121.117 82.4046C115.822 85.9169 110.78 89.876 104.931 92.4112C102.857 93.2931 101.175 94.9519 100.217 97.0611C98.4629 100.189 96.9203 103.44 95.6001 106.792C95.0178 108.822 94.6301 110.908 94.4425 113.019C93.8873 117.675 91.8622 121.892 90.881 126.42C90.7488 126.84 90.7135 127.288 90.7779 127.725C90.8424 128.163 91.0047 128.578 91.2518 128.938C94.8577 134.197 97.9916 139.789 100.614 145.645C100.819 145.899 101.067 146.109 101.346 146.267C102.881 143.847 102.313 141.18 102.322 138.67C102.137 133.22 102.32 127.764 102.869 122.34C103.183 119.423 104.111 116.614 105.587 114.113C107.802 110.57 111.412 110.07 113.899 112.855C114.535 113.567 114.972 114.448 115.159 115.401C115.346 116.354 115.277 117.343 114.96 118.258C113.036 124.377 111.237 130.612 106.483 135.218C105.61 136.037 104.993 137.11 104.71 138.299C103.458 143.895 102.164 149.424 103.106 155.329C103.75 159.95 103.408 164.662 102.106 169.13C101.955 169.694 101.885 170.477 101.131 170.336C100.352 170.19 100.49 169.457 100.692 168.878C101.395 166.464 101.771 163.96 101.81 161.438C101.902 159.427 101.777 157.412 101.437 155.43C101.16 154.149 101.058 152.833 101.135 151.523C101.132 150.104 100.731 148.716 99.9831 147.531C97.5588 141.923 94.6602 136.551 91.3216 131.478C91.0458 131.098 90.7491 130.734 90.4331 130.39C90.0856 130.464 89.7708 130.655 89.5361 130.932C89.3015 131.21 89.1596 131.559 89.1318 131.927C86.513 138.109 84.4075 144.514 82.8386 151.071C81.7853 155.18 81.5642 159.472 82.1893 163.675C82.6468 165.891 82.7747 168.167 82.5688 170.424C82.4091 170.43 82.2499 170.401 82.1016 170.339C81.9533 170.277 81.819 170.184 81.7076 170.064C81.5962 169.945 81.51 169.803 81.4548 169.646C81.3995 169.49 81.3763 169.323 81.3866 169.157C81.2804 165.626 80.7293 162.137 80.5459 158.604C80.5391 153.375 79.8033 148.175 78.3617 143.167C77.7012 141.061 76.5391 139.164 74.9841 137.653C72.0587 134.858 69.2662 131.893 66.6056 128.822C64.2749 125.954 62.6329 122.548 61.8154 118.888C61.5924 117.898 61.601 116.867 61.8405 115.881C62.08 114.896 62.5433 113.985 63.1914 113.225C67.626 107.497 71.4141 108.85 74.404 114.822C75.4775 117.631 76.2403 120.559 76.6776 123.549C77.6195 127.315 77.1473 131.183 77.5838 134.988C77.7634 137.395 78.3005 139.758 79.1757 141.994C80.017 143.816 80.5249 145.787 80.6735 147.803C80.682 148.135 80.7687 148.46 80.926 148.748C81.0833 149.037 81.3064 149.281 81.5755 149.459C82.4252 147.241 83.1655 144.979 83.7935 142.683C85.2065 138.396 86.685 134.133 88.2288 129.894C88.5143 129.258 88.6342 128.555 88.5764 127.856C88.5187 127.157 88.2853 126.485 87.8997 125.91C85.0458 120.978 82.9351 115.62 81.6413 110.021C80.9011 106.986 80.689 103.837 81.0153 100.724C81.0787 99.811 80.8903 98.9063 80.9401 98.0622C81.2699 92.4671 78.1513 88.7385 74.8686 84.974C72.097 81.5678 70.1825 77.4966 69.2974 73.1273C68.9855 72.0587 68.9039 70.9316 69.0586 69.8265C69.2132 68.7213 69.6002 67.6653 70.1918 66.7341C70.5655 65.9552 71.2184 65.361 72.0092 65.0798C72.8001 64.7986 73.6654 64.853 74.418 65.2313C77.6058 66.2766 80.2632 69.7233 80.581 74.9437C80.6302 77.5665 80.4503 80.1885 80.0436 82.7773C79.7762 84.6763 79.9491 86.6144 80.5479 88.4296C80.9428 89.8353 81.2517 91.2658 81.4725 92.7124C81.9995 92.3617 82.4431 91.891 82.7701 91.3357C83.097 90.7804 83.2988 90.155 83.3601 89.5067C84.6588 85.7022 86.2714 82.0222 88.1798 78.5077C89.0959 76.8504 90.2012 75.3191 90.9826 73.5626C91.1984 73.1858 91.3359 72.766 91.3862 72.3303C91.4365 71.8947 91.3984 71.4529 91.2744 71.0335C90.1627 66.9543 88.7303 62.9775 86.9918 59.1435C85.1468 55.8745 82.7291 52.9957 79.8644 50.6566C75.7452 46.7884 72.778 42.2105 72.9114 36.0019C72.9847 34.2854 73.4407 32.6102 74.2433 31.1092C75.0458 29.6082 76.1728 28.3226 77.535 27.3543C78.2362 26.8836 79.0662 26.6654 79.8977 26.7332C80.7293 26.801 81.5166 27.151 82.139 27.7296C83.0045 28.4672 83.7221 29.3752 84.2509 30.4017C84.7796 31.4283 85.1091 32.5533 85.2205 33.7126C86.2876 38.9433 86.5942 44.3114 86.13 49.6371C85.8543 51.7609 86.1741 53.9224 87.0507 55.8612C88.8857 59.8821 90.1886 64.1031 91.6286 68.2747C91.6805 68.6298 91.8134 68.9668 92.0161 69.2573C92.2188 69.5479 92.4854 69.7836 92.7936 69.9446ZM92.1634 74.7409C89.626 78.4833 87.4614 82.4856 85.7032 86.6856C83.1117 92.2484 81.894 98.3973 82.1607 104.575C82.5434 111.804 85.5135 118.168 88.6059 124.466C88.8325 124.744 89.0973 124.986 89.3918 125.184C90.9055 122.021 92.0459 118.679 92.788 115.23C94.734 104.926 95.1467 94.3715 94.0117 83.9366C93.5522 80.8394 92.9353 77.7699 92.1634 74.7409ZM75.2613 131.803C75.4588 131.747 75.6477 131.663 75.8224 131.552C76.2484 125.894 75.2913 120.216 73.0404 115.048C72.0098 112.352 69.2309 110.699 67.7284 111.254C66.2937 111.885 65.0848 112.968 64.2715 114.352C63.4581 115.735 63.0812 117.35 63.1937 118.968C63.3106 119.456 63.4517 119.938 63.6165 120.411C65.3274 126.916 70.0747 130.915 74.9482 135.471C74.4639 132.124 72.66 129.891 71.7468 127.289C70.825 124.662 68.4325 122.784 68.1477 119.826C71.4433 123.245 73.0792 127.743 75.2613 131.803ZM84.2831 52.161C83.2519 49.9399 82.0804 47.7758 81.223 45.484C80.1427 43.3144 79.8717 40.8048 80.4622 38.4392C81.6085 41.917 81.9083 45.7728 84.6568 49.1762C85.2015 45.8024 85.1963 42.3569 84.6413 38.9849C84.4412 36.0591 83.6716 33.2064 82.3794 30.6004C80.8534 28.1912 79.2316 27.9806 77.0711 29.7635C75.6413 31.08 74.6427 32.8295 74.2151 34.7669C73.7875 36.7044 73.9524 38.7327 74.6866 40.5676C76.3979 45.5366 79.8173 49.6675 84.2831 52.161H84.2831ZM116.551 76.9368C115.087 79.6265 112.515 81.2147 110.812 83.6203C109.121 86.0094 106.321 87.3992 105.033 90.334C105.492 90.4488 105.97 90.4507 106.429 90.3395C106.889 90.2283 107.317 90.0071 107.68 89.6935C112.182 87.1021 116.38 84.0067 120.663 81.0563C121.557 80.4342 122.29 79.5929 122.798 78.6064C123.217 78.0145 123.47 77.3129 123.528 76.5799C123.587 75.8469 123.449 75.1114 123.13 74.4553C122.811 73.7992 122.323 73.2485 121.721 72.8645C121.119 72.4805 120.426 72.2783 119.72 72.2805C118.757 72.1478 117.777 72.2235 116.843 72.5031C115.909 72.7826 115.04 73.2599 114.291 73.9052C111.13 76.5759 108.268 79.6093 105.759 82.948C105.001 83.7935 104.418 84.7935 104.049 85.8851C103.679 86.9768 103.531 88.1363 103.612 89.2907C108.07 85.0091 111.691 80.266 116.551 76.9368ZM106.672 49.746C108.774 48.27 110.576 46.3761 111.974 44.173C113.373 41.9699 114.341 39.5008 114.822 36.9074C115.275 35.1966 115.355 33.402 115.057 31.6548C114.759 29.9075 114.09 28.2517 113.099 26.8083C112.937 26.4626 112.696 26.1634 112.397 25.9366C112.098 25.7098 111.751 25.5622 111.386 25.5066C111.02 25.4511 110.647 25.4891 110.299 25.6176C109.95 25.7461 109.637 25.961 109.387 26.2439C108.02 27.3748 106.987 28.8843 106.407 30.5992C104.502 35.6813 105.296 40.8154 105.947 46.3958C106.906 44.6675 107.662 42.8245 108.196 40.9071C108.854 39.0977 108.359 37.0672 109.403 35.3795C110.6 40.3403 108.341 44.6536 106.672 49.746V49.746ZM109.762 118.968C110.056 119.39 110.233 119.887 110.275 120.406C110.317 120.925 110.221 121.446 109.999 121.913C108.886 124.914 107.815 127.933 106.699 130.934C106.517 131.211 106.408 131.533 106.384 131.868C106.36 132.202 106.422 132.538 106.563 132.84C106.828 132.613 107.082 132.371 107.322 132.115C110.612 128.096 111.893 123.081 113.595 118.28C113.863 117.407 113.851 116.467 113.561 115.602C113.477 115.022 113.244 114.477 112.887 114.024C112.53 113.571 112.062 113.226 111.533 113.026C111.004 112.827 110.433 112.779 109.881 112.889C109.328 112.999 108.814 113.262 108.393 113.65C106.895 114.795 105.797 116.417 105.265 118.271C103.924 122.799 103.326 127.531 103.496 132.267C103.449 132.419 103.434 132.58 103.452 132.738C103.47 132.897 103.521 133.05 103.602 133.186C103.682 133.321 103.79 133.438 103.918 133.526C104.045 133.614 104.19 133.672 104.342 133.697C105.899 128.913 107.524 124.133 109.762 118.968V118.968ZM116.014 61.0395C112.386 63.1899 107.701 61.7721 103.996 64.7835C107.591 66.3143 111.554 66.6369 115.333 65.7061C116.278 65.4288 117.141 64.9123 117.847 64.2026C118.553 63.4929 119.079 62.6121 119.379 61.6389C119.762 60.6993 119.888 59.6673 119.741 58.6578C119.595 57.6483 119.182 56.701 118.549 55.9216C117.881 55.318 117.051 54.9446 116.171 54.8525C115.291 54.7604 114.406 54.9542 113.636 55.4072C111.611 56.1026 109.727 57.1852 108.083 58.5997C107.048 59.3304 106.262 60.3844 105.838 61.61C109.315 61.3103 112.593 60.3774 116.014 61.0395ZM75.1506 72.2994C77.0799 74.9829 77.086 78.0874 78.5304 80.7099C79.1972 78.9626 79.4671 77.0782 79.3189 75.2042C79.1708 73.3301 78.6087 71.5172 77.6766 69.9071C76.3136 67.6731 73.6192 66.1972 72.1556 66.8829C70.7377 67.5471 70.0424 70.1695 70.5035 72.8819C71.4229 77.1167 73.3226 81.0527 76.037 84.3469C76.2398 84.8078 76.5589 85.2028 76.9601 85.4897C77.3613 85.7767 77.8297 85.9449 78.3155 85.9764C78.013 83.6555 77.3983 81.3906 76.4896 79.2484C75.5314 77.0718 75.073 74.6926 75.1506 72.2994Z" fill="black"/>
</svg>
