<svg width="691" height="1093" viewBox="0 0 691 1093" fill="none" xmlns="http://www.w3.org/2000/svg">
<ellipse rx="70.7806" ry="70.7682" transform="matrix(-0.994544 -0.134576 0.11142 -0.990157 280.137 480.865)" fill="#6CCDA9"/>
<ellipse rx="70.7806" ry="70.7682" transform="matrix(-0.994544 -0.134576 0.11142 -0.990157 280.137 480.865)" fill="url(#paint0_linear)"/>
<ellipse rx="34.4093" ry="34.4033" transform="matrix(-0.994544 -0.134576 0.11142 -0.990157 96.6019 452.019)" fill="#6CCDA9"/>
<ellipse rx="34.4093" ry="34.4033" transform="matrix(-0.994544 -0.134576 0.11142 -0.990157 96.6019 452.019)" fill="url(#paint1_linear)"/>
<ellipse rx="18.6523" ry="18.649" transform="matrix(-0.994544 -0.134576 0.11142 -0.990157 137.182 335.345)" fill="#6CCDA9"/>
<ellipse rx="18.6523" ry="18.649" transform="matrix(-0.994544 -0.134576 0.11142 -0.990157 137.182 335.345)" fill="url(#paint2_linear)"/>
<ellipse rx="218.378" ry="215.039" transform="matrix(0.880318 0.480767 -0.46532 0.881611 659.467 608.642)" fill="#6CCDA9"/>
<defs>
<linearGradient id="paint0_linear" x1="70.7806" y1="0" x2="70.7806" y2="141.536" gradientUnits="userSpaceOnUse">
<stop stop-color="#6CCDA9"/>
<stop offset="1" stop-color="white" stop-opacity="0"/>
</linearGradient>
<linearGradient id="paint1_linear" x1="34.4093" y1="0" x2="34.4093" y2="68.8065" gradientUnits="userSpaceOnUse">
<stop stop-color="#6CCDA9"/>
<stop offset="1" stop-color="white" stop-opacity="0"/>
</linearGradient>
<linearGradient id="paint2_linear" x1="18.6523" y1="0" x2="18.6523" y2="37.2981" gradientUnits="userSpaceOnUse">
<stop stop-color="#6CCDA9"/>
<stop offset="1" stop-color="white" stop-opacity="0"/>
</linearGradient>
</defs>
</svg>
