<svg width="140" height="106" viewBox="0 0 140 106" fill="none" xmlns="http://www.w3.org/2000/svg">
<ellipse cx="126.273" cy="91.4995" rx="13.6085" ry="13.5" fill="#FF612F"/>
<ellipse cx="88.9757" cy="91.4995" rx="13.6085" ry="13.5" fill="#613737"/>
<path d="M64.4162 91.5015C64.4162 98.9573 58.3235 105.001 50.8077 105.001C43.2919 105.001 37.1992 98.9573 37.1992 91.5015C37.1992 84.0456 43.2919 78.0015 50.8077 78.0015C58.3235 78.0015 64.4162 84.0456 64.4162 91.5015Z" fill="black"/>
<ellipse cx="14.3819" cy="91.4995" rx="13.6085" ry="13.5" fill="#2DBBDA"/>
<ellipse cx="126.273" cy="52.4995" rx="13.6085" ry="13.5" fill="#CBB809"/>
<ellipse cx="88.9757" cy="52.4995" rx="13.6085" ry="13.5" fill="#865684"/>
<ellipse cx="51.6788" cy="52.4995" rx="13.6085" ry="13.5" fill="#554F64"/>
<ellipse cx="14.3819" cy="52.4995" rx="13.6085" ry="13.5" fill="#538764"/>
<ellipse cx="126.273" cy="13.4995" rx="13.6085" ry="13.5" fill="#B0CD5F"/>
<ellipse cx="88.9757" cy="13.4995" rx="13.6085" ry="13.5" fill="#273DB0"/>
<ellipse cx="51.6788" cy="13.4995" rx="13.6085" ry="13.5" fill="#9D3535"/>
<circle cx="14.2734" cy="13.4995" r="13.5" fill="#D0C4C4"/>
</svg>
